# MagicaVoxel @ Ephtracy

# group
o 

# material
mtllib flower.mtl
usemtl palette

# normals
vn -1 0 0
vn 1 0 0
vn 0 0 1
vn 0 0 -1
vn 0 -1 0
vn 0 1 0

# texcoords
vt 0.630859 0.5
vt 0.748047 0.5
vt 0.841797 0.5
vt 0.849609 0.5
vt 0.865234 0.5
vt 0.869141 0.5

# verts
v -0.5 1.6 0
v -0.5 1.6 -0.1
v -0.5 1.8 0
v -0.5 1.8 -0.1
v -0.4 1.5 0
v -0.4 1.5 -0.1
v -0.4 1.6 0
v -0.4 1.6 -0.1
v -0.4 2.1 0
v -0.4 2.1 -0.1
v -0.4 2.4 0
v -0.4 2.4 -0.1
v -0.3 1.3 0
v -0.3 1.3 -0.1
v -0.3 1.4 0
v -0.3 1.4 -0.1
v -0.3 1.5 0
v -0.3 1.5 -0.1
v -0.3 2 0
v -0.3 2 -0.1
v -0.3 2.1 0
v -0.3 2.1 -0.1
v -0.3 2.5 0
v -0.3 2.5 -0.1
v -0.3 2.8 0
v -0.3 2.8 -0.1
v -0.2 2.4 0
v -0.2 2.4 -0.1
v -0.2 2.5 0
v -0.2 2.5 -0.1
v -0.1 1.8 0
v -0.1 1.8 -0.1
v -0.1 2 0
v -0.1 2 -0.1
v -0.1 2.2 0
v -0.1 2.2 -0.1
v -0.1 2.3 0
v -0.1 2.3 -0.1
v -0.1 2.4 0
v -0.1 2.4 -0.1
v -0.1 2.7 0
v -0.1 2.7 -0.1
v -0.1 2.8 0
v -0.1 2.8 -0.1
v 0.2 2.2 0
v 0.2 2.2 -0.1
v 0.2 2.3 0
v 0.2 2.3 -0.1
v 0.2 2.7 0
v 0.2 2.7 -0.1
v 0.2 2.8 0
v 0.2 2.8 -0.1
v 0.3 2.3 0
v 0.3 2.3 -0.1
v 0.3 2.4 0
v 0.3 2.4 -0.1
v -0.3 2.3 0
v -0.3 2.3 -0.1
v -0.3 2.4 0
v -0.3 2.4 -0.1
v -0.2 2.2 0
v -0.2 2.2 -0.1
v -0.2 2.3 0
v -0.2 2.3 -0.1
v -0.2 2.7 0
v -0.2 2.7 -0.1
v -0.2 2.8 0
v -0.2 2.8 -0.1
v 0.1 1.8 0
v 0.1 1.8 -0.1
v 0.1 2 0
v 0.1 2 -0.1
v 0.1 2.2 0
v 0.1 2.2 -0.1
v 0.1 2.3 0
v 0.1 2.3 -0.1
v 0.1 2.4 0
v 0.1 2.4 -0.1
v 0.1 2.7 0
v 0.1 2.7 -0.1
v 0.1 2.8 0
v 0.1 2.8 -0.1
v 0.2 2.4 0
v 0.2 2.4 -0.1
v 0.2 2.5 0
v 0.2 2.5 -0.1
v 0.3 1.3 0
v 0.3 1.3 -0.1
v 0.3 1.4 0
v 0.3 1.4 -0.1
v 0.3 1.5 0
v 0.3 1.5 -0.1
v 0.3 2 0
v 0.3 2 -0.1
v 0.3 2.1 0
v 0.3 2.1 -0.1
v 0.3 2.5 0
v 0.3 2.5 -0.1
v 0.3 2.8 0
v 0.3 2.8 -0.1
v 0.4 1.5 0
v 0.4 1.5 -0.1
v 0.4 1.6 0
v 0.4 1.6 -0.1
v 0.4 2.1 0
v 0.4 2.1 -0.1
v 0.4 2.4 0
v 0.4 2.4 -0.1
v 0.5 1.6 0
v 0.5 1.6 -0.1
v 0.5 1.8 0
v 0.5 1.8 -0.1
v -0.5 1.6 0
v -0.5 1.8 0
v -0.4 1.5 0
v -0.4 1.6 0
v -0.4 1.7 0
v -0.4 1.8 0
v -0.4 2.1 0
v -0.4 2.4 0
v -0.3 1.3 0
v -0.3 1.4 0
v -0.3 1.5 0
v -0.3 2 0
v -0.3 2.1 0
v -0.3 2.2 0
v -0.3 2.3 0
v -0.3 2.4 0
v -0.3 2.5 0
v -0.3 2.8 0
v -0.2 1.5 0
v -0.2 1.6 0
v -0.2 2 0
v -0.2 2.1 0
v -0.2 2.2 0
v -0.2 2.3 0
v -0.2 2.4 0
v -0.2 2.5 0
v -0.2 2.6 0
v -0.2 2.7 0
v -0.2 2.8 0
v -0.1 1.8 0
v -0.1 2 0
v -0.1 2.1 0
v -0.1 2.2 0
v -0.1 2.3 0
v -0.1 2.4 0
v -0.1 2.5 0
v -0.1 2.6 0
v -0.1 2.7 0
v -0.1 2.8 0
v 0.1 1.8 0
v 0.1 2 0
v 0.1 2.1 0
v 0.1 2.2 0
v 0.1 2.3 0
v 0.1 2.4 0
v 0.1 2.5 0
v 0.1 2.6 0
v 0.1 2.7 0
v 0.1 2.8 0
v 0.2 1.5 0
v 0.2 1.6 0
v 0.2 2 0
v 0.2 2.1 0
v 0.2 2.2 0
v 0.2 2.3 0
v 0.2 2.4 0
v 0.2 2.5 0
v 0.2 2.6 0
v 0.2 2.7 0
v 0.2 2.8 0
v 0.3 1.3 0
v 0.3 1.4 0
v 0.3 1.5 0
v 0.3 2 0
v 0.3 2.1 0
v 0.3 2.2 0
v 0.3 2.3 0
v 0.3 2.4 0
v 0.3 2.5 0
v 0.3 2.8 0
v 0.4 1.5 0
v 0.4 1.6 0
v 0.4 1.7 0
v 0.4 1.8 0
v 0.4 2.1 0
v 0.4 2.4 0
v 0.5 1.6 0
v 0.5 1.8 0
v -0.5 1.6 -0.1
v -0.5 1.8 -0.1
v -0.4 1.5 -0.1
v -0.4 1.6 -0.1
v -0.4 1.7 -0.1
v -0.4 1.8 -0.1
v -0.4 2.1 -0.1
v -0.4 2.4 -0.1
v -0.3 1.3 -0.1
v -0.3 1.4 -0.1
v -0.3 1.5 -0.1
v -0.3 2 -0.1
v -0.3 2.1 -0.1
v -0.3 2.2 -0.1
v -0.3 2.3 -0.1
v -0.3 2.4 -0.1
v -0.3 2.5 -0.1
v -0.3 2.8 -0.1
v -0.2 1.5 -0.1
v -0.2 1.6 -0.1
v -0.2 2 -0.1
v -0.2 2.1 -0.1
v -0.2 2.2 -0.1
v -0.2 2.3 -0.1
v -0.2 2.4 -0.1
v -0.2 2.5 -0.1
v -0.2 2.6 -0.1
v -0.2 2.7 -0.1
v -0.2 2.8 -0.1
v -0.1 1.8 -0.1
v -0.1 2 -0.1
v -0.1 2.1 -0.1
v -0.1 2.2 -0.1
v -0.1 2.3 -0.1
v -0.1 2.4 -0.1
v -0.1 2.5 -0.1
v -0.1 2.6 -0.1
v -0.1 2.7 -0.1
v -0.1 2.8 -0.1
v 0.1 1.8 -0.1
v 0.1 2 -0.1
v 0.1 2.1 -0.1
v 0.1 2.2 -0.1
v 0.1 2.3 -0.1
v 0.1 2.4 -0.1
v 0.1 2.5 -0.1
v 0.1 2.6 -0.1
v 0.1 2.7 -0.1
v 0.1 2.8 -0.1
v 0.2 1.5 -0.1
v 0.2 1.6 -0.1
v 0.2 2 -0.1
v 0.2 2.1 -0.1
v 0.2 2.2 -0.1
v 0.2 2.3 -0.1
v 0.2 2.4 -0.1
v 0.2 2.5 -0.1
v 0.2 2.6 -0.1
v 0.2 2.7 -0.1
v 0.2 2.8 -0.1
v 0.3 1.3 -0.1
v 0.3 1.4 -0.1
v 0.3 1.5 -0.1
v 0.3 2 -0.1
v 0.3 2.1 -0.1
v 0.3 2.2 -0.1
v 0.3 2.3 -0.1
v 0.3 2.4 -0.1
v 0.3 2.5 -0.1
v 0.3 2.8 -0.1
v 0.4 1.5 -0.1
v 0.4 1.6 -0.1
v 0.4 1.7 -0.1
v 0.4 1.8 -0.1
v 0.4 2.1 -0.1
v 0.4 2.4 -0.1
v 0.5 1.6 -0.1
v 0.5 1.8 -0.1
v -0.3 1.3 0
v 0.3 1.3 0
v -0.3 1.3 -0.1
v 0.3 1.3 -0.1
v -0.4 1.5 0
v -0.3 1.5 0
v 0.3 1.5 0
v 0.4 1.5 0
v -0.4 1.5 -0.1
v -0.3 1.5 -0.1
v 0.3 1.5 -0.1
v 0.4 1.5 -0.1
v -0.5 1.6 0
v -0.4 1.6 0
v 0.4 1.6 0
v 0.5 1.6 0
v -0.5 1.6 -0.1
v -0.4 1.6 -0.1
v 0.4 1.6 -0.1
v 0.5 1.6 -0.1
v -0.3 2 0
v -0.2 2 0
v -0.1 2 0
v 0.1 2 0
v 0.2 2 0
v 0.3 2 0
v -0.3 2 -0.1
v -0.2 2 -0.1
v -0.1 2 -0.1
v 0.1 2 -0.1
v 0.2 2 -0.1
v 0.3 2 -0.1
v -0.4 2.1 0
v -0.3 2.1 0
v 0.3 2.1 0
v 0.4 2.1 0
v -0.4 2.1 -0.1
v -0.3 2.1 -0.1
v 0.3 2.1 -0.1
v 0.4 2.1 -0.1
v -0.2 2.4 0
v -0.1 2.4 0
v 0.1 2.4 0
v 0.2 2.4 0
v -0.2 2.4 -0.1
v -0.1 2.4 -0.1
v 0.1 2.4 -0.1
v 0.2 2.4 -0.1
v -0.3 2.5 0
v -0.2 2.5 0
v 0.2 2.5 0
v 0.3 2.5 0
v -0.3 2.5 -0.1
v -0.2 2.5 -0.1
v 0.2 2.5 -0.1
v 0.3 2.5 -0.1
v -0.5 1.8 0
v -0.4 1.8 0
v -0.1 1.8 0
v 0.1 1.8 0
v 0.4 1.8 0
v 0.5 1.8 0
v -0.5 1.8 -0.1
v -0.4 1.8 -0.1
v -0.1 1.8 -0.1
v 0.1 1.8 -0.1
v 0.4 1.8 -0.1
v 0.5 1.8 -0.1
v -0.2 2.2 0
v -0.1 2.2 0
v 0.1 2.2 0
v 0.2 2.2 0
v -0.2 2.2 -0.1
v -0.1 2.2 -0.1
v 0.1 2.2 -0.1
v 0.2 2.2 -0.1
v -0.3 2.3 0
v -0.2 2.3 0
v 0.2 2.3 0
v 0.3 2.3 0
v -0.3 2.3 -0.1
v -0.2 2.3 -0.1
v 0.2 2.3 -0.1
v 0.3 2.3 -0.1
v -0.4 2.4 0
v -0.3 2.4 0
v 0.3 2.4 0
v 0.4 2.4 0
v -0.4 2.4 -0.1
v -0.3 2.4 -0.1
v 0.3 2.4 -0.1
v 0.4 2.4 -0.1
v -0.2 2.7 0
v -0.1 2.7 0
v 0.1 2.7 0
v 0.2 2.7 0
v -0.2 2.7 -0.1
v -0.1 2.7 -0.1
v 0.1 2.7 -0.1
v 0.2 2.7 -0.1
v -0.3 2.8 0
v -0.2 2.8 0
v -0.1 2.8 0
v 0.1 2.8 0
v 0.2 2.8 0
v 0.3 2.8 0
v -0.3 2.8 -0.1
v -0.2 2.8 -0.1
v -0.1 2.8 -0.1
v 0.1 2.8 -0.1
v 0.2 2.8 -0.1
v 0.3 2.8 -0.1

# faces
f 3/6/1 2/6/1 1/6/1
f 4/6/1 2/6/1 3/6/1
f 7/6/1 6/6/1 5/6/1
f 8/6/1 6/6/1 7/6/1
f 11/2/1 10/2/1 9/2/1
f 12/2/1 10/2/1 11/2/1
f 15/6/1 14/6/1 13/6/1
f 16/6/1 14/6/1 15/6/1
f 17/5/1 16/5/1 15/5/1
f 18/5/1 16/5/1 17/5/1
f 21/2/1 20/2/1 19/2/1
f 22/2/1 20/2/1 21/2/1
f 25/3/1 24/3/1 23/3/1
f 26/3/1 24/3/1 25/3/1
f 29/4/1 28/4/1 27/4/1
f 30/4/1 28/4/1 29/4/1
f 33/2/1 32/2/1 31/2/1
f 34/2/1 32/2/1 33/2/1
f 37/2/1 36/2/1 35/2/1
f 38/2/1 36/2/1 37/2/1
f 39/3/1 38/3/1 37/3/1
f 40/3/1 38/3/1 39/3/1
f 43/3/1 42/3/1 41/3/1
f 44/3/1 42/3/1 43/3/1
f 47/2/1 46/2/1 45/2/1
f 48/2/1 46/2/1 47/2/1
f 51/3/1 50/3/1 49/3/1
f 52/3/1 50/3/1 51/3/1
f 55/2/1 54/2/1 53/2/1
f 56/2/1 54/2/1 55/2/1
f 57/2/2 58/2/2 59/2/2
f 59/2/2 58/2/2 60/2/2
f 61/2/2 62/2/2 63/2/2
f 63/2/2 62/2/2 64/2/2
f 65/3/2 66/3/2 67/3/2
f 67/3/2 66/3/2 68/3/2
f 69/2/2 70/2/2 71/2/2
f 71/2/2 70/2/2 72/2/2
f 73/2/2 74/2/2 75/2/2
f 75/2/2 74/2/2 76/2/2
f 75/3/2 76/3/2 77/3/2
f 77/3/2 76/3/2 78/3/2
f 79/3/2 80/3/2 81/3/2
f 81/3/2 80/3/2 82/3/2
f 83/4/2 84/4/2 85/4/2
f 85/4/2 84/4/2 86/4/2
f 87/6/2 88/6/2 89/6/2
f 89/6/2 88/6/2 90/6/2
f 89/5/2 90/5/2 91/5/2
f 91/5/2 90/5/2 92/5/2
f 93/2/2 94/2/2 95/2/2
f 95/2/2 94/2/2 96/2/2
f 97/3/2 98/3/2 99/3/2
f 99/3/2 98/3/2 100/3/2
f 101/6/2 102/6/2 103/6/2
f 103/6/2 102/6/2 104/6/2
f 105/2/2 106/2/2 107/2/2
f 107/2/2 106/2/2 108/2/2
f 109/6/2 110/6/2 111/6/2
f 111/6/2 110/6/2 112/6/2
f 116/6/3 114/6/3 113/6/3
f 117/6/3 114/6/3 116/6/3
f 118/6/3 114/6/3 117/6/3
f 123/6/3 116/6/3 115/6/3
f 123/6/3 117/6/3 116/6/3
f 125/2/3 120/2/3 119/2/3
f 126/2/3 120/2/3 125/2/3
f 127/2/3 120/2/3 126/2/3
f 128/2/3 120/2/3 127/2/3
f 131/5/3 123/5/3 122/5/3
f 131/6/3 117/6/3 123/6/3
f 132/6/3 117/6/3 131/6/3
f 133/2/3 125/2/3 124/2/3
f 134/1/3 126/1/3 125/1/3
f 134/2/3 125/2/3 133/2/3
f 135/2/3 127/2/3 126/2/3
f 135/1/3 126/1/3 134/1/3
f 136/2/3 127/2/3 135/2/3
f 138/3/3 130/3/3 129/3/3
f 139/3/3 130/3/3 138/3/3
f 140/3/3 130/3/3 139/3/3
f 141/3/3 130/3/3 140/3/3
f 142/5/3 118/5/3 117/5/3
f 143/1/3 134/1/3 133/1/3
f 144/2/3 135/2/3 134/2/3
f 144/1/3 134/1/3 143/1/3
f 145/2/3 135/2/3 144/2/3
f 147/4/3 138/4/3 137/4/3
f 148/3/3 139/3/3 138/3/3
f 148/4/3 138/4/3 147/4/3
f 149/4/3 140/4/3 139/4/3
f 149/3/3 139/3/3 148/3/3
f 150/4/3 140/4/3 149/4/3
f 152/5/3 142/5/3 117/5/3
f 152/2/3 143/2/3 142/2/3
f 152/2/3 146/2/3 145/2/3
f 152/2/3 144/2/3 143/2/3
f 152/2/3 145/2/3 144/2/3
f 153/2/3 146/2/3 152/2/3
f 154/2/3 146/2/3 153/2/3
f 155/2/3 146/2/3 154/2/3
f 156/3/3 148/3/3 147/3/3
f 156/2/3 146/2/3 155/2/3
f 156/3/3 151/3/3 150/3/3
f 156/3/3 150/3/3 149/3/3
f 156/3/3 149/3/3 148/3/3
f 156/3/3 147/3/3 146/3/3
f 157/3/3 151/3/3 156/3/3
f 158/3/3 151/3/3 157/3/3
f 159/3/3 151/3/3 158/3/3
f 160/3/3 151/3/3 159/3/3
f 161/3/3 151/3/3 160/3/3
f 162/5/3 131/5/3 122/5/3
f 162/5/3 132/5/3 131/5/3
f 163/6/3 117/6/3 132/6/3
f 163/5/3 132/5/3 162/5/3
f 164/1/3 154/1/3 153/1/3
f 165/2/3 155/2/3 154/2/3
f 165/1/3 154/1/3 164/1/3
f 166/2/3 155/2/3 165/2/3
f 168/4/3 158/4/3 157/4/3
f 169/3/3 159/3/3 158/3/3
f 169/4/3 158/4/3 168/4/3
f 170/4/3 160/4/3 159/4/3
f 170/3/3 159/3/3 169/3/3
f 171/4/3 160/4/3 170/4/3
f 173/6/3 122/6/3 121/6/3
f 174/5/3 162/5/3 122/5/3
f 174/6/3 122/6/3 173/6/3
f 175/6/3 163/6/3 162/6/3
f 175/5/3 162/5/3 174/5/3
f 176/2/3 165/2/3 164/2/3
f 177/1/3 166/1/3 165/1/3
f 177/2/3 165/2/3 176/2/3
f 178/2/3 167/2/3 166/2/3
f 178/1/3 166/1/3 177/1/3
f 179/2/3 167/2/3 178/2/3
f 181/3/3 172/3/3 171/3/3
f 181/3/3 171/3/3 170/3/3
f 181/3/3 170/3/3 169/3/3
f 182/3/3 172/3/3 181/3/3
f 183/6/3 163/6/3 175/6/3
f 184/6/3 117/6/3 163/6/3
f 184/6/3 163/6/3 183/6/3
f 185/5/3 152/5/3 117/5/3
f 185/6/3 117/6/3 184/6/3
f 186/5/3 152/5/3 185/5/3
f 187/2/3 180/2/3 179/2/3
f 187/2/3 179/2/3 178/2/3
f 187/2/3 178/2/3 177/2/3
f 188/2/3 180/2/3 187/2/3
f 189/6/3 186/6/3 185/6/3
f 189/6/3 185/6/3 184/6/3
f 190/6/3 186/6/3 189/6/3
f 191/6/4 192/6/4 194/6/4
f 194/6/4 192/6/4 195/6/4
f 195/6/4 192/6/4 196/6/4
f 193/6/4 194/6/4 201/6/4
f 194/6/4 195/6/4 201/6/4
f 197/2/4 198/2/4 203/2/4
f 203/2/4 198/2/4 204/2/4
f 204/2/4 198/2/4 205/2/4
f 205/2/4 198/2/4 206/2/4
f 200/5/4 201/5/4 209/5/4
f 201/6/4 195/6/4 209/6/4
f 209/6/4 195/6/4 210/6/4
f 202/2/4 203/2/4 211/2/4
f 203/1/4 204/1/4 212/1/4
f 211/2/4 203/2/4 212/2/4
f 204/2/4 205/2/4 213/2/4
f 212/1/4 204/1/4 213/1/4
f 213/2/4 205/2/4 214/2/4
f 207/3/4 208/3/4 216/3/4
f 216/3/4 208/3/4 217/3/4
f 217/3/4 208/3/4 218/3/4
f 218/3/4 208/3/4 219/3/4
f 195/5/4 196/5/4 220/5/4
f 211/1/4 212/1/4 221/1/4
f 212/2/4 213/2/4 222/2/4
f 221/1/4 212/1/4 222/1/4
f 222/2/4 213/2/4 223/2/4
f 215/4/4 216/4/4 225/4/4
f 216/3/4 217/3/4 226/3/4
f 225/4/4 216/4/4 226/4/4
f 217/4/4 218/4/4 227/4/4
f 226/3/4 217/3/4 227/3/4
f 227/4/4 218/4/4 228/4/4
f 195/5/4 220/5/4 230/5/4
f 220/2/4 221/2/4 230/2/4
f 223/2/4 224/2/4 230/2/4
f 221/2/4 222/2/4 230/2/4
f 222/2/4 223/2/4 230/2/4
f 230/2/4 224/2/4 231/2/4
f 231/2/4 224/2/4 232/2/4
f 232/2/4 224/2/4 233/2/4
f 225/3/4 226/3/4 234/3/4
f 233/2/4 224/2/4 234/2/4
f 228/3/4 229/3/4 234/3/4
f 227/3/4 228/3/4 234/3/4
f 226/3/4 227/3/4 234/3/4
f 224/3/4 225/3/4 234/3/4
f 234/3/4 229/3/4 235/3/4
f 235/3/4 229/3/4 236/3/4
f 236/3/4 229/3/4 237/3/4
f 237/3/4 229/3/4 238/3/4
f 238/3/4 229/3/4 239/3/4
f 200/5/4 209/5/4 240/5/4
f 209/5/4 210/5/4 240/5/4
f 210/6/4 195/6/4 241/6/4
f 240/5/4 210/5/4 241/5/4
f 231/1/4 232/1/4 242/1/4
f 232/2/4 233/2/4 243/2/4
f 242/1/4 232/1/4 243/1/4
f 243/2/4 233/2/4 244/2/4
f 235/4/4 236/4/4 246/4/4
f 236/3/4 237/3/4 247/3/4
f 246/4/4 236/4/4 247/4/4
f 237/4/4 238/4/4 248/4/4
f 247/3/4 237/3/4 248/3/4
f 248/4/4 238/4/4 249/4/4
f 199/6/4 200/6/4 251/6/4
f 200/5/4 240/5/4 252/5/4
f 251/6/4 200/6/4 252/6/4
f 240/6/4 241/6/4 253/6/4
f 252/5/4 240/5/4 253/5/4
f 242/2/4 243/2/4 254/2/4
f 243/1/4 244/1/4 255/1/4
f 254/2/4 243/2/4 255/2/4
f 244/2/4 245/2/4 256/2/4
f 255/1/4 244/1/4 256/1/4
f 256/2/4 245/2/4 257/2/4
f 249/3/4 250/3/4 259/3/4
f 248/3/4 249/3/4 259/3/4
f 247/3/4 248/3/4 259/3/4
f 259/3/4 250/3/4 260/3/4
f 253/6/4 241/6/4 261/6/4
f 241/6/4 195/6/4 262/6/4
f 261/6/4 241/6/4 262/6/4
f 195/5/4 230/5/4 263/5/4
f 262/6/4 195/6/4 263/6/4
f 263/5/4 230/5/4 264/5/4
f 257/2/4 258/2/4 265/2/4
f 256/2/4 257/2/4 265/2/4
f 255/2/4 256/2/4 265/2/4
f 265/2/4 258/2/4 266/2/4
f 263/6/4 264/6/4 267/6/4
f 262/6/4 263/6/4 267/6/4
f 267/6/4 264/6/4 268/6/4
f 271/6/5 270/6/5 269/6/5
f 272/6/5 270/6/5 271/6/5
f 277/6/5 274/6/5 273/6/5
f 278/6/5 274/6/5 277/6/5
f 279/6/5 276/6/5 275/6/5
f 280/6/5 276/6/5 279/6/5
f 285/6/5 282/6/5 281/6/5
f 286/6/5 282/6/5 285/6/5
f 287/6/5 284/6/5 283/6/5
f 288/6/5 284/6/5 287/6/5
f 295/2/5 290/2/5 289/2/5
f 296/1/5 291/1/5 290/1/5
f 296/2/5 290/2/5 295/2/5
f 297/1/5 291/1/5 296/1/5
f 298/1/5 293/1/5 292/1/5
f 299/2/5 294/2/5 293/2/5
f 299/1/5 293/1/5 298/1/5
f 300/2/5 294/2/5 299/2/5
f 305/2/5 302/2/5 301/2/5
f 306/2/5 302/2/5 305/2/5
f 307/2/5 304/2/5 303/2/5
f 308/2/5 304/2/5 307/2/5
f 313/4/5 310/4/5 309/4/5
f 314/4/5 310/4/5 313/4/5
f 315/4/5 312/4/5 311/4/5
f 316/4/5 312/4/5 315/4/5
f 321/3/5 318/3/5 317/3/5
f 322/3/5 318/3/5 321/3/5
f 323/3/5 320/3/5 319/3/5
f 324/3/5 320/3/5 323/3/5
f 325/6/6 326/6/6 331/6/6
f 326/5/6 327/5/6 332/5/6
f 331/6/6 326/6/6 332/6/6
f 332/5/6 327/5/6 333/5/6
f 328/5/6 329/5/6 334/5/6
f 329/6/6 330/6/6 335/6/6
f 334/5/6 329/5/6 335/5/6
f 335/6/6 330/6/6 336/6/6
f 337/2/6 338/2/6 341/2/6
f 341/2/6 338/2/6 342/2/6
f 339/2/6 340/2/6 343/2/6
f 343/2/6 340/2/6 344/2/6
f 345/2/6 346/2/6 349/2/6
f 349/2/6 346/2/6 350/2/6
f 347/2/6 348/2/6 351/2/6
f 351/2/6 348/2/6 352/2/6
f 353/2/6 354/2/6 357/2/6
f 357/2/6 354/2/6 358/2/6
f 355/2/6 356/2/6 359/2/6
f 359/2/6 356/2/6 360/2/6
f 361/4/6 362/4/6 365/4/6
f 365/4/6 362/4/6 366/4/6
f 363/4/6 364/4/6 367/4/6
f 367/4/6 364/4/6 368/4/6
f 369/3/6 370/3/6 375/3/6
f 375/3/6 370/3/6 376/3/6
f 371/3/6 372/3/6 377/3/6
f 377/3/6 372/3/6 378/3/6
f 373/3/6 374/3/6 379/3/6
f 379/3/6 374/3/6 380/3/6
