# MagicaVoxel @ Ephtracy

# group
o 

# material
mtllib plastic_bag.mtl
usemtl palette

# normals
vn -1 0 0
vn 1 0 0
vn 0 0 1
vn 0 0 -1
vn 0 -1 0
vn 0 1 0

# texcoords
vt 0.00195313 0.5
vt 0.841797 0.5

# verts
v -0.5 0 0.2
v -0.5 0 -0.1
v -0.5 1.5 0.2
v -0.5 1.5 -0.1
v 0.3 1.2 0.2
v 0.3 1.2 -0.1
v 0.3 1.5 0.2
v 0.3 1.5 -0.1
v -0.3 1.2 0.2
v -0.3 1.2 -0.1
v -0.3 1.5 0.2
v -0.3 1.5 -0.1
v 0.5 0 0.2
v 0.5 0 -0.1
v 0.5 1.5 0.2
v 0.5 1.5 -0.1
v -0.5 0 0.2
v -0.5 1.5 0.2
v -0.4 0.8 0.2
v -0.4 1.1 0.2
v -0.3 0.9 0.2
v -0.3 1 0.2
v -0.3 1.2 0.2
v -0.3 1.5 0.2
v -0.2 0.8 0.2
v -0.2 0.9 0.2
v -0.2 1 0.2
v -0.2 1.1 0.2
v -0.1 0.8 0.2
v -0.1 0.9 0.2
v -0.1 1 0.2
v -0.1 1.1 0.2
v 0 0.8 0.2
v 0 0.9 0.2
v 0 1 0.2
v 0 1.1 0.2
v 0.1 0.8 0.2
v 0.1 0.9 0.2
v 0.1 1 0.2
v 0.2 0.8 0.2
v 0.2 0.9 0.2
v 0.2 1 0.2
v 0.3 0.8 0.2
v 0.3 0.9 0.2
v 0.3 1 0.2
v 0.3 1.1 0.2
v 0.3 1.2 0.2
v 0.3 1.5 0.2
v 0.4 0.8 0.2
v 0.4 1.1 0.2
v 0.5 0 0.2
v 0.5 1.5 0.2
v -0.5 0 -0.1
v -0.5 1.5 -0.1
v -0.4 0.8 -0.1
v -0.4 1.1 -0.1
v -0.3 0.9 -0.1
v -0.3 1 -0.1
v -0.3 1.2 -0.1
v -0.3 1.5 -0.1
v -0.2 0.8 -0.1
v -0.2 0.9 -0.1
v -0.2 1 -0.1
v -0.2 1.1 -0.1
v -0.1 0.8 -0.1
v -0.1 0.9 -0.1
v -0.1 1 -0.1
v -0.1 1.1 -0.1
v 0 0.8 -0.1
v 0 0.9 -0.1
v 0 1 -0.1
v 0 1.1 -0.1
v 0.1 0.8 -0.1
v 0.1 0.9 -0.1
v 0.1 1 -0.1
v 0.2 0.8 -0.1
v 0.2 0.9 -0.1
v 0.2 1 -0.1
v 0.3 0.8 -0.1
v 0.3 0.9 -0.1
v 0.3 1 -0.1
v 0.3 1.1 -0.1
v 0.3 1.2 -0.1
v 0.3 1.5 -0.1
v 0.4 0.8 -0.1
v 0.4 1.1 -0.1
v 0.5 0 -0.1
v 0.5 1.5 -0.1
v -0.5 0 0.2
v 0.5 0 0.2
v -0.5 0 -0.1
v 0.5 0 -0.1
v -0.3 1.2 0.2
v 0.3 1.2 0.2
v -0.3 1.2 -0.1
v 0.3 1.2 -0.1
v -0.5 1.5 0.2
v -0.3 1.5 0.2
v 0.3 1.5 0.2
v 0.5 1.5 0.2
v -0.5 1.5 -0.1
v -0.3 1.5 -0.1
v 0.3 1.5 -0.1
v 0.5 1.5 -0.1

# faces
f 3/1/1 2/1/1 1/1/1
f 4/1/1 2/1/1 3/1/1
f 7/1/1 6/1/1 5/1/1
f 8/1/1 6/1/1 7/1/1
f 9/1/2 10/1/2 11/1/2
f 11/1/2 10/1/2 12/1/2
f 13/1/2 14/1/2 15/1/2
f 15/1/2 14/1/2 16/1/2
f 19/1/3 18/1/3 17/1/3
f 20/1/3 18/1/3 19/1/3
f 21/2/3 20/2/3 19/2/3
f 22/2/3 20/2/3 21/2/3
f 23/1/3 18/1/3 20/1/3
f 24/1/3 18/1/3 23/1/3
f 25/1/3 19/1/3 17/1/3
f 25/2/3 21/2/3 19/2/3
f 26/1/3 22/1/3 21/1/3
f 26/2/3 21/2/3 25/2/3
f 27/2/3 20/2/3 22/2/3
f 27/1/3 22/1/3 26/1/3
f 28/1/3 23/1/3 20/1/3
f 28/2/3 20/2/3 27/2/3
f 29/1/3 26/1/3 25/1/3
f 29/1/3 25/1/3 17/1/3
f 30/2/3 27/2/3 26/2/3
f 30/1/3 26/1/3 29/1/3
f 31/1/3 28/1/3 27/1/3
f 31/2/3 27/2/3 30/2/3
f 32/1/3 23/1/3 28/1/3
f 32/1/3 28/1/3 31/1/3
f 33/2/3 31/2/3 30/2/3
f 33/1/3 29/1/3 17/1/3
f 33/2/3 32/2/3 31/2/3
f 33/2/3 30/2/3 29/2/3
f 34/2/3 32/2/3 33/2/3
f 35/2/3 32/2/3 34/2/3
f 36/1/3 23/1/3 32/1/3
f 36/2/3 32/2/3 35/2/3
f 37/1/3 33/1/3 17/1/3
f 37/1/3 34/1/3 33/1/3
f 38/2/3 35/2/3 34/2/3
f 38/1/3 34/1/3 37/1/3
f 39/1/3 36/1/3 35/1/3
f 39/2/3 35/2/3 38/2/3
f 40/1/3 37/1/3 17/1/3
f 40/2/3 38/2/3 37/2/3
f 41/1/3 39/1/3 38/1/3
f 41/2/3 38/2/3 40/2/3
f 42/1/3 36/1/3 39/1/3
f 42/1/3 39/1/3 41/1/3
f 43/1/3 41/1/3 40/1/3
f 43/1/3 40/1/3 17/1/3
f 44/2/3 42/2/3 41/2/3
f 44/1/3 41/1/3 43/1/3
f 45/1/3 36/1/3 42/1/3
f 45/2/3 42/2/3 44/2/3
f 46/1/3 23/1/3 36/1/3
f 46/1/3 36/1/3 45/1/3
f 47/1/3 23/1/3 46/1/3
f 49/2/3 44/2/3 43/2/3
f 49/2/3 45/2/3 44/2/3
f 49/1/3 43/1/3 17/1/3
f 49/2/3 46/2/3 45/2/3
f 50/1/3 48/1/3 47/1/3
f 50/2/3 46/2/3 49/2/3
f 50/1/3 47/1/3 46/1/3
f 51/1/3 49/1/3 17/1/3
f 51/1/3 50/1/3 49/1/3
f 52/1/3 48/1/3 50/1/3
f 52/1/3 50/1/3 51/1/3
f 53/1/4 54/1/4 55/1/4
f 55/1/4 54/1/4 56/1/4
f 55/2/4 56/2/4 57/2/4
f 57/2/4 56/2/4 58/2/4
f 56/1/4 54/1/4 59/1/4
f 59/1/4 54/1/4 60/1/4
f 53/1/4 55/1/4 61/1/4
f 55/2/4 57/2/4 61/2/4
f 57/1/4 58/1/4 62/1/4
f 61/2/4 57/2/4 62/2/4
f 58/2/4 56/2/4 63/2/4
f 62/1/4 58/1/4 63/1/4
f 56/1/4 59/1/4 64/1/4
f 63/2/4 56/2/4 64/2/4
f 61/1/4 62/1/4 65/1/4
f 53/1/4 61/1/4 65/1/4
f 62/2/4 63/2/4 66/2/4
f 65/1/4 62/1/4 66/1/4
f 63/1/4 64/1/4 67/1/4
f 66/2/4 63/2/4 67/2/4
f 64/1/4 59/1/4 68/1/4
f 67/1/4 64/1/4 68/1/4
f 66/2/4 67/2/4 69/2/4
f 53/1/4 65/1/4 69/1/4
f 67/2/4 68/2/4 69/2/4
f 65/2/4 66/2/4 69/2/4
f 69/2/4 68/2/4 70/2/4
f 70/2/4 68/2/4 71/2/4
f 68/1/4 59/1/4 72/1/4
f 71/2/4 68/2/4 72/2/4
f 53/1/4 69/1/4 73/1/4
f 69/1/4 70/1/4 73/1/4
f 70/2/4 71/2/4 74/2/4
f 73/1/4 70/1/4 74/1/4
f 71/1/4 72/1/4 75/1/4
f 74/2/4 71/2/4 75/2/4
f 53/1/4 73/1/4 76/1/4
f 73/2/4 74/2/4 76/2/4
f 74/1/4 75/1/4 77/1/4
f 76/2/4 74/2/4 77/2/4
f 75/1/4 72/1/4 78/1/4
f 77/1/4 75/1/4 78/1/4
f 76/1/4 77/1/4 79/1/4
f 53/1/4 76/1/4 79/1/4
f 77/2/4 78/2/4 80/2/4
f 79/1/4 77/1/4 80/1/4
f 78/1/4 72/1/4 81/1/4
f 80/2/4 78/2/4 81/2/4
f 72/1/4 59/1/4 82/1/4
f 81/1/4 72/1/4 82/1/4
f 82/1/4 59/1/4 83/1/4
f 79/2/4 80/2/4 85/2/4
f 80/2/4 81/2/4 85/2/4
f 53/1/4 79/1/4 85/1/4
f 81/2/4 82/2/4 85/2/4
f 83/1/4 84/1/4 86/1/4
f 85/2/4 82/2/4 86/2/4
f 82/1/4 83/1/4 86/1/4
f 53/1/4 85/1/4 87/1/4
f 85/1/4 86/1/4 87/1/4
f 86/1/4 84/1/4 88/1/4
f 87/1/4 86/1/4 88/1/4
f 91/1/5 90/1/5 89/1/5
f 92/1/5 90/1/5 91/1/5
f 93/1/6 94/1/6 95/1/6
f 95/1/6 94/1/6 96/1/6
f 97/1/6 98/1/6 101/1/6
f 101/1/6 98/1/6 102/1/6
f 99/1/6 100/1/6 103/1/6
f 103/1/6 100/1/6 104/1/6
