# MagicaVoxel @ Ephtracy

# group
o 

# material
mtllib tanktop_grey.mtl
usemtl palette

# normals
vn -1 0 0
vn 1 0 0
vn 0 0 1
vn 0 0 -1
vn 0 -1 0
vn 0 1 0

# texcoords
vt 0.955078 0.5
vt 0.974609 0.5

# verts
v -1.5 0 0.2
v -1.5 0 -0.1
v -1.5 3.7 0.2
v -1.5 3.7 -0.1
v -1.4 3.7 0.2
v -1.4 3.7 -0.1
v -1.4 4.1 0.2
v -1.4 4.1 -0.1
v -1.3 4.1 0.2
v -1.3 4.1 -0.1
v -1.3 4.4 0.2
v -1.3 4.4 -0.1
v -1.2 4.4 0.2
v -1.2 4.4 -0.1
v -1.2 5 0.2
v -1.2 5 -0.1
v 0.3 3.3 0.2
v 0.3 3.3 -0.1
v 0.3 3.4 0.2
v 0.3 3.4 -0.1
v 0.4 3.4 0.2
v 0.4 3.4 -0.1
v 0.4 3.5 0.2
v 0.4 3.5 -0.1
v 0.5 3.5 0.2
v 0.5 3.5 -0.1
v 0.5 3.6 0.2
v 0.5 3.6 -0.1
v 0.6 3.6 0.2
v 0.6 3.6 -0.1
v 0.6 3.7 0.2
v 0.6 3.7 -0.1
v 0.7 3.7 0.2
v 0.7 3.7 -0.1
v 0.7 3.8 0.2
v 0.7 3.8 -0.1
v 0.8 3.8 0.2
v 0.8 3.8 -0.1
v 0.8 5 0.2
v 0.8 5 -0.1
v -0.8 3.8 0.2
v -0.8 3.8 -0.1
v -0.8 5 0.2
v -0.8 5 -0.1
v -0.7 3.7 0.2
v -0.7 3.7 -0.1
v -0.7 3.8 0.2
v -0.7 3.8 -0.1
v -0.6 3.6 0.2
v -0.6 3.6 -0.1
v -0.6 3.7 0.2
v -0.6 3.7 -0.1
v -0.5 3.5 0.2
v -0.5 3.5 -0.1
v -0.5 3.6 0.2
v -0.5 3.6 -0.1
v -0.4 3.4 0.2
v -0.4 3.4 -0.1
v -0.4 3.5 0.2
v -0.4 3.5 -0.1
v -0.3 3.3 0.2
v -0.3 3.3 -0.1
v -0.3 3.4 0.2
v -0.3 3.4 -0.1
v 1.2 4.4 0.2
v 1.2 4.4 -0.1
v 1.2 5 0.2
v 1.2 5 -0.1
v 1.3 4.1 0.2
v 1.3 4.1 -0.1
v 1.3 4.4 0.2
v 1.3 4.4 -0.1
v 1.4 3.7 0.2
v 1.4 3.7 -0.1
v 1.4 4.1 0.2
v 1.4 4.1 -0.1
v 1.5 0 0.2
v 1.5 0 -0.1
v 1.5 3.7 0.2
v 1.5 3.7 -0.1
v -1.5 0 0.2
v -1.5 3.7 0.2
v -1.4 3.7 0.2
v -1.4 4.1 0.2
v -1.3 4.1 0.2
v -1.3 4.4 0.2
v -1.2 4.4 0.2
v -1.2 5 0.2
v -1.1 2.2 0.2
v -1.1 2.3 0.2
v -0.8 3.8 0.2
v -0.8 5 0.2
v -0.7 1.9 0.2
v -0.7 2 0.2
v -0.7 3.7 0.2
v -0.7 3.8 0.2
v -0.6 2 0.2
v -0.6 2.2 0.2
v -0.6 3.6 0.2
v -0.6 3.7 0.2
v -0.5 2 0.2
v -0.5 2.2 0.2
v -0.5 3.5 0.2
v -0.5 3.6 0.2
v -0.4 3.4 0.2
v -0.4 3.5 0.2
v -0.3 2.2 0.2
v -0.3 2.3 0.2
v -0.3 3.3 0.2
v -0.3 3.4 0.2
v 0.3 1.2 0.2
v 0.3 1.3 0.2
v 0.3 3.3 0.2
v 0.3 3.4 0.2
v 0.4 3.4 0.2
v 0.4 3.5 0.2
v 0.5 3.5 0.2
v 0.5 3.6 0.2
v 0.6 3.6 0.2
v 0.6 3.7 0.2
v 0.7 1.9 0.2
v 0.7 2 0.2
v 0.7 3.7 0.2
v 0.7 3.8 0.2
v 0.8 3.8 0.2
v 0.8 5 0.2
v 1.2 1.2 0.2
v 1.2 1.3 0.2
v 1.2 4.4 0.2
v 1.2 5 0.2
v 1.3 4.1 0.2
v 1.3 4.4 0.2
v 1.4 3.7 0.2
v 1.4 4.1 0.2
v 1.5 0 0.2
v 1.5 3.7 0.2
v -1.5 0 -0.1
v -1.5 3.7 -0.1
v -1.4 3.7 -0.1
v -1.4 4.1 -0.1
v -1.3 4.1 -0.1
v -1.3 4.4 -0.1
v -1.2 4.4 -0.1
v -1.2 5 -0.1
v -1.1 2.2 -0.1
v -1.1 2.3 -0.1
v -0.8 3.8 -0.1
v -0.8 5 -0.1
v -0.7 1.9 -0.1
v -0.7 2 -0.1
v -0.7 3.7 -0.1
v -0.7 3.8 -0.1
v -0.6 2 -0.1
v -0.6 2.2 -0.1
v -0.6 3.6 -0.1
v -0.6 3.7 -0.1
v -0.5 2 -0.1
v -0.5 2.2 -0.1
v -0.5 3.5 -0.1
v -0.5 3.6 -0.1
v -0.4 3.4 -0.1
v -0.4 3.5 -0.1
v -0.3 2.2 -0.1
v -0.3 2.3 -0.1
v -0.3 3.3 -0.1
v -0.3 3.4 -0.1
v 0.3 1.2 -0.1
v 0.3 1.3 -0.1
v 0.3 3.3 -0.1
v 0.3 3.4 -0.1
v 0.4 3.4 -0.1
v 0.4 3.5 -0.1
v 0.5 3.5 -0.1
v 0.5 3.6 -0.1
v 0.6 3.6 -0.1
v 0.6 3.7 -0.1
v 0.7 1.9 -0.1
v 0.7 2 -0.1
v 0.7 3.7 -0.1
v 0.7 3.8 -0.1
v 0.8 3.8 -0.1
v 0.8 5 -0.1
v 1.2 1.2 -0.1
v 1.2 1.3 -0.1
v 1.2 4.4 -0.1
v 1.2 5 -0.1
v 1.3 4.1 -0.1
v 1.3 4.4 -0.1
v 1.4 3.7 -0.1
v 1.4 4.1 -0.1
v 1.5 0 -0.1
v 1.5 3.7 -0.1
v -1.5 0 0.2
v 1.5 0 0.2
v -1.5 0 -0.1
v 1.5 0 -0.1
v -0.3 3.3 0.2
v 0.3 3.3 0.2
v -0.3 3.3 -0.1
v 0.3 3.3 -0.1
v -0.4 3.4 0.2
v -0.3 3.4 0.2
v 0.3 3.4 0.2
v 0.4 3.4 0.2
v -0.4 3.4 -0.1
v -0.3 3.4 -0.1
v 0.3 3.4 -0.1
v 0.4 3.4 -0.1
v -0.5 3.5 0.2
v -0.4 3.5 0.2
v 0.4 3.5 0.2
v 0.5 3.5 0.2
v -0.5 3.5 -0.1
v -0.4 3.5 -0.1
v 0.4 3.5 -0.1
v 0.5 3.5 -0.1
v -0.6 3.6 0.2
v -0.5 3.6 0.2
v 0.5 3.6 0.2
v 0.6 3.6 0.2
v -0.6 3.6 -0.1
v -0.5 3.6 -0.1
v 0.5 3.6 -0.1
v 0.6 3.6 -0.1
v -1.5 3.7 0.2
v -1.4 3.7 0.2
v -0.7 3.7 0.2
v -0.6 3.7 0.2
v 0.6 3.7 0.2
v 0.7 3.7 0.2
v 1.4 3.7 0.2
v 1.5 3.7 0.2
v -1.5 3.7 -0.1
v -1.4 3.7 -0.1
v -0.7 3.7 -0.1
v -0.6 3.7 -0.1
v 0.6 3.7 -0.1
v 0.7 3.7 -0.1
v 1.4 3.7 -0.1
v 1.5 3.7 -0.1
v -0.8 3.8 0.2
v -0.7 3.8 0.2
v 0.7 3.8 0.2
v 0.8 3.8 0.2
v -0.8 3.8 -0.1
v -0.7 3.8 -0.1
v 0.7 3.8 -0.1
v 0.8 3.8 -0.1
v -1.4 4.1 0.2
v -1.3 4.1 0.2
v 1.3 4.1 0.2
v 1.4 4.1 0.2
v -1.4 4.1 -0.1
v -1.3 4.1 -0.1
v 1.3 4.1 -0.1
v 1.4 4.1 -0.1
v -1.3 4.4 0.2
v -1.2 4.4 0.2
v 1.2 4.4 0.2
v 1.3 4.4 0.2
v -1.3 4.4 -0.1
v -1.2 4.4 -0.1
v 1.2 4.4 -0.1
v 1.3 4.4 -0.1
v -1.2 5 0.2
v -0.8 5 0.2
v 0.8 5 0.2
v 1.2 5 0.2
v -1.2 5 -0.1
v -0.8 5 -0.1
v 0.8 5 -0.1
v 1.2 5 -0.1

# faces
f 3/2/1 2/2/1 1/2/1
f 4/2/1 2/2/1 3/2/1
f 7/2/1 6/2/1 5/2/1
f 8/2/1 6/2/1 7/2/1
f 11/2/1 10/2/1 9/2/1
f 12/2/1 10/2/1 11/2/1
f 15/2/1 14/2/1 13/2/1
f 16/2/1 14/2/1 15/2/1
f 19/2/1 18/2/1 17/2/1
f 20/2/1 18/2/1 19/2/1
f 23/2/1 22/2/1 21/2/1
f 24/2/1 22/2/1 23/2/1
f 27/2/1 26/2/1 25/2/1
f 28/2/1 26/2/1 27/2/1
f 31/2/1 30/2/1 29/2/1
f 32/2/1 30/2/1 31/2/1
f 35/2/1 34/2/1 33/2/1
f 36/2/1 34/2/1 35/2/1
f 39/2/1 38/2/1 37/2/1
f 40/2/1 38/2/1 39/2/1
f 41/2/2 42/2/2 43/2/2
f 43/2/2 42/2/2 44/2/2
f 45/2/2 46/2/2 47/2/2
f 47/2/2 46/2/2 48/2/2
f 49/2/2 50/2/2 51/2/2
f 51/2/2 50/2/2 52/2/2
f 53/2/2 54/2/2 55/2/2
f 55/2/2 54/2/2 56/2/2
f 57/2/2 58/2/2 59/2/2
f 59/2/2 58/2/2 60/2/2
f 61/2/2 62/2/2 63/2/2
f 63/2/2 62/2/2 64/2/2
f 65/2/2 66/2/2 67/2/2
f 67/2/2 66/2/2 68/2/2
f 69/2/2 70/2/2 71/2/2
f 71/2/2 70/2/2 72/2/2
f 73/2/2 74/2/2 75/2/2
f 75/2/2 74/2/2 76/2/2
f 77/2/2 78/2/2 79/2/2
f 79/2/2 78/2/2 80/2/2
f 83/2/3 82/2/3 81/2/3
f 85/2/3 84/2/3 83/2/3
f 87/2/3 86/2/3 85/2/3
f 89/2/3 83/2/3 81/2/3
f 89/2/3 88/2/3 87/2/3
f 89/2/3 87/2/3 85/2/3
f 89/2/3 85/2/3 83/2/3
f 90/2/3 88/2/3 89/2/3
f 91/2/3 88/2/3 90/2/3
f 92/2/3 88/2/3 91/2/3
f 93/2/3 89/2/3 81/2/3
f 94/2/3 89/2/3 93/2/3
f 95/2/3 91/2/3 90/2/3
f 96/2/3 91/2/3 95/2/3
f 97/2/3 89/2/3 94/2/3
f 97/1/3 94/1/3 93/1/3
f 98/1/3 90/1/3 89/1/3
f 98/2/3 89/2/3 97/2/3
f 99/2/3 95/2/3 90/2/3
f 100/2/3 95/2/3 99/2/3
f 101/1/3 97/1/3 93/1/3
f 101/1/3 98/1/3 97/1/3
f 102/1/3 90/1/3 98/1/3
f 102/1/3 98/1/3 101/1/3
f 103/2/3 99/2/3 90/2/3
f 104/2/3 99/2/3 103/2/3
f 105/2/3 103/2/3 90/2/3
f 106/2/3 103/2/3 105/2/3
f 107/1/3 90/1/3 102/1/3
f 107/2/3 102/2/3 101/2/3
f 108/2/3 105/2/3 90/2/3
f 108/1/3 90/1/3 107/1/3
f 109/2/3 105/2/3 108/2/3
f 110/2/3 105/2/3 109/2/3
f 111/2/3 93/2/3 81/2/3
f 112/2/3 93/2/3 111/2/3
f 113/2/3 108/2/3 107/2/3
f 113/2/3 109/2/3 108/2/3
f 115/2/3 114/2/3 113/2/3
f 117/2/3 116/2/3 115/2/3
f 119/2/3 118/2/3 117/2/3
f 121/1/3 101/1/3 93/1/3
f 121/2/3 93/2/3 112/2/3
f 122/2/3 115/2/3 113/2/3
f 122/1/3 101/1/3 121/1/3
f 122/2/3 120/2/3 119/2/3
f 122/2/3 117/2/3 115/2/3
f 122/2/3 107/2/3 101/2/3
f 122/2/3 113/2/3 107/2/3
f 122/2/3 119/2/3 117/2/3
f 123/2/3 120/2/3 122/2/3
f 125/2/3 123/2/3 122/2/3
f 125/2/3 124/2/3 123/2/3
f 125/2/3 122/2/3 121/2/3
f 127/1/3 112/1/3 111/1/3
f 127/2/3 111/2/3 81/2/3
f 128/2/3 126/2/3 125/2/3
f 128/1/3 112/1/3 127/1/3
f 128/2/3 125/2/3 121/2/3
f 128/2/3 121/2/3 112/2/3
f 129/2/3 126/2/3 128/2/3
f 130/2/3 126/2/3 129/2/3
f 131/2/3 128/2/3 127/2/3
f 131/2/3 129/2/3 128/2/3
f 132/2/3 129/2/3 131/2/3
f 133/2/3 131/2/3 127/2/3
f 134/2/3 131/2/3 133/2/3
f 135/2/3 127/2/3 81/2/3
f 135/2/3 133/2/3 127/2/3
f 136/2/3 133/2/3 135/2/3
f 137/2/4 138/2/4 139/2/4
f 139/2/4 140/2/4 141/2/4
f 141/2/4 142/2/4 143/2/4
f 137/2/4 139/2/4 145/2/4
f 143/2/4 144/2/4 145/2/4
f 141/2/4 143/2/4 145/2/4
f 139/2/4 141/2/4 145/2/4
f 145/2/4 144/2/4 146/2/4
f 146/2/4 144/2/4 147/2/4
f 147/2/4 144/2/4 148/2/4
f 137/2/4 145/2/4 149/2/4
f 149/2/4 145/2/4 150/2/4
f 146/2/4 147/2/4 151/2/4
f 151/2/4 147/2/4 152/2/4
f 150/2/4 145/2/4 153/2/4
f 149/1/4 150/1/4 153/1/4
f 145/1/4 146/1/4 154/1/4
f 153/2/4 145/2/4 154/2/4
f 146/2/4 151/2/4 155/2/4
f 155/2/4 151/2/4 156/2/4
f 149/1/4 153/1/4 157/1/4
f 153/1/4 154/1/4 157/1/4
f 154/1/4 146/1/4 158/1/4
f 157/1/4 154/1/4 158/1/4
f 146/2/4 155/2/4 159/2/4
f 159/2/4 155/2/4 160/2/4
f 146/2/4 159/2/4 161/2/4
f 161/2/4 159/2/4 162/2/4
f 158/1/4 146/1/4 163/1/4
f 157/2/4 158/2/4 163/2/4
f 146/2/4 161/2/4 164/2/4
f 163/1/4 146/1/4 164/1/4
f 164/2/4 161/2/4 165/2/4
f 165/2/4 161/2/4 166/2/4
f 137/2/4 149/2/4 167/2/4
f 167/2/4 149/2/4 168/2/4
f 163/2/4 164/2/4 169/2/4
f 164/2/4 165/2/4 169/2/4
f 169/2/4 170/2/4 171/2/4
f 171/2/4 172/2/4 173/2/4
f 173/2/4 174/2/4 175/2/4
f 149/1/4 157/1/4 177/1/4
f 168/2/4 149/2/4 177/2/4
f 169/2/4 171/2/4 178/2/4
f 177/1/4 157/1/4 178/1/4
f 175/2/4 176/2/4 178/2/4
f 171/2/4 173/2/4 178/2/4
f 157/2/4 163/2/4 178/2/4
f 163/2/4 169/2/4 178/2/4
f 173/2/4 175/2/4 178/2/4
f 178/2/4 176/2/4 179/2/4
f 178/2/4 179/2/4 181/2/4
f 179/2/4 180/2/4 181/2/4
f 177/2/4 178/2/4 181/2/4
f 167/1/4 168/1/4 183/1/4
f 137/2/4 167/2/4 183/2/4
f 181/2/4 182/2/4 184/2/4
f 183/1/4 168/1/4 184/1/4
f 177/2/4 181/2/4 184/2/4
f 168/2/4 177/2/4 184/2/4
f 184/2/4 182/2/4 185/2/4
f 185/2/4 182/2/4 186/2/4
f 183/2/4 184/2/4 187/2/4
f 184/2/4 185/2/4 187/2/4
f 187/2/4 185/2/4 188/2/4
f 183/2/4 187/2/4 189/2/4
f 189/2/4 187/2/4 190/2/4
f 137/2/4 183/2/4 191/2/4
f 183/2/4 189/2/4 191/2/4
f 191/2/4 189/2/4 192/2/4
f 195/2/5 194/2/5 193/2/5
f 196/2/5 194/2/5 195/2/5
f 197/2/6 198/2/6 199/2/6
f 199/2/6 198/2/6 200/2/6
f 201/2/6 202/2/6 205/2/6
f 205/2/6 202/2/6 206/2/6
f 203/2/6 204/2/6 207/2/6
f 207/2/6 204/2/6 208/2/6
f 209/2/6 210/2/6 213/2/6
f 213/2/6 210/2/6 214/2/6
f 211/2/6 212/2/6 215/2/6
f 215/2/6 212/2/6 216/2/6
f 217/2/6 218/2/6 221/2/6
f 221/2/6 218/2/6 222/2/6
f 219/2/6 220/2/6 223/2/6
f 223/2/6 220/2/6 224/2/6
f 225/2/6 226/2/6 233/2/6
f 233/2/6 226/2/6 234/2/6
f 227/2/6 228/2/6 235/2/6
f 235/2/6 228/2/6 236/2/6
f 229/2/6 230/2/6 237/2/6
f 237/2/6 230/2/6 238/2/6
f 231/2/6 232/2/6 239/2/6
f 239/2/6 232/2/6 240/2/6
f 241/2/6 242/2/6 245/2/6
f 245/2/6 242/2/6 246/2/6
f 243/2/6 244/2/6 247/2/6
f 247/2/6 244/2/6 248/2/6
f 249/2/6 250/2/6 253/2/6
f 253/2/6 250/2/6 254/2/6
f 251/2/6 252/2/6 255/2/6
f 255/2/6 252/2/6 256/2/6
f 257/2/6 258/2/6 261/2/6
f 261/2/6 258/2/6 262/2/6
f 259/2/6 260/2/6 263/2/6
f 263/2/6 260/2/6 264/2/6
f 265/2/6 266/2/6 269/2/6
f 269/2/6 266/2/6 270/2/6
f 267/2/6 268/2/6 271/2/6
f 271/2/6 268/2/6 272/2/6
