# MagicaVoxel @ Ephtracy

# group
o 

# material
mtllib tshirt_white.mtl
usemtl palette

# normals
vn -1 0 0
vn 1 0 0
vn 0 0 1
vn 0 0 -1
vn 0 -1 0
vn 0 1 0

# texcoords
vt 0.841797 0.5
vt 0.958984 0.5
vt 0.966797 0.5

# verts
v -2 2.6 0.2
v -2 2.6 -0.1
v -2 2.8 0.2
v -2 2.8 -0.1
v -1.9 2.5 0.2
v -1.9 2.5 -0.1
v -1.9 2.6 0.2
v -1.9 2.6 -0.1
v -1.9 2.8 0.2
v -1.9 2.8 -0.1
v -1.9 3 0.2
v -1.9 3 -0.1
v -1.8 2.4 0.2
v -1.8 2.4 -0.1
v -1.8 2.5 0.2
v -1.8 2.5 -0.1
v -1.8 3 0.2
v -1.8 3 -0.1
v -1.8 3.2 0.2
v -1.8 3.2 -0.1
v -1.7 2.3 0.2
v -1.7 2.3 -0.1
v -1.7 2.4 0.2
v -1.7 2.4 -0.1
v -1.7 3.2 0.2
v -1.7 3.2 -0.1
v -1.7 3.4 0.2
v -1.7 3.4 -0.1
v -1.6 2.2 0.2
v -1.6 2.2 -0.1
v -1.6 2.3 0.2
v -1.6 2.3 -0.1
v -1.6 3.4 0.2
v -1.6 3.4 -0.1
v -1.6 3.6 0.2
v -1.6 3.6 -0.1
v -1.5 2.1 0.2
v -1.5 2.1 -0.1
v -1.5 2.2 0.2
v -1.5 2.2 -0.1
v -1.5 3.6 0.2
v -1.5 3.6 -0.1
v -1.5 3.8 0.2
v -1.5 3.8 -0.1
v -1.4 2 0.2
v -1.4 2 -0.1
v -1.4 2.1 0.2
v -1.4 2.1 -0.1
v -1.4 3.8 0.2
v -1.4 3.8 -0.1
v -1.4 4 0.2
v -1.4 4 -0.1
v -0.9 0 0.2
v -0.9 0 -0.1
v -0.9 2.4 0.2
v -0.9 2.4 -0.1
v 0.5 3.9 0.2
v 0.5 3.9 -0.1
v 0.5 4 0.2
v 0.5 4 -0.1
v 1 2.3 0.2
v 1 2.3 -0.1
v 1 2.4 0.2
v 1 2.4 -0.1
v 1.1 2.2 0.2
v 1.1 2.2 -0.1
v 1.1 2.3 0.2
v 1.1 2.3 -0.1
v 1.2 2.1 0.2
v 1.2 2.1 -0.1
v 1.2 2.2 0.2
v 1.2 2.2 -0.1
v 1.3 2 0.2
v 1.3 2 -0.1
v 1.3 2.1 0.2
v 1.3 2.1 -0.1
v -1.3 2 0.2
v -1.3 2 -0.1
v -1.3 2.1 0.2
v -1.3 2.1 -0.1
v -1.2 2.1 0.2
v -1.2 2.1 -0.1
v -1.2 2.2 0.2
v -1.2 2.2 -0.1
v -1.1 2.2 0.2
v -1.1 2.2 -0.1
v -1.1 2.3 0.2
v -1.1 2.3 -0.1
v -1 2.3 0.2
v -1 2.3 -0.1
v -1 2.4 0.2
v -1 2.4 -0.1
v -0.5 3.9 0.2
v -0.5 3.9 -0.1
v -0.5 4 0.2
v -0.5 4 -0.1
v 0.9 0 0.2
v 0.9 0 -0.1
v 0.9 2.4 0.2
v 0.9 2.4 -0.1
v 1.4 2 0.2
v 1.4 2 -0.1
v 1.4 2.1 0.2
v 1.4 2.1 -0.1
v 1.4 3.8 0.2
v 1.4 3.8 -0.1
v 1.4 4 0.2
v 1.4 4 -0.1
v 1.5 2.1 0.2
v 1.5 2.1 -0.1
v 1.5 2.2 0.2
v 1.5 2.2 -0.1
v 1.5 3.6 0.2
v 1.5 3.6 -0.1
v 1.5 3.8 0.2
v 1.5 3.8 -0.1
v 1.6 2.2 0.2
v 1.6 2.2 -0.1
v 1.6 2.3 0.2
v 1.6 2.3 -0.1
v 1.6 3.4 0.2
v 1.6 3.4 -0.1
v 1.6 3.6 0.2
v 1.6 3.6 -0.1
v 1.7 2.3 0.2
v 1.7 2.3 -0.1
v 1.7 2.4 0.2
v 1.7 2.4 -0.1
v 1.7 3.2 0.2
v 1.7 3.2 -0.1
v 1.7 3.4 0.2
v 1.7 3.4 -0.1
v 1.8 2.4 0.2
v 1.8 2.4 -0.1
v 1.8 2.5 0.2
v 1.8 2.5 -0.1
v 1.8 3 0.2
v 1.8 3 -0.1
v 1.8 3.2 0.2
v 1.8 3.2 -0.1
v 1.9 2.5 0.2
v 1.9 2.5 -0.1
v 1.9 2.6 0.2
v 1.9 2.6 -0.1
v 1.9 2.8 0.2
v 1.9 2.8 -0.1
v 1.9 3 0.2
v 1.9 3 -0.1
v 2 2.6 0.2
v 2 2.6 -0.1
v 2 2.8 0.2
v 2 2.8 -0.1
v -2 2.6 0.2
v -2 2.8 0.2
v -1.9 2.5 0.2
v -1.9 2.6 0.2
v -1.9 2.7 0.2
v -1.9 2.8 0.2
v -1.9 3 0.2
v -1.8 2.4 0.2
v -1.8 2.5 0.2
v -1.8 2.6 0.2
v -1.8 2.7 0.2
v -1.8 3 0.2
v -1.8 3.2 0.2
v -1.7 2.3 0.2
v -1.7 2.4 0.2
v -1.7 2.5 0.2
v -1.7 2.6 0.2
v -1.7 3.2 0.2
v -1.7 3.4 0.2
v -1.6 2.2 0.2
v -1.6 2.3 0.2
v -1.6 2.4 0.2
v -1.6 2.5 0.2
v -1.6 3.4 0.2
v -1.6 3.6 0.2
v -1.5 2.1 0.2
v -1.5 2.2 0.2
v -1.5 2.3 0.2
v -1.5 2.4 0.2
v -1.5 3.6 0.2
v -1.5 3.8 0.2
v -1.4 2 0.2
v -1.4 2.1 0.2
v -1.4 2.2 0.2
v -1.4 2.3 0.2
v -1.4 3.8 0.2
v -1.4 4 0.2
v -1.3 2 0.2
v -1.3 2.1 0.2
v -1.2 2.1 0.2
v -1.2 2.2 0.2
v -1.1 2.2 0.2
v -1.1 2.3 0.2
v -1 2.3 0.2
v -1 2.4 0.2
v -0.9 0 0.2
v -0.9 2.4 0.2
v -0.7 2.3 0.2
v -0.7 2.8 0.2
v -0.7 3.9 0.2
v -0.7 4 0.2
v -0.6 2.1 0.2
v -0.6 2.3 0.2
v -0.6 2.8 0.2
v -0.6 3 0.2
v -0.6 3.8 0.2
v -0.6 3.9 0.2
v -0.5 2 0.2
v -0.5 2.1 0.2
v -0.5 2.3 0.2
v -0.5 2.8 0.2
v -0.5 3 0.2
v -0.5 3.1 0.2
v -0.5 3.9 0.2
v -0.5 4 0.2
v -0.4 2.2 0.2
v -0.4 2.3 0.2
v -0.4 2.7 0.2
v -0.4 2.8 0.2
v -0.3 1.9 0.2
v -0.3 2 0.2
v -0.3 2.1 0.2
v -0.3 2.2 0.2
v -0.3 2.6 0.2
v -0.3 2.7 0.2
v -0.3 2.9 0.2
v -0.3 3 0.2
v -0.3 3.1 0.2
v -0.3 3.2 0.2
v -0.2 2.5 0.2
v -0.2 2.6 0.2
v -0.2 2.8 0.2
v -0.2 2.9 0.2
v -0.0999999 2.4 0.2
v -0.0999999 2.5 0.2
v -0.0999999 2.7 0.2
v -0.0999999 2.8 0.2
v 2.38419e-07 2.3 0.2
v 2.38419e-07 2.4 0.2
v 2.38419e-07 2.6 0.2
v 2.38419e-07 2.7 0.2
v 0.1 2.2 0.2
v 0.1 2.3 0.2
v 0.1 2.5 0.2
v 0.1 2.6 0.2
v 0.2 1.9 0.2
v 0.2 2 0.2
v 0.2 2.1 0.2
v 0.2 2.2 0.2
v 0.2 2.4 0.2
v 0.2 2.5 0.2
v 0.2 2.9 0.2
v 0.2 3 0.2
v 0.2 3.1 0.2
v 0.2 3.2 0.2
v 0.3 2.3 0.2
v 0.3 2.4 0.2
v 0.3 2.8 0.2
v 0.3 2.9 0.2
v 0.4 2 0.2
v 0.4 2.1 0.2
v 0.4 2.3 0.2
v 0.4 2.8 0.2
v 0.4 3 0.2
v 0.4 3.1 0.2
v 0.5 2.1 0.2
v 0.5 2.3 0.2
v 0.5 2.8 0.2
v 0.5 3 0.2
v 0.5 3.9 0.2
v 0.5 4 0.2
v 0.6 2.3 0.2
v 0.6 2.8 0.2
v 0.6 3.8 0.2
v 0.6 3.9 0.2
v 0.7 3.9 0.2
v 0.7 4 0.2
v 0.9 0 0.2
v 0.9 2.4 0.2
v 1 2.3 0.2
v 1 2.4 0.2
v 1.1 2.2 0.2
v 1.1 2.3 0.2
v 1.2 2.1 0.2
v 1.2 2.2 0.2
v 1.3 2 0.2
v 1.3 2.1 0.2
v 1.4 2 0.2
v 1.4 2.1 0.2
v 1.4 2.2 0.2
v 1.4 2.3 0.2
v 1.4 3.8 0.2
v 1.4 4 0.2
v 1.5 2.1 0.2
v 1.5 2.2 0.2
v 1.5 2.3 0.2
v 1.5 2.4 0.2
v 1.5 3.6 0.2
v 1.5 3.8 0.2
v 1.6 2.2 0.2
v 1.6 2.3 0.2
v 1.6 2.4 0.2
v 1.6 2.5 0.2
v 1.6 3.4 0.2
v 1.6 3.6 0.2
v 1.7 2.3 0.2
v 1.7 2.4 0.2
v 1.7 2.5 0.2
v 1.7 2.6 0.2
v 1.7 3.2 0.2
v 1.7 3.4 0.2
v 1.8 2.4 0.2
v 1.8 2.5 0.2
v 1.8 2.6 0.2
v 1.8 2.7 0.2
v 1.8 3 0.2
v 1.8 3.2 0.2
v 1.9 2.5 0.2
v 1.9 2.6 0.2
v 1.9 2.7 0.2
v 1.9 2.8 0.2
v 1.9 3 0.2
v 2 2.6 0.2
v 2 2.8 0.2
v -2 2.6 -0.1
v -2 2.8 -0.1
v -1.9 2.5 -0.1
v -1.9 2.6 -0.1
v -1.9 2.7 -0.1
v -1.9 2.8 -0.1
v -1.9 3 -0.1
v -1.8 2.4 -0.1
v -1.8 2.5 -0.1
v -1.8 2.6 -0.1
v -1.8 2.7 -0.1
v -1.8 3 -0.1
v -1.8 3.2 -0.1
v -1.7 2.3 -0.1
v -1.7 2.4 -0.1
v -1.7 2.5 -0.1
v -1.7 2.6 -0.1
v -1.7 3.2 -0.1
v -1.7 3.4 -0.1
v -1.6 2.2 -0.1
v -1.6 2.3 -0.1
v -1.6 2.4 -0.1
v -1.6 2.5 -0.1
v -1.6 3.4 -0.1
v -1.6 3.6 -0.1
v -1.5 2.1 -0.1
v -1.5 2.2 -0.1
v -1.5 2.3 -0.1
v -1.5 2.4 -0.1
v -1.5 3.6 -0.1
v -1.5 3.8 -0.1
v -1.4 2 -0.1
v -1.4 2.1 -0.1
v -1.4 2.2 -0.1
v -1.4 2.3 -0.1
v -1.4 3.8 -0.1
v -1.4 4 -0.1
v -1.3 2 -0.1
v -1.3 2.1 -0.1
v -1.2 2.1 -0.1
v -1.2 2.2 -0.1
v -1.1 2.2 -0.1
v -1.1 2.3 -0.1
v -1 2.3 -0.1
v -1 2.4 -0.1
v -0.9 0 -0.1
v -0.9 2.4 -0.1
v -0.7 3.9 -0.1
v -0.7 4 -0.1
v -0.6 3.8 -0.1
v -0.6 3.9 -0.1
v -0.5 3.9 -0.1
v -0.5 4 -0.1
v 0.5 3.9 -0.1
v 0.5 4 -0.1
v 0.6 3.8 -0.1
v 0.6 3.9 -0.1
v 0.7 3.9 -0.1
v 0.7 4 -0.1
v 0.9 0 -0.1
v 0.9 2.4 -0.1
v 1 2.3 -0.1
v 1 2.4 -0.1
v 1.1 2.2 -0.1
v 1.1 2.3 -0.1
v 1.2 2.1 -0.1
v 1.2 2.2 -0.1
v 1.3 2 -0.1
v 1.3 2.1 -0.1
v 1.4 2 -0.1
v 1.4 2.1 -0.1
v 1.4 2.2 -0.1
v 1.4 2.3 -0.1
v 1.4 3.8 -0.1
v 1.4 4 -0.1
v 1.5 2.1 -0.1
v 1.5 2.2 -0.1
v 1.5 2.3 -0.1
v 1.5 2.4 -0.1
v 1.5 3.6 -0.1
v 1.5 3.8 -0.1
v 1.6 2.2 -0.1
v 1.6 2.3 -0.1
v 1.6 2.4 -0.1
v 1.6 2.5 -0.1
v 1.6 3.4 -0.1
v 1.6 3.6 -0.1
v 1.7 2.3 -0.1
v 1.7 2.4 -0.1
v 1.7 2.5 -0.1
v 1.7 2.6 -0.1
v 1.7 3.2 -0.1
v 1.7 3.4 -0.1
v 1.8 2.4 -0.1
v 1.8 2.5 -0.1
v 1.8 2.6 -0.1
v 1.8 2.7 -0.1
v 1.8 3 -0.1
v 1.8 3.2 -0.1
v 1.9 2.5 -0.1
v 1.9 2.6 -0.1
v 1.9 2.7 -0.1
v 1.9 2.8 -0.1
v 1.9 3 -0.1
v 2 2.6 -0.1
v 2 2.8 -0.1
v -0.9 0 0.2
v 0.9 0 0.2
v -0.9 0 -0.1
v 0.9 0 -0.1
v -1.4 2 0.2
v -1.3 2 0.2
v 1.3 2 0.2
v 1.4 2 0.2
v -1.4 2 -0.1
v -1.3 2 -0.1
v 1.3 2 -0.1
v 1.4 2 -0.1
v -1.5 2.1 0.2
v -1.4 2.1 0.2
v -1.3 2.1 0.2
v -1.2 2.1 0.2
v 1.2 2.1 0.2
v 1.3 2.1 0.2
v 1.4 2.1 0.2
v 1.5 2.1 0.2
v -1.5 2.1 -0.1
v -1.4 2.1 -0.1
v -1.3 2.1 -0.1
v -1.2 2.1 -0.1
v 1.2 2.1 -0.1
v 1.3 2.1 -0.1
v 1.4 2.1 -0.1
v 1.5 2.1 -0.1
v -1.6 2.2 0.2
v -1.5 2.2 0.2
v -1.2 2.2 0.2
v -1.1 2.2 0.2
v 1.1 2.2 0.2
v 1.2 2.2 0.2
v 1.5 2.2 0.2
v 1.6 2.2 0.2
v -1.6 2.2 -0.1
v -1.5 2.2 -0.1
v -1.2 2.2 -0.1
v -1.1 2.2 -0.1
v 1.1 2.2 -0.1
v 1.2 2.2 -0.1
v 1.5 2.2 -0.1
v 1.6 2.2 -0.1
v -1.7 2.3 0.2
v -1.6 2.3 0.2
v -1.1 2.3 0.2
v -1 2.3 0.2
v 1 2.3 0.2
v 1.1 2.3 0.2
v 1.6 2.3 0.2
v 1.7 2.3 0.2
v -1.7 2.3 -0.1
v -1.6 2.3 -0.1
v -1.1 2.3 -0.1
v -1 2.3 -0.1
v 1 2.3 -0.1
v 1.1 2.3 -0.1
v 1.6 2.3 -0.1
v 1.7 2.3 -0.1
v -1.8 2.4 0.2
v -1.7 2.4 0.2
v -1 2.4 0.2
v -0.9 2.4 0.2
v 0.9 2.4 0.2
v 1 2.4 0.2
v 1.7 2.4 0.2
v 1.8 2.4 0.2
v -1.8 2.4 -0.1
v -1.7 2.4 -0.1
v -1 2.4 -0.1
v -0.9 2.4 -0.1
v 0.9 2.4 -0.1
v 1 2.4 -0.1
v 1.7 2.4 -0.1
v 1.8 2.4 -0.1
v -1.9 2.5 0.2
v -1.8 2.5 0.2
v 1.8 2.5 0.2
v 1.9 2.5 0.2
v -1.9 2.5 -0.1
v -1.8 2.5 -0.1
v 1.8 2.5 -0.1
v 1.9 2.5 -0.1
v -2 2.6 0.2
v -1.9 2.6 0.2
v 1.9 2.6 0.2
v 2 2.6 0.2
v -2 2.6 -0.1
v -1.9 2.6 -0.1
v 1.9 2.6 -0.1
v 2 2.6 -0.1
v -2 2.8 0.2
v -1.9 2.8 0.2
v 1.9 2.8 0.2
v 2 2.8 0.2
v -2 2.8 -0.1
v -1.9 2.8 -0.1
v 1.9 2.8 -0.1
v 2 2.8 -0.1
v -1.9 3 0.2
v -1.8 3 0.2
v 1.8 3 0.2
v 1.9 3 0.2
v -1.9 3 -0.1
v -1.8 3 -0.1
v 1.8 3 -0.1
v 1.9 3 -0.1
v -1.8 3.2 0.2
v -1.7 3.2 0.2
v 1.7 3.2 0.2
v 1.8 3.2 0.2
v -1.8 3.2 -0.1
v -1.7 3.2 -0.1
v 1.7 3.2 -0.1
v 1.8 3.2 -0.1
v -1.7 3.4 0.2
v -1.6 3.4 0.2
v 1.6 3.4 0.2
v 1.7 3.4 0.2
v -1.7 3.4 -0.1
v -1.6 3.4 -0.1
v 1.6 3.4 -0.1
v 1.7 3.4 -0.1
v -1.6 3.6 0.2
v -1.5 3.6 0.2
v 1.5 3.6 0.2
v 1.6 3.6 0.2
v -1.6 3.6 -0.1
v -1.5 3.6 -0.1
v 1.5 3.6 -0.1
v 1.6 3.6 -0.1
v -1.5 3.8 0.2
v -1.4 3.8 0.2
v 1.4 3.8 0.2
v 1.5 3.8 0.2
v -1.5 3.8 -0.1
v -1.4 3.8 -0.1
v 1.4 3.8 -0.1
v 1.5 3.8 -0.1
v -0.5 3.9 0.2
v 0.5 3.9 0.2
v -0.5 3.9 -0.1
v 0.5 3.9 -0.1
v -1.4 4 0.2
v -0.7 4 0.2
v -0.5 4 0.2
v 0.5 4 0.2
v 0.7 4 0.2
v 1.4 4 0.2
v -1.4 4 -0.1
v -0.7 4 -0.1
v -0.5 4 -0.1
v 0.5 4 -0.1
v 0.7 4 -0.1
v 1.4 4 -0.1

# faces
f 3/3/1 2/3/1 1/3/1
f 4/3/1 2/3/1 3/3/1
f 7/3/1 6/3/1 5/3/1
f 8/3/1 6/3/1 7/3/1
f 11/2/1 10/2/1 9/2/1
f 12/2/1 10/2/1 11/2/1
f 15/3/1 14/3/1 13/3/1
f 16/3/1 14/3/1 15/3/1
f 19/2/1 18/2/1 17/2/1
f 20/2/1 18/2/1 19/2/1
f 23/3/1 22/3/1 21/3/1
f 24/3/1 22/3/1 23/3/1
f 27/2/1 26/2/1 25/2/1
f 28/2/1 26/2/1 27/2/1
f 31/3/1 30/3/1 29/3/1
f 32/3/1 30/3/1 31/3/1
f 35/2/1 34/2/1 33/2/1
f 36/2/1 34/2/1 35/2/1
f 39/3/1 38/3/1 37/3/1
f 40/3/1 38/3/1 39/3/1
f 43/2/1 42/2/1 41/2/1
f 44/2/1 42/2/1 43/2/1
f 47/3/1 46/3/1 45/3/1
f 48/3/1 46/3/1 47/3/1
f 51/2/1 50/2/1 49/2/1
f 52/2/1 50/2/1 51/2/1
f 55/2/1 54/2/1 53/2/1
f 56/2/1 54/2/1 55/2/1
f 59/3/1 58/3/1 57/3/1
f 60/3/1 58/3/1 59/3/1
f 63/2/1 62/2/1 61/2/1
f 64/2/1 62/2/1 63/2/1
f 67/2/1 66/2/1 65/2/1
f 68/2/1 66/2/1 67/2/1
f 71/3/1 70/3/1 69/3/1
f 72/3/1 70/3/1 71/3/1
f 75/3/1 74/3/1 73/3/1
f 76/3/1 74/3/1 75/3/1
f 77/3/2 78/3/2 79/3/2
f 79/3/2 78/3/2 80/3/2
f 81/3/2 82/3/2 83/3/2
f 83/3/2 82/3/2 84/3/2
f 85/2/2 86/2/2 87/2/2
f 87/2/2 86/2/2 88/2/2
f 89/2/2 90/2/2 91/2/2
f 91/2/2 90/2/2 92/2/2
f 93/3/2 94/3/2 95/3/2
f 95/3/2 94/3/2 96/3/2
f 97/2/2 98/2/2 99/2/2
f 99/2/2 98/2/2 100/2/2
f 101/3/2 102/3/2 103/3/2
f 103/3/2 102/3/2 104/3/2
f 105/2/2 106/2/2 107/2/2
f 107/2/2 106/2/2 108/2/2
f 109/3/2 110/3/2 111/3/2
f 111/3/2 110/3/2 112/3/2
f 113/2/2 114/2/2 115/2/2
f 115/2/2 114/2/2 116/2/2
f 117/3/2 118/3/2 119/3/2
f 119/3/2 118/3/2 120/3/2
f 121/2/2 122/2/2 123/2/2
f 123/2/2 122/2/2 124/2/2
f 125/3/2 126/3/2 127/3/2
f 127/3/2 126/3/2 128/3/2
f 129/2/2 130/2/2 131/2/2
f 131/2/2 130/2/2 132/2/2
f 133/3/2 134/3/2 135/3/2
f 135/3/2 134/3/2 136/3/2
f 137/2/2 138/2/2 139/2/2
f 139/2/2 138/2/2 140/2/2
f 141/3/2 142/3/2 143/3/2
f 143/3/2 142/3/2 144/3/2
f 145/2/2 146/2/2 147/2/2
f 147/2/2 146/2/2 148/2/2
f 149/3/2 150/3/2 151/3/2
f 151/3/2 150/3/2 152/3/2
f 156/3/3 154/3/3 153/3/3
f 157/3/3 154/3/3 156/3/3
f 158/3/3 154/3/3 157/3/3
f 161/3/3 156/3/3 155/3/3
f 161/3/3 157/3/3 156/3/3
f 162/3/3 157/3/3 161/3/3
f 163/2/3 159/2/3 158/2/3
f 163/3/3 157/3/3 162/3/3
f 163/2/3 158/2/3 157/2/3
f 164/2/3 159/2/3 163/2/3
f 167/3/3 162/3/3 161/3/3
f 167/3/3 161/3/3 160/3/3
f 168/3/3 162/3/3 167/3/3
f 169/2/3 165/2/3 164/2/3
f 169/3/3 162/3/3 168/3/3
f 169/2/3 164/2/3 163/2/3
f 169/2/3 163/2/3 162/2/3
f 170/2/3 165/2/3 169/2/3
f 173/3/3 168/3/3 167/3/3
f 173/3/3 167/3/3 166/3/3
f 174/3/3 168/3/3 173/3/3
f 175/2/3 171/2/3 170/2/3
f 175/3/3 168/3/3 174/3/3
f 175/2/3 170/2/3 169/2/3
f 175/2/3 169/2/3 168/2/3
f 176/2/3 171/2/3 175/2/3
f 179/3/3 174/3/3 173/3/3
f 179/3/3 173/3/3 172/3/3
f 180/3/3 174/3/3 179/3/3
f 181/2/3 177/2/3 176/2/3
f 181/3/3 174/3/3 180/3/3
f 181/2/3 176/2/3 175/2/3
f 181/2/3 175/2/3 174/2/3
f 182/2/3 177/2/3 181/2/3
f 185/3/3 180/3/3 179/3/3
f 185/3/3 179/3/3 178/3/3
f 186/3/3 180/3/3 185/3/3
f 187/2/3 183/2/3 182/2/3
f 187/3/3 180/3/3 186/3/3
f 187/2/3 182/2/3 181/2/3
f 187/2/3 181/2/3 180/2/3
f 188/2/3 183/2/3 187/2/3
f 190/3/3 186/3/3 185/3/3
f 190/3/3 185/3/3 184/3/3
f 191/3/3 186/3/3 190/3/3
f 192/3/3 186/3/3 191/3/3
f 193/2/3 189/2/3 188/2/3
f 193/3/3 186/3/3 192/3/3
f 193/2/3 188/2/3 187/2/3
f 193/2/3 187/2/3 186/2/3
f 194/2/3 189/2/3 193/2/3
f 195/2/3 189/2/3 194/2/3
f 196/2/3 189/2/3 195/2/3
f 197/2/3 189/2/3 196/2/3
f 199/2/3 189/2/3 197/2/3
f 200/2/3 199/2/3 198/2/3
f 201/2/3 189/2/3 199/2/3
f 201/2/3 199/2/3 200/2/3
f 202/2/3 189/2/3 201/2/3
f 203/2/3 189/2/3 202/2/3
f 204/2/3 200/2/3 198/2/3
f 205/1/3 201/1/3 200/1/3
f 205/2/3 200/2/3 204/2/3
f 206/2/3 202/2/3 201/2/3
f 206/1/3 201/1/3 205/1/3
f 207/2/3 202/2/3 206/2/3
f 208/2/3 202/2/3 207/2/3
f 209/3/3 203/3/3 202/3/3
f 209/2/3 202/2/3 208/2/3
f 210/2/3 204/2/3 198/2/3
f 211/1/3 205/1/3 204/1/3
f 211/2/3 204/2/3 210/2/3
f 211/1/3 206/1/3 205/1/3
f 211/1/3 207/1/3 206/1/3
f 212/1/3 207/1/3 211/1/3
f 213/1/3 207/1/3 212/1/3
f 214/2/3 208/2/3 207/2/3
f 214/1/3 207/1/3 213/1/3
f 215/2/3 208/2/3 214/2/3
f 216/3/3 203/3/3 209/3/3
f 216/3/3 209/3/3 208/3/3
f 217/3/3 203/3/3 216/3/3
f 218/1/3 211/1/3 210/1/3
f 218/1/3 212/1/3 211/1/3
f 219/2/3 213/2/3 212/2/3
f 219/1/3 212/1/3 218/1/3
f 220/2/3 213/2/3 219/2/3
f 221/1/3 215/1/3 214/1/3
f 221/2/3 213/2/3 220/2/3
f 221/1/3 214/1/3 213/1/3
f 222/2/3 210/2/3 198/2/3
f 223/1/3 218/1/3 210/1/3
f 223/2/3 210/2/3 222/2/3
f 224/1/3 218/1/3 223/1/3
f 225/2/3 220/2/3 219/2/3
f 225/1/3 218/1/3 224/1/3
f 225/2/3 219/2/3 218/2/3
f 226/2/3 220/2/3 225/2/3
f 227/1/3 221/1/3 220/1/3
f 227/2/3 220/2/3 226/2/3
f 228/1/3 215/1/3 221/1/3
f 228/1/3 221/1/3 227/1/3
f 229/1/3 215/1/3 228/1/3
f 230/2/3 208/2/3 215/2/3
f 230/1/3 215/1/3 229/1/3
f 231/2/3 208/2/3 230/2/3
f 232/2/3 226/2/3 225/2/3
f 232/2/3 225/2/3 224/2/3
f 233/1/3 227/1/3 226/1/3
f 233/2/3 226/2/3 232/2/3
f 233/1/3 228/1/3 227/1/3
f 234/1/3 228/1/3 233/1/3
f 235/2/3 229/2/3 228/2/3
f 235/1/3 228/1/3 234/1/3
f 236/2/3 232/2/3 224/2/3
f 237/1/3 234/1/3 233/1/3
f 237/2/3 232/2/3 236/2/3
f 237/1/3 233/1/3 232/1/3
f 238/1/3 234/1/3 237/1/3
f 239/2/3 235/2/3 234/2/3
f 239/1/3 234/1/3 238/1/3
f 240/2/3 236/2/3 224/2/3
f 241/1/3 238/1/3 237/1/3
f 241/2/3 236/2/3 240/2/3
f 241/1/3 237/1/3 236/1/3
f 242/1/3 238/1/3 241/1/3
f 243/2/3 239/2/3 238/2/3
f 243/1/3 238/1/3 242/1/3
f 244/2/3 240/2/3 224/2/3
f 245/1/3 242/1/3 241/1/3
f 245/2/3 240/2/3 244/2/3
f 245/1/3 241/1/3 240/1/3
f 246/1/3 242/1/3 245/1/3
f 247/2/3 243/2/3 242/2/3
f 247/1/3 242/1/3 246/1/3
f 248/2/3 222/2/3 198/2/3
f 248/1/3 224/1/3 223/1/3
f 248/1/3 223/1/3 222/1/3
f 249/1/3 224/1/3 248/1/3
f 250/2/3 244/2/3 224/2/3
f 250/1/3 224/1/3 249/1/3
f 251/1/3 245/1/3 244/1/3
f 251/2/3 244/2/3 250/2/3
f 251/1/3 246/1/3 245/1/3
f 252/1/3 246/1/3 251/1/3
f 253/2/3 247/2/3 246/2/3
f 253/1/3 246/1/3 252/1/3
f 254/2/3 235/2/3 239/2/3
f 254/2/3 247/2/3 253/2/3
f 254/2/3 229/2/3 235/2/3
f 254/2/3 243/2/3 247/2/3
f 254/2/3 239/2/3 243/2/3
f 255/1/3 231/1/3 230/1/3
f 255/2/3 229/2/3 254/2/3
f 255/1/3 230/1/3 229/1/3
f 256/1/3 231/1/3 255/1/3
f 257/2/3 208/2/3 231/2/3
f 257/1/3 231/1/3 256/1/3
f 258/1/3 251/1/3 250/1/3
f 258/1/3 252/1/3 251/1/3
f 258/1/3 250/1/3 249/1/3
f 259/2/3 253/2/3 252/2/3
f 259/1/3 252/1/3 258/1/3
f 259/2/3 254/2/3 253/2/3
f 260/2/3 254/2/3 259/2/3
f 261/1/3 255/1/3 254/1/3
f 261/2/3 254/2/3 260/2/3
f 261/1/3 256/1/3 255/1/3
f 262/1/3 258/1/3 249/1/3
f 262/2/3 249/2/3 248/2/3
f 263/1/3 258/1/3 262/1/3
f 264/2/3 260/2/3 259/2/3
f 264/1/3 258/1/3 263/1/3
f 264/2/3 259/2/3 258/2/3
f 265/1/3 261/1/3 260/1/3
f 265/2/3 260/2/3 264/2/3
f 266/1/3 256/1/3 261/1/3
f 266/1/3 261/1/3 265/1/3
f 267/2/3 257/2/3 256/2/3
f 267/1/3 256/1/3 266/1/3
f 268/1/3 265/1/3 264/1/3
f 268/1/3 266/1/3 265/1/3
f 268/2/3 263/2/3 262/2/3
f 268/1/3 264/1/3 263/1/3
f 269/1/3 266/1/3 268/1/3
f 270/1/3 266/1/3 269/1/3
f 271/2/3 267/2/3 266/2/3
f 271/1/3 266/1/3 270/1/3
f 272/3/3 216/3/3 208/3/3
f 274/1/3 270/1/3 269/1/3
f 274/2/3 269/2/3 268/2/3
f 275/2/3 271/2/3 270/2/3
f 275/1/3 270/1/3 274/1/3
f 276/2/3 257/2/3 267/2/3
f 276/2/3 271/2/3 275/2/3
f 276/2/3 208/2/3 257/2/3
f 276/3/3 273/3/3 272/3/3
f 276/3/3 272/3/3 208/3/3
f 276/2/3 267/2/3 271/2/3
f 277/3/3 273/3/3 276/3/3
f 278/2/3 275/2/3 274/2/3
f 278/3/3 273/3/3 277/3/3
f 278/2/3 277/2/3 276/2/3
f 278/2/3 276/2/3 275/2/3
f 279/3/3 273/3/3 278/3/3
f 280/2/3 262/2/3 248/2/3
f 280/2/3 274/2/3 268/2/3
f 280/2/3 279/2/3 278/2/3
f 280/2/3 278/2/3 274/2/3
f 280/2/3 248/2/3 198/2/3
f 280/2/3 268/2/3 262/2/3
f 281/2/3 279/2/3 280/2/3
f 283/2/3 279/2/3 281/2/3
f 285/2/3 283/2/3 282/2/3
f 287/2/3 285/2/3 284/2/3
f 289/3/3 287/3/3 286/3/3
f 290/3/3 289/3/3 288/3/3
f 291/3/3 287/3/3 289/3/3
f 291/3/3 289/3/3 290/3/3
f 292/2/3 285/2/3 287/2/3
f 292/3/3 287/3/3 291/3/3
f 293/2/3 283/2/3 285/2/3
f 293/2/3 285/2/3 292/2/3
f 294/2/3 279/2/3 283/2/3
f 294/2/3 283/2/3 293/2/3
f 295/2/3 279/2/3 294/2/3
f 296/3/3 293/3/3 292/3/3
f 296/3/3 292/3/3 291/3/3
f 297/3/3 293/3/3 296/3/3
f 298/2/3 294/2/3 293/2/3
f 298/3/3 293/3/3 297/3/3
f 299/2/3 294/2/3 298/2/3
f 300/2/3 294/2/3 299/2/3
f 301/2/3 294/2/3 300/2/3
f 302/3/3 298/3/3 297/3/3
f 302/3/3 299/3/3 298/3/3
f 303/3/3 299/3/3 302/3/3
f 304/2/3 300/2/3 299/2/3
f 304/3/3 299/3/3 303/3/3
f 305/2/3 300/2/3 304/2/3
f 306/2/3 300/2/3 305/2/3
f 307/2/3 300/2/3 306/2/3
f 308/3/3 304/3/3 303/3/3
f 308/3/3 305/3/3 304/3/3
f 309/3/3 305/3/3 308/3/3
f 310/2/3 306/2/3 305/2/3
f 310/3/3 305/3/3 309/3/3
f 311/2/3 306/2/3 310/2/3
f 312/2/3 306/2/3 311/2/3
f 313/2/3 306/2/3 312/2/3
f 314/3/3 310/3/3 309/3/3
f 314/3/3 311/3/3 310/3/3
f 315/3/3 311/3/3 314/3/3
f 316/2/3 312/2/3 311/2/3
f 316/3/3 311/3/3 315/3/3
f 317/2/3 312/2/3 316/2/3
f 318/2/3 312/2/3 317/2/3
f 319/2/3 312/2/3 318/2/3
f 320/3/3 316/3/3 315/3/3
f 320/3/3 317/3/3 316/3/3
f 321/3/3 317/3/3 320/3/3
f 322/2/3 318/2/3 317/2/3
f 322/3/3 317/3/3 321/3/3
f 323/2/3 318/2/3 322/2/3
f 324/2/3 318/2/3 323/2/3
f 325/3/3 322/3/3 321/3/3
f 325/3/3 323/3/3 322/3/3
f 326/3/3 323/3/3 325/3/3
f 327/3/4 328/3/4 330/3/4
f 330/3/4 328/3/4 331/3/4
f 331/3/4 328/3/4 332/3/4
f 329/3/4 330/3/4 335/3/4
f 330/3/4 331/3/4 335/3/4
f 335/3/4 331/3/4 336/3/4
f 332/2/4 333/2/4 337/2/4
f 336/3/4 331/3/4 337/3/4
f 331/2/4 332/2/4 337/2/4
f 337/2/4 333/2/4 338/2/4
f 335/3/4 336/3/4 341/3/4
f 334/3/4 335/3/4 341/3/4
f 341/3/4 336/3/4 342/3/4
f 338/2/4 339/2/4 343/2/4
f 342/3/4 336/3/4 343/3/4
f 337/2/4 338/2/4 343/2/4
f 336/2/4 337/2/4 343/2/4
f 343/2/4 339/2/4 344/2/4
f 341/3/4 342/3/4 347/3/4
f 340/3/4 341/3/4 347/3/4
f 347/3/4 342/3/4 348/3/4
f 344/2/4 345/2/4 349/2/4
f 348/3/4 342/3/4 349/3/4
f 343/2/4 344/2/4 349/2/4
f 342/2/4 343/2/4 349/2/4
f 349/2/4 345/2/4 350/2/4
f 347/3/4 348/3/4 353/3/4
f 346/3/4 347/3/4 353/3/4
f 353/3/4 348/3/4 354/3/4
f 350/2/4 351/2/4 355/2/4
f 354/3/4 348/3/4 355/3/4
f 349/2/4 350/2/4 355/2/4
f 348/2/4 349/2/4 355/2/4
f 355/2/4 351/2/4 356/2/4
f 353/3/4 354/3/4 359/3/4
f 352/3/4 353/3/4 359/3/4
f 359/3/4 354/3/4 360/3/4
f 356/2/4 357/2/4 361/2/4
f 360/3/4 354/3/4 361/3/4
f 355/2/4 356/2/4 361/2/4
f 354/2/4 355/2/4 361/2/4
f 361/2/4 357/2/4 362/2/4
f 359/3/4 360/3/4 364/3/4
f 358/3/4 359/3/4 364/3/4
f 364/3/4 360/3/4 365/3/4
f 365/3/4 360/3/4 366/3/4
f 362/2/4 363/2/4 367/2/4
f 366/3/4 360/3/4 367/3/4
f 361/2/4 362/2/4 367/2/4
f 360/2/4 361/2/4 367/2/4
f 367/2/4 363/2/4 368/2/4
f 368/2/4 363/2/4 369/2/4
f 369/2/4 363/2/4 370/2/4
f 370/2/4 363/2/4 371/2/4
f 371/2/4 363/2/4 373/2/4
f 373/2/4 363/2/4 374/2/4
f 372/2/4 373/2/4 374/2/4
f 374/2/4 363/2/4 375/2/4
f 372/2/4 374/2/4 376/2/4
f 374/3/4 375/3/4 377/3/4
f 376/2/4 374/2/4 377/2/4
f 376/3/4 377/3/4 378/3/4
f 377/3/4 375/3/4 378/3/4
f 378/3/4 375/3/4 379/3/4
f 376/3/4 378/3/4 380/3/4
f 372/2/4 376/2/4 382/2/4
f 380/3/4 381/3/4 382/3/4
f 376/3/4 380/3/4 382/3/4
f 382/3/4 381/3/4 383/3/4
f 382/2/4 383/2/4 384/2/4
f 383/3/4 381/3/4 384/3/4
f 384/3/4 381/3/4 385/3/4
f 372/2/4 382/2/4 386/2/4
f 382/2/4 384/2/4 386/2/4
f 384/2/4 385/2/4 386/2/4
f 386/2/4 385/2/4 387/2/4
f 387/2/4 385/2/4 389/2/4
f 388/2/4 389/2/4 391/2/4
f 390/2/4 391/2/4 393/2/4
f 392/3/4 393/3/4 395/3/4
f 394/3/4 395/3/4 396/3/4
f 395/3/4 393/3/4 397/3/4
f 396/3/4 395/3/4 397/3/4
f 393/2/4 391/2/4 398/2/4
f 397/3/4 393/3/4 398/3/4
f 391/2/4 389/2/4 399/2/4
f 398/2/4 391/2/4 399/2/4
f 389/2/4 385/2/4 400/2/4
f 399/2/4 389/2/4 400/2/4
f 400/2/4 385/2/4 401/2/4
f 398/3/4 399/3/4 402/3/4
f 397/3/4 398/3/4 402/3/4
f 402/3/4 399/3/4 403/3/4
f 399/2/4 400/2/4 404/2/4
f 403/3/4 399/3/4 404/3/4
f 404/2/4 400/2/4 405/2/4
f 405/2/4 400/2/4 406/2/4
f 406/2/4 400/2/4 407/2/4
f 403/3/4 404/3/4 408/3/4
f 404/3/4 405/3/4 408/3/4
f 408/3/4 405/3/4 409/3/4
f 405/2/4 406/2/4 410/2/4
f 409/3/4 405/3/4 410/3/4
f 410/2/4 406/2/4 411/2/4
f 411/2/4 406/2/4 412/2/4
f 412/2/4 406/2/4 413/2/4
f 409/3/4 410/3/4 414/3/4
f 410/3/4 411/3/4 414/3/4
f 414/3/4 411/3/4 415/3/4
f 411/2/4 412/2/4 416/2/4
f 415/3/4 411/3/4 416/3/4
f 416/2/4 412/2/4 417/2/4
f 417/2/4 412/2/4 418/2/4
f 418/2/4 412/2/4 419/2/4
f 415/3/4 416/3/4 420/3/4
f 416/3/4 417/3/4 420/3/4
f 420/3/4 417/3/4 421/3/4
f 417/2/4 418/2/4 422/2/4
f 421/3/4 417/3/4 422/3/4
f 422/2/4 418/2/4 423/2/4
f 423/2/4 418/2/4 424/2/4
f 424/2/4 418/2/4 425/2/4
f 421/3/4 422/3/4 426/3/4
f 422/3/4 423/3/4 426/3/4
f 426/3/4 423/3/4 427/3/4
f 423/2/4 424/2/4 428/2/4
f 427/3/4 423/3/4 428/3/4
f 428/2/4 424/2/4 429/2/4
f 429/2/4 424/2/4 430/2/4
f 427/3/4 428/3/4 431/3/4
f 428/3/4 429/3/4 431/3/4
f 431/3/4 429/3/4 432/3/4
f 435/2/5 434/2/5 433/2/5
f 436/2/5 434/2/5 435/2/5
f 441/3/5 438/3/5 437/3/5
f 442/3/5 438/3/5 441/3/5
f 443/3/5 440/3/5 439/3/5
f 444/3/5 440/3/5 443/3/5
f 453/3/5 446/3/5 445/3/5
f 454/3/5 446/3/5 453/3/5
f 455/3/5 448/3/5 447/3/5
f 456/3/5 448/3/5 455/3/5
f 457/3/5 450/3/5 449/3/5
f 458/3/5 450/3/5 457/3/5
f 459/3/5 452/3/5 451/3/5
f 460/3/5 452/3/5 459/3/5
f 469/3/5 462/3/5 461/3/5
f 470/3/5 462/3/5 469/3/5
f 471/2/5 464/2/5 463/2/5
f 472/2/5 464/2/5 471/2/5
f 473/2/5 466/2/5 465/2/5
f 474/2/5 466/2/5 473/2/5
f 475/3/5 468/3/5 467/3/5
f 476/3/5 468/3/5 475/3/5
f 485/3/5 478/3/5 477/3/5
f 486/3/5 478/3/5 485/3/5
f 487/2/5 480/2/5 479/2/5
f 488/2/5 480/2/5 487/2/5
f 489/2/5 482/2/5 481/2/5
f 490/2/5 482/2/5 489/2/5
f 491/3/5 484/3/5 483/3/5
f 492/3/5 484/3/5 491/3/5
f 501/3/5 494/3/5 493/3/5
f 502/3/5 494/3/5 501/3/5
f 503/2/5 496/2/5 495/2/5
f 504/2/5 496/2/5 503/2/5
f 505/2/5 498/2/5 497/2/5
f 506/2/5 498/2/5 505/2/5
f 507/3/5 500/3/5 499/3/5
f 508/3/5 500/3/5 507/3/5
f 513/3/5 510/3/5 509/3/5
f 514/3/5 510/3/5 513/3/5
f 515/3/5 512/3/5 511/3/5
f 516/3/5 512/3/5 515/3/5
f 521/3/5 518/3/5 517/3/5
f 522/3/5 518/3/5 521/3/5
f 523/3/5 520/3/5 519/3/5
f 524/3/5 520/3/5 523/3/5
f 525/3/6 526/3/6 529/3/6
f 529/3/6 526/3/6 530/3/6
f 527/3/6 528/3/6 531/3/6
f 531/3/6 528/3/6 532/3/6
f 533/2/6 534/2/6 537/2/6
f 537/2/6 534/2/6 538/2/6
f 535/2/6 536/2/6 539/2/6
f 539/2/6 536/2/6 540/2/6
f 541/2/6 542/2/6 545/2/6
f 545/2/6 542/2/6 546/2/6
f 543/2/6 544/2/6 547/2/6
f 547/2/6 544/2/6 548/2/6
f 549/2/6 550/2/6 553/2/6
f 553/2/6 550/2/6 554/2/6
f 551/2/6 552/2/6 555/2/6
f 555/2/6 552/2/6 556/2/6
f 557/2/6 558/2/6 561/2/6
f 561/2/6 558/2/6 562/2/6
f 559/2/6 560/2/6 563/2/6
f 563/2/6 560/2/6 564/2/6
f 565/2/6 566/2/6 569/2/6
f 569/2/6 566/2/6 570/2/6
f 567/2/6 568/2/6 571/2/6
f 571/2/6 568/2/6 572/2/6
f 573/3/6 574/3/6 575/3/6
f 575/3/6 574/3/6 576/3/6
f 577/2/6 578/2/6 583/2/6
f 578/3/6 579/3/6 584/3/6
f 583/2/6 578/2/6 584/2/6
f 584/3/6 579/3/6 585/3/6
f 580/3/6 581/3/6 586/3/6
f 581/2/6 582/2/6 587/2/6
f 586/3/6 581/3/6 587/3/6
f 587/2/6 582/2/6 588/2/6
