# MagicaVoxel @ Ephtracy

# group
o 

# material
mtllib tshirt_blue.mtl
usemtl palette

# normals
vn -1 0 0
vn 1 0 0
vn 0 0 1
vn 0 0 -1
vn 0 -1 0
vn 0 1 0

# texcoords
vt 0.685547 0.5
vt 0.751953 0.5

# verts
v -2 2.6 0.2
v -2 2.6 -0.1
v -2 2.8 0.2
v -2 2.8 -0.1
v -1.9 2.5 0.2
v -1.9 2.5 -0.1
v -1.9 2.6 0.2
v -1.9 2.6 -0.1
v -1.9 2.8 0.2
v -1.9 2.8 -0.1
v -1.9 3 0.2
v -1.9 3 -0.1
v -1.8 2.4 0.2
v -1.8 2.4 -0.1
v -1.8 2.5 0.2
v -1.8 2.5 -0.1
v -1.8 3 0.2
v -1.8 3 -0.1
v -1.8 3.2 0.2
v -1.8 3.2 -0.1
v -1.7 2.3 0.2
v -1.7 2.3 -0.1
v -1.7 2.4 0.2
v -1.7 2.4 -0.1
v -1.7 3.2 0.2
v -1.7 3.2 -0.1
v -1.7 3.4 0.2
v -1.7 3.4 -0.1
v -1.6 2.2 0.2
v -1.6 2.2 -0.1
v -1.6 2.3 0.2
v -1.6 2.3 -0.1
v -1.6 3.4 0.2
v -1.6 3.4 -0.1
v -1.6 3.6 0.2
v -1.6 3.6 -0.1
v -1.5 2.1 0.2
v -1.5 2.1 -0.1
v -1.5 2.2 0.2
v -1.5 2.2 -0.1
v -1.5 3.6 0.2
v -1.5 3.6 -0.1
v -1.5 3.8 0.2
v -1.5 3.8 -0.1
v -1.4 2 0.2
v -1.4 2 -0.1
v -1.4 2.1 0.2
v -1.4 2.1 -0.1
v -1.4 3.8 0.2
v -1.4 3.8 -0.1
v -1.4 4 0.2
v -1.4 4 -0.1
v -0.9 0 0.2
v -0.9 0 -0.1
v -0.9 2.4 0.2
v -0.9 2.4 -0.1
v 0.5 3.9 0.2
v 0.5 3.9 -0.1
v 0.5 4 0.2
v 0.5 4 -0.1
v 1 2.3 0.2
v 1 2.3 -0.1
v 1 2.4 0.2
v 1 2.4 -0.1
v 1.1 2.2 0.2
v 1.1 2.2 -0.1
v 1.1 2.3 0.2
v 1.1 2.3 -0.1
v 1.2 2.1 0.2
v 1.2 2.1 -0.1
v 1.2 2.2 0.2
v 1.2 2.2 -0.1
v 1.3 2 0.2
v 1.3 2 -0.1
v 1.3 2.1 0.2
v 1.3 2.1 -0.1
v -1.3 2 0.2
v -1.3 2 -0.1
v -1.3 2.1 0.2
v -1.3 2.1 -0.1
v -1.2 2.1 0.2
v -1.2 2.1 -0.1
v -1.2 2.2 0.2
v -1.2 2.2 -0.1
v -1.1 2.2 0.2
v -1.1 2.2 -0.1
v -1.1 2.3 0.2
v -1.1 2.3 -0.1
v -1 2.3 0.2
v -1 2.3 -0.1
v -1 2.4 0.2
v -1 2.4 -0.1
v -0.5 3.9 0.2
v -0.5 3.9 -0.1
v -0.5 4 0.2
v -0.5 4 -0.1
v 0.9 0 0.2
v 0.9 0 -0.1
v 0.9 2.4 0.2
v 0.9 2.4 -0.1
v 1.4 2 0.2
v 1.4 2 -0.1
v 1.4 2.1 0.2
v 1.4 2.1 -0.1
v 1.4 3.8 0.2
v 1.4 3.8 -0.1
v 1.4 4 0.2
v 1.4 4 -0.1
v 1.5 2.1 0.2
v 1.5 2.1 -0.1
v 1.5 2.2 0.2
v 1.5 2.2 -0.1
v 1.5 3.6 0.2
v 1.5 3.6 -0.1
v 1.5 3.8 0.2
v 1.5 3.8 -0.1
v 1.6 2.2 0.2
v 1.6 2.2 -0.1
v 1.6 2.3 0.2
v 1.6 2.3 -0.1
v 1.6 3.4 0.2
v 1.6 3.4 -0.1
v 1.6 3.6 0.2
v 1.6 3.6 -0.1
v 1.7 2.3 0.2
v 1.7 2.3 -0.1
v 1.7 2.4 0.2
v 1.7 2.4 -0.1
v 1.7 3.2 0.2
v 1.7 3.2 -0.1
v 1.7 3.4 0.2
v 1.7 3.4 -0.1
v 1.8 2.4 0.2
v 1.8 2.4 -0.1
v 1.8 2.5 0.2
v 1.8 2.5 -0.1
v 1.8 3 0.2
v 1.8 3 -0.1
v 1.8 3.2 0.2
v 1.8 3.2 -0.1
v 1.9 2.5 0.2
v 1.9 2.5 -0.1
v 1.9 2.6 0.2
v 1.9 2.6 -0.1
v 1.9 2.8 0.2
v 1.9 2.8 -0.1
v 1.9 3 0.2
v 1.9 3 -0.1
v 2 2.6 0.2
v 2 2.6 -0.1
v 2 2.8 0.2
v 2 2.8 -0.1
v -2 2.6 0.2
v -2 2.8 0.2
v -1.9 2.5 0.2
v -1.9 2.6 0.2
v -1.9 2.7 0.2
v -1.9 2.8 0.2
v -1.9 3 0.2
v -1.8 2.4 0.2
v -1.8 2.5 0.2
v -1.8 2.6 0.2
v -1.8 2.7 0.2
v -1.8 3 0.2
v -1.8 3.2 0.2
v -1.7 2.3 0.2
v -1.7 2.4 0.2
v -1.7 2.5 0.2
v -1.7 2.6 0.2
v -1.7 3.2 0.2
v -1.7 3.4 0.2
v -1.6 2.2 0.2
v -1.6 2.3 0.2
v -1.6 2.4 0.2
v -1.6 2.5 0.2
v -1.6 3.4 0.2
v -1.6 3.6 0.2
v -1.5 2.1 0.2
v -1.5 2.2 0.2
v -1.5 2.3 0.2
v -1.5 2.4 0.2
v -1.5 3.6 0.2
v -1.5 3.8 0.2
v -1.4 2 0.2
v -1.4 2.1 0.2
v -1.4 2.2 0.2
v -1.4 2.3 0.2
v -1.4 3.8 0.2
v -1.4 4 0.2
v -1.3 2 0.2
v -1.3 2.1 0.2
v -1.2 2.1 0.2
v -1.2 2.2 0.2
v -1.1 2.2 0.2
v -1.1 2.3 0.2
v -1 2.3 0.2
v -1 2.4 0.2
v -0.9 0 0.2
v -0.9 2.4 0.2
v -0.7 2.3 0.2
v -0.7 2.6 0.2
v -0.7 3.9 0.2
v -0.7 4 0.2
v -0.6 2.2 0.2
v -0.6 2.3 0.2
v -0.6 2.6 0.2
v -0.6 2.7 0.2
v -0.6 3.8 0.2
v -0.6 3.9 0.2
v -0.5 3.9 0.2
v -0.5 4 0.2
v -0.4 2.2 0.2
v -0.4 2.3 0.2
v -0.4 2.6 0.2
v -0.4 2.7 0.2
v -0.3 2.2 0.2
v -0.3 2.3 0.2
v -0.3 2.6 0.2
v -0.3 2.7 0.2
v -0.0999999 2.2 0.2
v -0.0999999 2.3 0.2
v -0.0999999 2.6 0.2
v -0.0999999 2.7 0.2
v 0.1 2.2 0.2
v 0.1 2.3 0.2
v 0.1 2.6 0.2
v 0.1 2.7 0.2
v 0.3 2.2 0.2
v 0.3 2.3 0.2
v 0.3 2.6 0.2
v 0.3 2.7 0.2
v 0.4 2.2 0.2
v 0.4 2.3 0.2
v 0.4 2.6 0.2
v 0.4 2.7 0.2
v 0.5 2.3 0.2
v 0.5 2.7 0.2
v 0.5 3.9 0.2
v 0.5 4 0.2
v 0.6 3.8 0.2
v 0.6 3.9 0.2
v 0.7 2.2 0.2
v 0.7 2.3 0.2
v 0.7 3.9 0.2
v 0.7 4 0.2
v 0.9 0 0.2
v 0.9 2.4 0.2
v 1 2.3 0.2
v 1 2.4 0.2
v 1.1 2.2 0.2
v 1.1 2.3 0.2
v 1.2 2.1 0.2
v 1.2 2.2 0.2
v 1.3 2 0.2
v 1.3 2.1 0.2
v 1.4 2 0.2
v 1.4 2.1 0.2
v 1.4 2.2 0.2
v 1.4 2.3 0.2
v 1.4 3.8 0.2
v 1.4 4 0.2
v 1.5 2.1 0.2
v 1.5 2.2 0.2
v 1.5 2.3 0.2
v 1.5 2.4 0.2
v 1.5 3.6 0.2
v 1.5 3.8 0.2
v 1.6 2.2 0.2
v 1.6 2.3 0.2
v 1.6 2.4 0.2
v 1.6 2.5 0.2
v 1.6 3.4 0.2
v 1.6 3.6 0.2
v 1.7 2.3 0.2
v 1.7 2.4 0.2
v 1.7 2.5 0.2
v 1.7 2.6 0.2
v 1.7 3.2 0.2
v 1.7 3.4 0.2
v 1.8 2.4 0.2
v 1.8 2.5 0.2
v 1.8 2.6 0.2
v 1.8 2.7 0.2
v 1.8 3 0.2
v 1.8 3.2 0.2
v 1.9 2.5 0.2
v 1.9 2.6 0.2
v 1.9 2.7 0.2
v 1.9 2.8 0.2
v 1.9 3 0.2
v 2 2.6 0.2
v 2 2.8 0.2
v -2 2.6 -0.1
v -2 2.8 -0.1
v -1.9 2.5 -0.1
v -1.9 2.6 -0.1
v -1.9 2.7 -0.1
v -1.9 2.8 -0.1
v -1.9 3 -0.1
v -1.8 2.4 -0.1
v -1.8 2.5 -0.1
v -1.8 2.6 -0.1
v -1.8 2.7 -0.1
v -1.8 3 -0.1
v -1.8 3.2 -0.1
v -1.7 2.3 -0.1
v -1.7 2.4 -0.1
v -1.7 2.5 -0.1
v -1.7 2.6 -0.1
v -1.7 3.2 -0.1
v -1.7 3.4 -0.1
v -1.6 2.2 -0.1
v -1.6 2.3 -0.1
v -1.6 2.4 -0.1
v -1.6 2.5 -0.1
v -1.6 3.4 -0.1
v -1.6 3.6 -0.1
v -1.5 2.1 -0.1
v -1.5 2.2 -0.1
v -1.5 2.3 -0.1
v -1.5 2.4 -0.1
v -1.5 3.6 -0.1
v -1.5 3.8 -0.1
v -1.4 2 -0.1
v -1.4 2.1 -0.1
v -1.4 2.2 -0.1
v -1.4 2.3 -0.1
v -1.4 3.8 -0.1
v -1.4 4 -0.1
v -1.3 2 -0.1
v -1.3 2.1 -0.1
v -1.2 2.1 -0.1
v -1.2 2.2 -0.1
v -1.1 2.2 -0.1
v -1.1 2.3 -0.1
v -1 2.3 -0.1
v -1 2.4 -0.1
v -0.9 0 -0.1
v -0.9 2.4 -0.1
v -0.7 3.9 -0.1
v -0.7 4 -0.1
v -0.6 3.8 -0.1
v -0.6 3.9 -0.1
v -0.5 3.9 -0.1
v -0.5 4 -0.1
v 0.5 3.9 -0.1
v 0.5 4 -0.1
v 0.6 3.8 -0.1
v 0.6 3.9 -0.1
v 0.7 3.9 -0.1
v 0.7 4 -0.1
v 0.9 0 -0.1
v 0.9 2.4 -0.1
v 1 2.3 -0.1
v 1 2.4 -0.1
v 1.1 2.2 -0.1
v 1.1 2.3 -0.1
v 1.2 2.1 -0.1
v 1.2 2.2 -0.1
v 1.3 2 -0.1
v 1.3 2.1 -0.1
v 1.4 2 -0.1
v 1.4 2.1 -0.1
v 1.4 2.2 -0.1
v 1.4 2.3 -0.1
v 1.4 3.8 -0.1
v 1.4 4 -0.1
v 1.5 2.1 -0.1
v 1.5 2.2 -0.1
v 1.5 2.3 -0.1
v 1.5 2.4 -0.1
v 1.5 3.6 -0.1
v 1.5 3.8 -0.1
v 1.6 2.2 -0.1
v 1.6 2.3 -0.1
v 1.6 2.4 -0.1
v 1.6 2.5 -0.1
v 1.6 3.4 -0.1
v 1.6 3.6 -0.1
v 1.7 2.3 -0.1
v 1.7 2.4 -0.1
v 1.7 2.5 -0.1
v 1.7 2.6 -0.1
v 1.7 3.2 -0.1
v 1.7 3.4 -0.1
v 1.8 2.4 -0.1
v 1.8 2.5 -0.1
v 1.8 2.6 -0.1
v 1.8 2.7 -0.1
v 1.8 3 -0.1
v 1.8 3.2 -0.1
v 1.9 2.5 -0.1
v 1.9 2.6 -0.1
v 1.9 2.7 -0.1
v 1.9 2.8 -0.1
v 1.9 3 -0.1
v 2 2.6 -0.1
v 2 2.8 -0.1
v -0.9 0 0.2
v 0.9 0 0.2
v -0.9 0 -0.1
v 0.9 0 -0.1
v -1.4 2 0.2
v -1.3 2 0.2
v 1.3 2 0.2
v 1.4 2 0.2
v -1.4 2 -0.1
v -1.3 2 -0.1
v 1.3 2 -0.1
v 1.4 2 -0.1
v -1.5 2.1 0.2
v -1.4 2.1 0.2
v -1.3 2.1 0.2
v -1.2 2.1 0.2
v 1.2 2.1 0.2
v 1.3 2.1 0.2
v 1.4 2.1 0.2
v 1.5 2.1 0.2
v -1.5 2.1 -0.1
v -1.4 2.1 -0.1
v -1.3 2.1 -0.1
v -1.2 2.1 -0.1
v 1.2 2.1 -0.1
v 1.3 2.1 -0.1
v 1.4 2.1 -0.1
v 1.5 2.1 -0.1
v -1.6 2.2 0.2
v -1.5 2.2 0.2
v -1.2 2.2 0.2
v -1.1 2.2 0.2
v 1.1 2.2 0.2
v 1.2 2.2 0.2
v 1.5 2.2 0.2
v 1.6 2.2 0.2
v -1.6 2.2 -0.1
v -1.5 2.2 -0.1
v -1.2 2.2 -0.1
v -1.1 2.2 -0.1
v 1.1 2.2 -0.1
v 1.2 2.2 -0.1
v 1.5 2.2 -0.1
v 1.6 2.2 -0.1
v -1.7 2.3 0.2
v -1.6 2.3 0.2
v -1.1 2.3 0.2
v -1 2.3 0.2
v 1 2.3 0.2
v 1.1 2.3 0.2
v 1.6 2.3 0.2
v 1.7 2.3 0.2
v -1.7 2.3 -0.1
v -1.6 2.3 -0.1
v -1.1 2.3 -0.1
v -1 2.3 -0.1
v 1 2.3 -0.1
v 1.1 2.3 -0.1
v 1.6 2.3 -0.1
v 1.7 2.3 -0.1
v -1.8 2.4 0.2
v -1.7 2.4 0.2
v -1 2.4 0.2
v -0.9 2.4 0.2
v 0.9 2.4 0.2
v 1 2.4 0.2
v 1.7 2.4 0.2
v 1.8 2.4 0.2
v -1.8 2.4 -0.1
v -1.7 2.4 -0.1
v -1 2.4 -0.1
v -0.9 2.4 -0.1
v 0.9 2.4 -0.1
v 1 2.4 -0.1
v 1.7 2.4 -0.1
v 1.8 2.4 -0.1
v -1.9 2.5 0.2
v -1.8 2.5 0.2
v 1.8 2.5 0.2
v 1.9 2.5 0.2
v -1.9 2.5 -0.1
v -1.8 2.5 -0.1
v 1.8 2.5 -0.1
v 1.9 2.5 -0.1
v -2 2.6 0.2
v -1.9 2.6 0.2
v 1.9 2.6 0.2
v 2 2.6 0.2
v -2 2.6 -0.1
v -1.9 2.6 -0.1
v 1.9 2.6 -0.1
v 2 2.6 -0.1
v -2 2.8 0.2
v -1.9 2.8 0.2
v 1.9 2.8 0.2
v 2 2.8 0.2
v -2 2.8 -0.1
v -1.9 2.8 -0.1
v 1.9 2.8 -0.1
v 2 2.8 -0.1
v -1.9 3 0.2
v -1.8 3 0.2
v 1.8 3 0.2
v 1.9 3 0.2
v -1.9 3 -0.1
v -1.8 3 -0.1
v 1.8 3 -0.1
v 1.9 3 -0.1
v -1.8 3.2 0.2
v -1.7 3.2 0.2
v 1.7 3.2 0.2
v 1.8 3.2 0.2
v -1.8 3.2 -0.1
v -1.7 3.2 -0.1
v 1.7 3.2 -0.1
v 1.8 3.2 -0.1
v -1.7 3.4 0.2
v -1.6 3.4 0.2
v 1.6 3.4 0.2
v 1.7 3.4 0.2
v -1.7 3.4 -0.1
v -1.6 3.4 -0.1
v 1.6 3.4 -0.1
v 1.7 3.4 -0.1
v -1.6 3.6 0.2
v -1.5 3.6 0.2
v 1.5 3.6 0.2
v 1.6 3.6 0.2
v -1.6 3.6 -0.1
v -1.5 3.6 -0.1
v 1.5 3.6 -0.1
v 1.6 3.6 -0.1
v -1.5 3.8 0.2
v -1.4 3.8 0.2
v 1.4 3.8 0.2
v 1.5 3.8 0.2
v -1.5 3.8 -0.1
v -1.4 3.8 -0.1
v 1.4 3.8 -0.1
v 1.5 3.8 -0.1
v -0.5 3.9 0.2
v 0.5 3.9 0.2
v -0.5 3.9 -0.1
v 0.5 3.9 -0.1
v -1.4 4 0.2
v -0.7 4 0.2
v -0.5 4 0.2
v 0.5 4 0.2
v 0.7 4 0.2
v 1.4 4 0.2
v -1.4 4 -0.1
v -0.7 4 -0.1
v -0.5 4 -0.1
v 0.5 4 -0.1
v 0.7 4 -0.1
v 1.4 4 -0.1

# faces
f 3/1/1 2/1/1 1/1/1
f 4/1/1 2/1/1 3/1/1
f 7/1/1 6/1/1 5/1/1
f 8/1/1 6/1/1 7/1/1
f 11/2/1 10/2/1 9/2/1
f 12/2/1 10/2/1 11/2/1
f 15/1/1 14/1/1 13/1/1
f 16/1/1 14/1/1 15/1/1
f 19/2/1 18/2/1 17/2/1
f 20/2/1 18/2/1 19/2/1
f 23/1/1 22/1/1 21/1/1
f 24/1/1 22/1/1 23/1/1
f 27/2/1 26/2/1 25/2/1
f 28/2/1 26/2/1 27/2/1
f 31/1/1 30/1/1 29/1/1
f 32/1/1 30/1/1 31/1/1
f 35/2/1 34/2/1 33/2/1
f 36/2/1 34/2/1 35/2/1
f 39/1/1 38/1/1 37/1/1
f 40/1/1 38/1/1 39/1/1
f 43/2/1 42/2/1 41/2/1
f 44/2/1 42/2/1 43/2/1
f 47/1/1 46/1/1 45/1/1
f 48/1/1 46/1/1 47/1/1
f 51/2/1 50/2/1 49/2/1
f 52/2/1 50/2/1 51/2/1
f 55/2/1 54/2/1 53/2/1
f 56/2/1 54/2/1 55/2/1
f 59/1/1 58/1/1 57/1/1
f 60/1/1 58/1/1 59/1/1
f 63/2/1 62/2/1 61/2/1
f 64/2/1 62/2/1 63/2/1
f 67/2/1 66/2/1 65/2/1
f 68/2/1 66/2/1 67/2/1
f 71/1/1 70/1/1 69/1/1
f 72/1/1 70/1/1 71/1/1
f 75/1/1 74/1/1 73/1/1
f 76/1/1 74/1/1 75/1/1
f 77/1/2 78/1/2 79/1/2
f 79/1/2 78/1/2 80/1/2
f 81/1/2 82/1/2 83/1/2
f 83/1/2 82/1/2 84/1/2
f 85/2/2 86/2/2 87/2/2
f 87/2/2 86/2/2 88/2/2
f 89/2/2 90/2/2 91/2/2
f 91/2/2 90/2/2 92/2/2
f 93/1/2 94/1/2 95/1/2
f 95/1/2 94/1/2 96/1/2
f 97/2/2 98/2/2 99/2/2
f 99/2/2 98/2/2 100/2/2
f 101/1/2 102/1/2 103/1/2
f 103/1/2 102/1/2 104/1/2
f 105/2/2 106/2/2 107/2/2
f 107/2/2 106/2/2 108/2/2
f 109/1/2 110/1/2 111/1/2
f 111/1/2 110/1/2 112/1/2
f 113/2/2 114/2/2 115/2/2
f 115/2/2 114/2/2 116/2/2
f 117/1/2 118/1/2 119/1/2
f 119/1/2 118/1/2 120/1/2
f 121/2/2 122/2/2 123/2/2
f 123/2/2 122/2/2 124/2/2
f 125/1/2 126/1/2 127/1/2
f 127/1/2 126/1/2 128/1/2
f 129/2/2 130/2/2 131/2/2
f 131/2/2 130/2/2 132/2/2
f 133/1/2 134/1/2 135/1/2
f 135/1/2 134/1/2 136/1/2
f 137/2/2 138/2/2 139/2/2
f 139/2/2 138/2/2 140/2/2
f 141/1/2 142/1/2 143/1/2
f 143/1/2 142/1/2 144/1/2
f 145/2/2 146/2/2 147/2/2
f 147/2/2 146/2/2 148/2/2
f 149/1/2 150/1/2 151/1/2
f 151/1/2 150/1/2 152/1/2
f 156/1/3 154/1/3 153/1/3
f 157/1/3 154/1/3 156/1/3
f 158/1/3 154/1/3 157/1/3
f 161/1/3 156/1/3 155/1/3
f 161/1/3 157/1/3 156/1/3
f 162/1/3 157/1/3 161/1/3
f 163/2/3 159/2/3 158/2/3
f 163/1/3 157/1/3 162/1/3
f 163/2/3 158/2/3 157/2/3
f 164/2/3 159/2/3 163/2/3
f 167/1/3 162/1/3 161/1/3
f 167/1/3 161/1/3 160/1/3
f 168/1/3 162/1/3 167/1/3
f 169/2/3 165/2/3 164/2/3
f 169/1/3 162/1/3 168/1/3
f 169/2/3 164/2/3 163/2/3
f 169/2/3 163/2/3 162/2/3
f 170/2/3 165/2/3 169/2/3
f 173/1/3 168/1/3 167/1/3
f 173/1/3 167/1/3 166/1/3
f 174/1/3 168/1/3 173/1/3
f 175/2/3 171/2/3 170/2/3
f 175/1/3 168/1/3 174/1/3
f 175/2/3 170/2/3 169/2/3
f 175/2/3 169/2/3 168/2/3
f 176/2/3 171/2/3 175/2/3
f 179/1/3 174/1/3 173/1/3
f 179/1/3 173/1/3 172/1/3
f 180/1/3 174/1/3 179/1/3
f 181/2/3 177/2/3 176/2/3
f 181/1/3 174/1/3 180/1/3
f 181/2/3 176/2/3 175/2/3
f 181/2/3 175/2/3 174/2/3
f 182/2/3 177/2/3 181/2/3
f 185/1/3 180/1/3 179/1/3
f 185/1/3 179/1/3 178/1/3
f 186/1/3 180/1/3 185/1/3
f 187/2/3 183/2/3 182/2/3
f 187/1/3 180/1/3 186/1/3
f 187/2/3 182/2/3 181/2/3
f 187/2/3 181/2/3 180/2/3
f 188/2/3 183/2/3 187/2/3
f 190/1/3 186/1/3 185/1/3
f 190/1/3 185/1/3 184/1/3
f 191/1/3 186/1/3 190/1/3
f 192/1/3 186/1/3 191/1/3
f 193/2/3 189/2/3 188/2/3
f 193/1/3 186/1/3 192/1/3
f 193/2/3 188/2/3 187/2/3
f 193/2/3 187/2/3 186/2/3
f 194/2/3 189/2/3 193/2/3
f 195/2/3 189/2/3 194/2/3
f 196/2/3 189/2/3 195/2/3
f 197/2/3 189/2/3 196/2/3
f 199/2/3 189/2/3 197/2/3
f 200/2/3 199/2/3 198/2/3
f 201/2/3 189/2/3 199/2/3
f 201/2/3 199/2/3 200/2/3
f 202/2/3 189/2/3 201/2/3
f 203/2/3 189/2/3 202/2/3
f 204/2/3 200/2/3 198/2/3
f 205/1/3 201/1/3 200/1/3
f 205/2/3 200/2/3 204/2/3
f 206/2/3 202/2/3 201/2/3
f 206/1/3 201/1/3 205/1/3
f 207/2/3 202/2/3 206/2/3
f 208/2/3 202/2/3 207/2/3
f 209/1/3 203/1/3 202/1/3
f 209/2/3 202/2/3 208/2/3
f 210/1/3 209/1/3 208/1/3
f 210/1/3 203/1/3 209/1/3
f 211/1/3 203/1/3 210/1/3
f 212/2/3 204/2/3 198/2/3
f 212/1/3 205/1/3 204/1/3
f 213/2/3 206/2/3 205/2/3
f 213/1/3 205/1/3 212/1/3
f 214/1/3 207/1/3 206/1/3
f 214/2/3 206/2/3 213/2/3
f 215/2/3 208/2/3 207/2/3
f 215/1/3 207/1/3 214/1/3
f 216/2/3 212/2/3 198/2/3
f 216/2/3 213/2/3 212/2/3
f 217/1/3 214/1/3 213/1/3
f 217/2/3 213/2/3 216/2/3
f 218/2/3 215/2/3 214/2/3
f 218/1/3 214/1/3 217/1/3
f 219/2/3 208/2/3 215/2/3
f 219/2/3 215/2/3 218/2/3
f 220/2/3 216/2/3 198/2/3
f 220/1/3 217/1/3 216/1/3
f 221/2/3 218/2/3 217/2/3
f 221/1/3 217/1/3 220/1/3
f 222/1/3 219/1/3 218/1/3
f 222/2/3 218/2/3 221/2/3
f 223/2/3 208/2/3 219/2/3
f 223/1/3 219/1/3 222/1/3
f 224/2/3 220/2/3 198/2/3
f 224/2/3 221/2/3 220/2/3
f 225/1/3 222/1/3 221/1/3
f 225/2/3 221/2/3 224/2/3
f 226/2/3 223/2/3 222/2/3
f 226/1/3 222/1/3 225/1/3
f 227/2/3 208/2/3 223/2/3
f 227/2/3 223/2/3 226/2/3
f 228/2/3 224/2/3 198/2/3
f 228/1/3 225/1/3 224/1/3
f 229/2/3 226/2/3 225/2/3
f 229/1/3 225/1/3 228/1/3
f 230/1/3 227/1/3 226/1/3
f 230/2/3 226/2/3 229/2/3
f 231/2/3 208/2/3 227/2/3
f 231/1/3 227/1/3 230/1/3
f 232/2/3 228/2/3 198/2/3
f 232/2/3 229/2/3 228/2/3
f 233/1/3 230/1/3 229/1/3
f 233/2/3 229/2/3 232/2/3
f 234/2/3 231/2/3 230/2/3
f 234/1/3 230/1/3 233/1/3
f 235/2/3 208/2/3 231/2/3
f 235/2/3 231/2/3 234/2/3
f 236/1/3 234/1/3 233/1/3
f 236/1/3 233/1/3 232/1/3
f 236/1/3 235/1/3 234/1/3
f 237/2/3 208/2/3 235/2/3
f 237/1/3 235/1/3 236/1/3
f 238/1/3 210/1/3 208/1/3
f 240/2/3 208/2/3 237/2/3
f 240/1/3 239/1/3 238/1/3
f 240/1/3 238/1/3 208/1/3
f 240/2/3 237/2/3 236/2/3
f 241/1/3 239/1/3 240/1/3
f 242/1/3 236/1/3 232/1/3
f 242/2/3 232/2/3 198/2/3
f 243/2/3 241/2/3 240/2/3
f 243/1/3 236/1/3 242/1/3
f 243/2/3 240/2/3 236/2/3
f 244/1/3 239/1/3 241/1/3
f 244/2/3 241/2/3 243/2/3
f 245/1/3 239/1/3 244/1/3
f 246/2/3 243/2/3 242/2/3
f 246/2/3 242/2/3 198/2/3
f 246/2/3 245/2/3 244/2/3
f 246/2/3 244/2/3 243/2/3
f 247/2/3 245/2/3 246/2/3
f 249/2/3 245/2/3 247/2/3
f 251/2/3 249/2/3 248/2/3
f 253/2/3 251/2/3 250/2/3
f 255/1/3 253/1/3 252/1/3
f 256/1/3 255/1/3 254/1/3
f 257/1/3 253/1/3 255/1/3
f 257/1/3 255/1/3 256/1/3
f 258/2/3 251/2/3 253/2/3
f 258/1/3 253/1/3 257/1/3
f 259/2/3 249/2/3 251/2/3
f 259/2/3 251/2/3 258/2/3
f 260/2/3 245/2/3 249/2/3
f 260/2/3 249/2/3 259/2/3
f 261/2/3 245/2/3 260/2/3
f 262/1/3 259/1/3 258/1/3
f 262/1/3 258/1/3 257/1/3
f 263/1/3 259/1/3 262/1/3
f 264/2/3 260/2/3 259/2/3
f 264/1/3 259/1/3 263/1/3
f 265/2/3 260/2/3 264/2/3
f 266/2/3 260/2/3 265/2/3
f 267/2/3 260/2/3 266/2/3
f 268/1/3 264/1/3 263/1/3
f 268/1/3 265/1/3 264/1/3
f 269/1/3 265/1/3 268/1/3
f 270/2/3 266/2/3 265/2/3
f 270/1/3 265/1/3 269/1/3
f 271/2/3 266/2/3 270/2/3
f 272/2/3 266/2/3 271/2/3
f 273/2/3 266/2/3 272/2/3
f 274/1/3 270/1/3 269/1/3
f 274/1/3 271/1/3 270/1/3
f 275/1/3 271/1/3 274/1/3
f 276/2/3 272/2/3 271/2/3
f 276/1/3 271/1/3 275/1/3
f 277/2/3 272/2/3 276/2/3
f 278/2/3 272/2/3 277/2/3
f 279/2/3 272/2/3 278/2/3
f 280/1/3 276/1/3 275/1/3
f 280/1/3 277/1/3 276/1/3
f 281/1/3 277/1/3 280/1/3
f 282/2/3 278/2/3 277/2/3
f 282/1/3 277/1/3 281/1/3
f 283/2/3 278/2/3 282/2/3
f 284/2/3 278/2/3 283/2/3
f 285/2/3 278/2/3 284/2/3
f 286/1/3 282/1/3 281/1/3
f 286/1/3 283/1/3 282/1/3
f 287/1/3 283/1/3 286/1/3
f 288/2/3 284/2/3 283/2/3
f 288/1/3 283/1/3 287/1/3
f 289/2/3 284/2/3 288/2/3
f 290/2/3 284/2/3 289/2/3
f 291/1/3 288/1/3 287/1/3
f 291/1/3 289/1/3 288/1/3
f 292/1/3 289/1/3 291/1/3
f 293/1/4 294/1/4 296/1/4
f 296/1/4 294/1/4 297/1/4
f 297/1/4 294/1/4 298/1/4
f 295/1/4 296/1/4 301/1/4
f 296/1/4 297/1/4 301/1/4
f 301/1/4 297/1/4 302/1/4
f 298/2/4 299/2/4 303/2/4
f 302/1/4 297/1/4 303/1/4
f 297/2/4 298/2/4 303/2/4
f 303/2/4 299/2/4 304/2/4
f 301/1/4 302/1/4 307/1/4
f 300/1/4 301/1/4 307/1/4
f 307/1/4 302/1/4 308/1/4
f 304/2/4 305/2/4 309/2/4
f 308/1/4 302/1/4 309/1/4
f 303/2/4 304/2/4 309/2/4
f 302/2/4 303/2/4 309/2/4
f 309/2/4 305/2/4 310/2/4
f 307/1/4 308/1/4 313/1/4
f 306/1/4 307/1/4 313/1/4
f 313/1/4 308/1/4 314/1/4
f 310/2/4 311/2/4 315/2/4
f 314/1/4 308/1/4 315/1/4
f 309/2/4 310/2/4 315/2/4
f 308/2/4 309/2/4 315/2/4
f 315/2/4 311/2/4 316/2/4
f 313/1/4 314/1/4 319/1/4
f 312/1/4 313/1/4 319/1/4
f 319/1/4 314/1/4 320/1/4
f 316/2/4 317/2/4 321/2/4
f 320/1/4 314/1/4 321/1/4
f 315/2/4 316/2/4 321/2/4
f 314/2/4 315/2/4 321/2/4
f 321/2/4 317/2/4 322/2/4
f 319/1/4 320/1/4 325/1/4
f 318/1/4 319/1/4 325/1/4
f 325/1/4 320/1/4 326/1/4
f 322/2/4 323/2/4 327/2/4
f 326/1/4 320/1/4 327/1/4
f 321/2/4 322/2/4 327/2/4
f 320/2/4 321/2/4 327/2/4
f 327/2/4 323/2/4 328/2/4
f 325/1/4 326/1/4 330/1/4
f 324/1/4 325/1/4 330/1/4
f 330/1/4 326/1/4 331/1/4
f 331/1/4 326/1/4 332/1/4
f 328/2/4 329/2/4 333/2/4
f 332/1/4 326/1/4 333/1/4
f 327/2/4 328/2/4 333/2/4
f 326/2/4 327/2/4 333/2/4
f 333/2/4 329/2/4 334/2/4
f 334/2/4 329/2/4 335/2/4
f 335/2/4 329/2/4 336/2/4
f 336/2/4 329/2/4 337/2/4
f 337/2/4 329/2/4 339/2/4
f 339/2/4 329/2/4 340/2/4
f 338/2/4 339/2/4 340/2/4
f 340/2/4 329/2/4 341/2/4
f 338/2/4 340/2/4 342/2/4
f 340/1/4 341/1/4 343/1/4
f 342/2/4 340/2/4 343/2/4
f 342/1/4 343/1/4 344/1/4
f 343/1/4 341/1/4 344/1/4
f 344/1/4 341/1/4 345/1/4
f 342/1/4 344/1/4 346/1/4
f 338/2/4 342/2/4 348/2/4
f 346/1/4 347/1/4 348/1/4
f 342/1/4 346/1/4 348/1/4
f 348/1/4 347/1/4 349/1/4
f 348/2/4 349/2/4 350/2/4
f 349/1/4 347/1/4 350/1/4
f 350/1/4 347/1/4 351/1/4
f 338/2/4 348/2/4 352/2/4
f 348/2/4 350/2/4 352/2/4
f 350/2/4 351/2/4 352/2/4
f 352/2/4 351/2/4 353/2/4
f 353/2/4 351/2/4 355/2/4
f 354/2/4 355/2/4 357/2/4
f 356/2/4 357/2/4 359/2/4
f 358/1/4 359/1/4 361/1/4
f 360/1/4 361/1/4 362/1/4
f 361/1/4 359/1/4 363/1/4
f 362/1/4 361/1/4 363/1/4
f 359/2/4 357/2/4 364/2/4
f 363/1/4 359/1/4 364/1/4
f 357/2/4 355/2/4 365/2/4
f 364/2/4 357/2/4 365/2/4
f 355/2/4 351/2/4 366/2/4
f 365/2/4 355/2/4 366/2/4
f 366/2/4 351/2/4 367/2/4
f 364/1/4 365/1/4 368/1/4
f 363/1/4 364/1/4 368/1/4
f 368/1/4 365/1/4 369/1/4
f 365/2/4 366/2/4 370/2/4
f 369/1/4 365/1/4 370/1/4
f 370/2/4 366/2/4 371/2/4
f 371/2/4 366/2/4 372/2/4
f 372/2/4 366/2/4 373/2/4
f 369/1/4 370/1/4 374/1/4
f 370/1/4 371/1/4 374/1/4
f 374/1/4 371/1/4 375/1/4
f 371/2/4 372/2/4 376/2/4
f 375/1/4 371/1/4 376/1/4
f 376/2/4 372/2/4 377/2/4
f 377/2/4 372/2/4 378/2/4
f 378/2/4 372/2/4 379/2/4
f 375/1/4 376/1/4 380/1/4
f 376/1/4 377/1/4 380/1/4
f 380/1/4 377/1/4 381/1/4
f 377/2/4 378/2/4 382/2/4
f 381/1/4 377/1/4 382/1/4
f 382/2/4 378/2/4 383/2/4
f 383/2/4 378/2/4 384/2/4
f 384/2/4 378/2/4 385/2/4
f 381/1/4 382/1/4 386/1/4
f 382/1/4 383/1/4 386/1/4
f 386/1/4 383/1/4 387/1/4
f 383/2/4 384/2/4 388/2/4
f 387/1/4 383/1/4 388/1/4
f 388/2/4 384/2/4 389/2/4
f 389/2/4 384/2/4 390/2/4
f 390/2/4 384/2/4 391/2/4
f 387/1/4 388/1/4 392/1/4
f 388/1/4 389/1/4 392/1/4
f 392/1/4 389/1/4 393/1/4
f 389/2/4 390/2/4 394/2/4
f 393/1/4 389/1/4 394/1/4
f 394/2/4 390/2/4 395/2/4
f 395/2/4 390/2/4 396/2/4
f 393/1/4 394/1/4 397/1/4
f 394/1/4 395/1/4 397/1/4
f 397/1/4 395/1/4 398/1/4
f 401/2/5 400/2/5 399/2/5
f 402/2/5 400/2/5 401/2/5
f 407/1/5 404/1/5 403/1/5
f 408/1/5 404/1/5 407/1/5
f 409/1/5 406/1/5 405/1/5
f 410/1/5 406/1/5 409/1/5
f 419/1/5 412/1/5 411/1/5
f 420/1/5 412/1/5 419/1/5
f 421/1/5 414/1/5 413/1/5
f 422/1/5 414/1/5 421/1/5
f 423/1/5 416/1/5 415/1/5
f 424/1/5 416/1/5 423/1/5
f 425/1/5 418/1/5 417/1/5
f 426/1/5 418/1/5 425/1/5
f 435/1/5 428/1/5 427/1/5
f 436/1/5 428/1/5 435/1/5
f 437/2/5 430/2/5 429/2/5
f 438/2/5 430/2/5 437/2/5
f 439/2/5 432/2/5 431/2/5
f 440/2/5 432/2/5 439/2/5
f 441/1/5 434/1/5 433/1/5
f 442/1/5 434/1/5 441/1/5
f 451/1/5 444/1/5 443/1/5
f 452/1/5 444/1/5 451/1/5
f 453/2/5 446/2/5 445/2/5
f 454/2/5 446/2/5 453/2/5
f 455/2/5 448/2/5 447/2/5
f 456/2/5 448/2/5 455/2/5
f 457/1/5 450/1/5 449/1/5
f 458/1/5 450/1/5 457/1/5
f 467/1/5 460/1/5 459/1/5
f 468/1/5 460/1/5 467/1/5
f 469/2/5 462/2/5 461/2/5
f 470/2/5 462/2/5 469/2/5
f 471/2/5 464/2/5 463/2/5
f 472/2/5 464/2/5 471/2/5
f 473/1/5 466/1/5 465/1/5
f 474/1/5 466/1/5 473/1/5
f 479/1/5 476/1/5 475/1/5
f 480/1/5 476/1/5 479/1/5
f 481/1/5 478/1/5 477/1/5
f 482/1/5 478/1/5 481/1/5
f 487/1/5 484/1/5 483/1/5
f 488/1/5 484/1/5 487/1/5
f 489/1/5 486/1/5 485/1/5
f 490/1/5 486/1/5 489/1/5
f 491/1/6 492/1/6 495/1/6
f 495/1/6 492/1/6 496/1/6
f 493/1/6 494/1/6 497/1/6
f 497/1/6 494/1/6 498/1/6
f 499/2/6 500/2/6 503/2/6
f 503/2/6 500/2/6 504/2/6
f 501/2/6 502/2/6 505/2/6
f 505/2/6 502/2/6 506/2/6
f 507/2/6 508/2/6 511/2/6
f 511/2/6 508/2/6 512/2/6
f 509/2/6 510/2/6 513/2/6
f 513/2/6 510/2/6 514/2/6
f 515/2/6 516/2/6 519/2/6
f 519/2/6 516/2/6 520/2/6
f 517/2/6 518/2/6 521/2/6
f 521/2/6 518/2/6 522/2/6
f 523/2/6 524/2/6 527/2/6
f 527/2/6 524/2/6 528/2/6
f 525/2/6 526/2/6 529/2/6
f 529/2/6 526/2/6 530/2/6
f 531/2/6 532/2/6 535/2/6
f 535/2/6 532/2/6 536/2/6
f 533/2/6 534/2/6 537/2/6
f 537/2/6 534/2/6 538/2/6
f 539/1/6 540/1/6 541/1/6
f 541/1/6 540/1/6 542/1/6
f 543/2/6 544/2/6 549/2/6
f 544/1/6 545/1/6 550/1/6
f 549/2/6 544/2/6 550/2/6
f 550/1/6 545/1/6 551/1/6
f 546/1/6 547/1/6 552/1/6
f 547/2/6 548/2/6 553/2/6
f 552/1/6 547/1/6 553/1/6
f 553/2/6 548/2/6 554/2/6
