# MagicaVoxel @ Ephtracy

# group
o 

# material
mtllib dust.mtl
usemtl palette

# normals
vn -1 0 0
vn 1 0 0
vn 0 0 1
vn 0 0 -1
vn 0 -1 0
vn 0 1 0

# texcoords
vt 0.974609 0.5
vt 0.978516 0.5
vt 0.982422 0.5
vt 0.986328 0.5

# verts
v -0.4 0 0
v -0.4 0 -0.1
v -0.4 0.1 0
v -0.4 0.1 -0.1
v -0.4 0.1 -0.2
v -0.4 0.1 -0.3
v -0.4 0.2 0.1
v -0.4 0.2 0
v -0.4 0.2 -0.1
v -0.4 0.2 -0.2
v -0.4 0.2 -0.3
v -0.4 0.3 0.1
v -0.4 0.3 0
v -0.4 0.3 -0.1
v -0.4 0.3 -0.2
v -0.4 0.4 0
v -0.4 0.4 -0.2
v -0.3 0 -0.1
v -0.3 0 -0.2
v -0.3 0.1 0.1
v -0.3 0.1 0
v -0.3 0.1 -0.1
v -0.3 0.1 -0.2
v -0.3 0.2 0.1
v -0.3 0.2 0
v -0.3 0.2 -0.1
v -0.3 0.2 -0.2
v -0.3 0.3 -0.1
v -0.3 0.3 -0.2
v -0.2 0 0
v -0.2 0 -0.1
v -0.2 0.1 0
v -0.2 0.1 -0.1
v -0.2 0.1 -0.2
v -0.2 0.1 -0.3
v -0.2 0.2 0.1
v -0.2 0.2 0
v -0.2 0.2 -0.1
v -0.2 0.2 -0.2
v -0.2 0.2 -0.3
v -0.2 0.3 0.1
v -0.2 0.3 0
v -0.2 0.3 -0.1
v -0.2 0.3 -0.2
v -0.2 0.3 -0.3
v -0.2 0.4 -0.1
v -0.2 0.4 -0.2
v -0.1 0.3 0
v -0.1 0.3 -0.1
v -0.1 0.4 0
v -0.1 0.4 -0.1
v 0 0.1 0
v 0 0.1 -0.1
v 0 0.2 0
v 0 0.2 -0.1
v 0 0.2 -0.2
v 0 0.3 -0.1
v 0 0.3 -0.2
v 0.1 0.3 -0.1
v 0.1 0.3 -0.2
v 0.1 0.4 -0.1
v 0.1 0.4 -0.2
v 0.2 0 -0.1
v 0.2 0 -0.2
v 0.2 0.1 -0.1
v 0.2 0.1 -0.2
v -0.3 0 0
v -0.3 0 -0.1
v -0.3 0.1 0
v -0.3 0.1 -0.1
v -0.3 0.1 -0.2
v -0.3 0.1 -0.3
v -0.3 0.2 0.1
v -0.3 0.2 0
v -0.3 0.2 -0.1
v -0.3 0.2 -0.2
v -0.3 0.2 -0.3
v -0.3 0.3 0.1
v -0.3 0.3 0
v -0.3 0.3 -0.1
v -0.3 0.3 -0.2
v -0.3 0.4 -0.1
v -0.3 0.4 -0.2
v -0.2 0.3 0
v -0.2 0.3 -0.1
v -0.2 0.4 0
v -0.2 0.4 -0.1
v -0.1 0 0
v -0.1 0 -0.1
v -0.1 0 -0.2
v -0.1 0.1 0.1
v -0.1 0.1 0
v -0.1 0.1 -0.1
v -0.1 0.1 -0.2
v -0.1 0.1 -0.3
v -0.1 0.2 0.1
v -0.1 0.2 0
v -0.1 0.2 -0.1
v -0.1 0.2 -0.2
v -0.1 0.2 -0.3
v -0.1 0.3 -0.1
v -0.1 0.3 -0.2
v -0.1 0.3 -0.3
v 0 0.2 0.1
v 0 0.2 0
v 0 0.3 0.1
v 0 0.3 0
v 0 0.3 -0.1
v 0 0.3 -0.2
v 0 0.4 0
v 0 0.4 -0.1
v 0 0.4 -0.2
v 0.1 0.1 0
v 0.1 0.1 -0.1
v 0.1 0.1 -0.2
v 0.1 0.3 0
v 0.1 0.3 -0.1
v 0.1 0.3 -0.2
v 0.2 0.3 -0.1
v 0.2 0.3 -0.2
v 0.2 0.4 -0.1
v 0.2 0.4 -0.2
v 0.3 0 -0.1
v 0.3 0 -0.2
v 0.3 0.1 -0.1
v 0.3 0.1 -0.2
v -0.4 0.2 0.1
v -0.4 0.3 0.1
v -0.3 0.1 0.1
v -0.3 0.2 0.1
v -0.3 0.3 0.1
v -0.2 0.2 0.1
v -0.2 0.3 0.1
v -0.1 0.1 0.1
v -0.1 0.2 0.1
v -0.1 0.3 0.1
v 0 0.2 0.1
v 0 0.3 0.1
v -0.4 0 0
v -0.4 0.1 0
v -0.4 0.2 0
v -0.4 0.3 0
v -0.4 0.4 0
v -0.3 0 0
v -0.3 0.1 0
v -0.3 0.2 0
v -0.3 0.3 0
v -0.3 0.4 0
v -0.2 0 0
v -0.2 0.1 0
v -0.2 0.3 0
v -0.2 0.4 0
v -0.1 0 0
v -0.1 0.1 0
v -0.1 0.3 0
v -0.1 0.4 0
v 0 0.1 0
v 0 0.2 0
v 0 0.3 0
v 0 0.4 0
v 0.1 0.1 0
v 0.1 0.3 0
v -0.3 0 -0.1
v -0.3 0.1 -0.1
v -0.3 0.2 -0.1
v -0.3 0.3 -0.1
v -0.2 0 -0.1
v -0.2 0.1 -0.1
v -0.2 0.2 -0.1
v -0.2 0.3 -0.1
v -0.2 0.4 -0.1
v -0.1 0.1 -0.1
v -0.1 0.2 -0.1
v -0.1 0.3 -0.1
v -0.1 0.4 -0.1
v 0 0.1 -0.1
v 0 0.2 -0.1
v 0.1 0.3 -0.1
v 0.1 0.4 -0.1
v 0.2 0 -0.1
v 0.2 0.1 -0.1
v 0.2 0.3 -0.1
v 0.2 0.4 -0.1
v 0.3 0 -0.1
v 0.3 0.1 -0.1
v -0.4 0 -0.1
v -0.4 0.1 -0.1
v -0.4 0.2 -0.1
v -0.4 0.3 -0.1
v -0.3 0 -0.1
v -0.3 0.1 -0.1
v -0.3 0.2 -0.1
v -0.3 0.3 -0.1
v -0.3 0.4 -0.1
v -0.2 0.1 -0.1
v -0.2 0.2 -0.1
v -0.2 0.3 -0.1
v -0.2 0.4 -0.1
v -0.1 0.2 -0.1
v -0.1 0.3 -0.1
v 0 0.2 -0.1
v 0 0.3 -0.1
v -0.4 0.3 -0.2
v -0.4 0.4 -0.2
v -0.3 0 -0.2
v -0.3 0.1 -0.2
v -0.3 0.2 -0.2
v -0.3 0.3 -0.2
v -0.3 0.4 -0.2
v -0.2 0 -0.2
v -0.2 0.1 -0.2
v -0.2 0.2 -0.2
v -0.2 0.3 -0.2
v -0.2 0.4 -0.2
v -0.1 0 -0.2
v -0.1 0.1 -0.2
v -0.1 0.2 -0.2
v -0.1 0.3 -0.2
v -0.1 0.4 -0.2
v 0 0.2 -0.2
v 0 0.3 -0.2
v 0 0.4 -0.2
v 0.1 0.1 -0.2
v 0.1 0.3 -0.2
v 0.1 0.4 -0.2
v 0.2 0 -0.2
v 0.2 0.1 -0.2
v 0.2 0.3 -0.2
v 0.2 0.4 -0.2
v 0.3 0 -0.2
v 0.3 0.1 -0.2
v -0.4 0.1 -0.3
v -0.4 0.2 -0.3
v -0.3 0.1 -0.3
v -0.3 0.2 -0.3
v -0.2 0.1 -0.3
v -0.2 0.2 -0.3
v -0.2 0.3 -0.3
v -0.1 0.1 -0.3
v -0.1 0.2 -0.3
v -0.1 0.3 -0.3
v -0.4 0 0
v -0.3 0 0
v -0.2 0 0
v -0.1 0 0
v -0.4 0 -0.1
v -0.3 0 -0.1
v -0.2 0 -0.1
v -0.1 0 -0.1
v 0.2 0 -0.1
v 0.3 0 -0.1
v -0.3 0 -0.2
v -0.2 0 -0.2
v -0.1 0 -0.2
v 0.2 0 -0.2
v 0.3 0 -0.2
v -0.3 0.1 0.1
v -0.1 0.1 0.1
v -0.3 0.1 0
v -0.2 0.1 0
v -0.1 0.1 0
v 0 0.1 0
v 0.1 0.1 0
v -0.4 0.1 -0.1
v -0.3 0.1 -0.1
v -0.2 0.1 -0.1
v -0.1 0.1 -0.1
v 0 0.1 -0.1
v 0.1 0.1 -0.1
v -0.4 0.1 -0.2
v -0.3 0.1 -0.2
v -0.2 0.1 -0.2
v -0.1 0.1 -0.2
v 0.1 0.1 -0.2
v -0.4 0.1 -0.3
v -0.3 0.1 -0.3
v -0.2 0.1 -0.3
v -0.1 0.1 -0.3
v -0.4 0.2 0.1
v -0.3 0.2 0.1
v -0.1 0.2 0.1
v 0 0.2 0.1
v -0.4 0.2 0
v -0.3 0.2 0
v -0.1 0.2 0
v 0 0.2 0
v -0.3 0.2 -0.1
v -0.2 0.2 -0.1
v -0.1 0.2 -0.1
v 0 0.2 -0.1
v -0.3 0.2 -0.2
v -0.2 0.2 -0.2
v -0.3 0.3 0
v -0.2 0.3 0
v -0.4 0.3 -0.1
v -0.3 0.3 -0.1
v -0.2 0.3 -0.1
v -0.1 0.3 -0.1
v 0 0.3 -0.1
v 0.1 0.3 -0.1
v 0.2 0.3 -0.1
v -0.4 0.3 -0.2
v -0.3 0.3 -0.2
v -0.1 0.3 -0.2
v 0 0.3 -0.2
v 0.1 0.3 -0.2
v 0.2 0.3 -0.2
v -0.3 0.1 -0.1
v -0.2 0.1 -0.1
v 0.2 0.1 -0.1
v 0.3 0.1 -0.1
v -0.3 0.1 -0.2
v -0.2 0.1 -0.2
v 0.2 0.1 -0.2
v 0.3 0.1 -0.2
v -0.3 0.2 0.1
v -0.2 0.2 0.1
v -0.3 0.2 0
v -0.2 0.2 0
v -0.4 0.2 -0.1
v -0.3 0.2 -0.1
v -0.2 0.2 -0.1
v -0.1 0.2 -0.1
v 0 0.2 -0.1
v -0.4 0.2 -0.2
v -0.3 0.2 -0.2
v -0.1 0.2 -0.2
v 0 0.2 -0.2
v -0.4 0.2 -0.3
v -0.3 0.2 -0.3
v -0.4 0.3 0.1
v -0.3 0.3 0.1
v -0.2 0.3 0.1
v -0.1 0.3 0.1
v 0 0.3 0.1
v -0.4 0.3 0
v -0.3 0.3 0
v -0.2 0.3 0
v -0.1 0.3 0
v 0 0.3 0
v 0.1 0.3 0
v -0.3 0.3 -0.1
v -0.2 0.3 -0.1
v -0.1 0.3 -0.1
v 0 0.3 -0.1
v 0.1 0.3 -0.1
v -0.3 0.3 -0.2
v -0.2 0.3 -0.2
v -0.1 0.3 -0.2
v 0 0.3 -0.2
v 0.1 0.3 -0.2
v -0.2 0.3 -0.3
v -0.1 0.3 -0.3
v -0.4 0.4 0
v -0.3 0.4 0
v -0.2 0.4 0
v -0.1 0.4 0
v 0 0.4 0
v -0.3 0.4 -0.1
v -0.2 0.4 -0.1
v -0.1 0.4 -0.1
v 0 0.4 -0.1
v 0.1 0.4 -0.1
v 0.2 0.4 -0.1
v -0.4 0.4 -0.2
v -0.3 0.4 -0.2
v -0.2 0.4 -0.2
v -0.1 0.4 -0.2
v 0 0.4 -0.2
v 0.1 0.4 -0.2
v 0.2 0.4 -0.2

# faces
f 3/2/1 2/2/1 1/2/1
f 4/2/1 2/2/1 3/2/1
f 8/3/1 4/3/1 3/3/1
f 9/4/1 5/4/1 4/4/1
f 9/3/1 4/3/1 8/3/1
f 10/2/1 6/2/1 5/2/1
f 10/4/1 5/4/1 9/4/1
f 11/2/1 6/2/1 10/2/1
f 12/3/1 8/3/1 7/3/1
f 13/4/1 9/4/1 8/4/1
f 13/3/1 8/3/1 12/3/1
f 14/4/1 9/4/1 13/4/1
f 16/2/1 15/2/1 14/2/1
f 16/2/1 14/2/1 13/2/1
f 17/2/1 15/2/1 16/2/1
f 22/4/1 19/4/1 18/4/1
f 23/4/1 19/4/1 22/4/1
f 24/3/1 21/3/1 20/3/1
f 25/3/1 21/3/1 24/3/1
f 28/2/1 27/2/1 26/2/1
f 29/2/1 27/2/1 28/2/1
f 32/2/1 31/2/1 30/2/1
f 33/2/1 31/2/1 32/2/1
f 38/4/1 34/4/1 33/4/1
f 39/1/1 35/1/1 34/1/1
f 39/4/1 34/4/1 38/4/1
f 40/1/1 35/1/1 39/1/1
f 41/2/1 37/2/1 36/2/1
f 42/4/1 38/4/1 37/4/1
f 42/2/1 37/2/1 41/2/1
f 43/4/1 38/4/1 42/4/1
f 44/3/1 40/3/1 39/3/1
f 45/3/1 40/3/1 44/3/1
f 46/1/1 44/1/1 43/1/1
f 47/1/1 44/1/1 46/1/1
f 50/2/1 49/2/1 48/2/1
f 51/2/1 49/2/1 50/2/1
f 54/2/1 53/2/1 52/2/1
f 55/2/1 53/2/1 54/2/1
f 57/3/1 56/3/1 55/3/1
f 58/3/1 56/3/1 57/3/1
f 61/3/1 60/3/1 59/3/1
f 62/3/1 60/3/1 61/3/1
f 65/3/1 64/3/1 63/3/1
f 66/3/1 64/3/1 65/3/1
f 67/2/2 68/2/2 69/2/2
f 69/2/2 68/2/2 70/2/2
f 70/4/2 71/4/2 75/4/2
f 71/2/2 72/2/2 76/2/2
f 75/4/2 71/4/2 76/4/2
f 76/2/2 72/2/2 77/2/2
f 73/3/2 74/3/2 78/3/2
f 74/4/2 75/4/2 79/4/2
f 78/3/2 74/3/2 79/3/2
f 79/4/2 75/4/2 80/4/2
f 80/2/2 81/2/2 82/2/2
f 82/2/2 81/2/2 83/2/2
f 84/3/2 85/3/2 86/3/2
f 86/3/2 85/3/2 87/3/2
f 88/2/2 89/2/2 92/2/2
f 89/3/2 90/3/2 93/3/2
f 92/2/2 89/2/2 93/2/2
f 93/3/2 90/3/2 94/3/2
f 91/3/2 92/3/2 96/3/2
f 92/3/2 93/3/2 96/3/2
f 96/3/2 93/3/2 97/3/2
f 97/3/2 93/3/2 98/3/2
f 94/1/2 95/1/2 99/1/2
f 99/1/2 95/1/2 100/1/2
f 98/4/2 99/4/2 101/4/2
f 99/3/2 100/3/2 102/3/2
f 101/4/2 99/4/2 102/4/2
f 102/3/2 100/3/2 103/3/2
f 104/3/2 105/3/2 106/3/2
f 106/3/2 105/3/2 107/3/2
f 107/2/2 108/2/2 110/2/2
f 108/3/2 109/3/2 111/3/2
f 110/2/2 108/2/2 111/2/2
f 111/3/2 109/3/2 112/3/2
f 113/2/2 114/2/2 116/2/2
f 114/3/2 115/3/2 117/3/2
f 116/2/2 114/2/2 117/2/2
f 117/3/2 115/3/2 118/3/2
f 119/3/2 120/3/2 121/3/2
f 121/3/2 120/3/2 122/3/2
f 123/3/2 124/3/2 125/3/2
f 125/3/2 124/3/2 126/3/2
f 130/3/3 128/3/3 127/3/3
f 131/3/3 128/3/3 130/3/3
f 132/3/3 130/3/3 129/3/3
f 134/3/3 132/3/3 129/3/3
f 135/2/3 133/2/3 132/2/3
f 135/3/3 132/3/3 134/3/3
f 136/2/3 133/2/3 135/2/3
f 137/3/3 136/3/3 135/3/3
f 138/3/3 136/3/3 137/3/3
f 144/2/3 140/2/3 139/2/3
f 145/3/3 141/3/3 140/3/3
f 145/2/3 140/2/3 144/2/3
f 146/3/3 141/3/3 145/3/3
f 147/2/3 143/2/3 142/2/3
f 148/2/3 143/2/3 147/2/3
f 151/3/3 148/3/3 147/3/3
f 152/3/3 148/3/3 151/3/3
f 153/2/3 150/2/3 149/2/3
f 154/2/3 150/2/3 153/2/3
f 159/2/3 156/2/3 155/2/3
f 160/2/3 156/2/3 159/2/3
f 161/2/3 158/2/3 157/2/3
f 161/2/3 159/2/3 158/2/3
f 162/2/3 159/2/3 161/2/3
f 167/4/3 164/4/3 163/4/3
f 168/4/3 164/4/3 167/4/3
f 169/2/3 166/2/3 165/2/3
f 170/2/3 166/2/3 169/2/3
f 174/1/3 171/1/3 170/1/3
f 175/1/3 171/1/3 174/1/3
f 176/3/3 173/3/3 172/3/3
f 177/3/3 173/3/3 176/3/3
f 182/3/3 179/3/3 178/3/3
f 183/3/3 179/3/3 182/3/3
f 184/3/3 181/3/3 180/3/3
f 185/3/3 181/3/3 184/3/3
f 186/2/4 187/2/4 190/2/4
f 190/2/4 187/2/4 191/2/4
f 188/4/4 189/4/4 192/4/4
f 192/4/4 189/4/4 193/4/4
f 191/4/4 192/4/4 195/4/4
f 195/4/4 192/4/4 196/4/4
f 193/3/4 194/3/4 197/3/4
f 197/3/4 194/3/4 198/3/4
f 199/1/4 200/1/4 201/1/4
f 201/1/4 200/1/4 202/1/4
f 203/2/4 204/2/4 208/2/4
f 208/2/4 204/2/4 209/2/4
f 205/4/4 206/4/4 210/4/4
f 210/4/4 206/4/4 211/4/4
f 207/2/4 208/2/4 212/2/4
f 212/2/4 208/2/4 213/2/4
f 210/3/4 211/3/4 215/3/4
f 215/3/4 211/3/4 216/3/4
f 213/1/4 214/1/4 218/1/4
f 218/1/4 214/1/4 219/1/4
f 216/3/4 217/3/4 220/3/4
f 218/3/4 219/3/4 221/3/4
f 221/3/4 219/3/4 222/3/4
f 216/3/4 220/3/4 223/3/4
f 220/3/4 221/3/4 223/3/4
f 223/3/4 221/3/4 224/3/4
f 224/3/4 225/3/4 228/3/4
f 228/3/4 225/3/4 229/3/4
f 226/3/4 227/3/4 230/3/4
f 230/3/4 227/3/4 231/3/4
f 232/2/4 233/2/4 234/2/4
f 234/2/4 233/2/4 235/2/4
f 236/1/4 237/1/4 239/1/4
f 237/3/4 238/3/4 240/3/4
f 239/1/4 237/1/4 240/1/4
f 240/3/4 238/3/4 241/3/4
f 246/2/5 243/2/5 242/2/5
f 247/2/5 243/2/5 246/2/5
f 248/2/5 245/2/5 244/2/5
f 249/2/5 245/2/5 248/2/5
f 252/4/5 248/4/5 247/4/5
f 253/3/5 249/3/5 248/3/5
f 253/4/5 248/4/5 252/4/5
f 254/3/5 249/3/5 253/3/5
f 255/3/5 251/3/5 250/3/5
f 256/3/5 251/3/5 255/3/5
f 259/3/5 258/3/5 257/3/5
f 260/3/5 258/3/5 259/3/5
f 261/3/5 258/3/5 260/3/5
f 265/4/5 260/4/5 259/4/5
f 266/4/5 260/4/5 265/4/5
f 268/2/5 263/2/5 262/2/5
f 269/2/5 263/2/5 268/2/5
f 270/4/5 265/4/5 264/4/5
f 271/4/5 265/4/5 270/4/5
f 273/3/5 269/3/5 268/3/5
f 273/3/5 268/3/5 267/3/5
f 274/3/5 269/3/5 273/3/5
f 275/2/5 271/2/5 270/2/5
f 276/2/5 271/2/5 275/2/5
f 277/1/5 273/1/5 272/1/5
f 278/1/5 273/1/5 277/1/5
f 283/3/5 280/3/5 279/3/5
f 284/3/5 280/3/5 283/3/5
f 285/3/5 282/3/5 281/3/5
f 286/3/5 282/3/5 285/3/5
f 289/1/5 286/1/5 285/1/5
f 290/1/5 286/1/5 289/1/5
f 291/2/5 288/2/5 287/2/5
f 292/2/5 288/2/5 291/2/5
f 296/3/5 294/3/5 293/3/5
f 297/3/5 294/3/5 296/3/5
f 302/2/5 296/2/5 295/2/5
f 303/2/5 296/2/5 302/2/5
f 304/3/5 299/3/5 298/3/5
f 305/3/5 299/3/5 304/3/5
f 306/3/5 301/3/5 300/3/5
f 307/3/5 301/3/5 306/3/5
f 308/4/6 309/4/6 312/4/6
f 312/4/6 309/4/6 313/4/6
f 310/3/6 311/3/6 314/3/6
f 314/3/6 311/3/6 315/3/6
f 316/3/6 317/3/6 318/3/6
f 318/3/6 317/3/6 319/3/6
f 318/4/6 319/4/6 321/4/6
f 321/4/6 319/4/6 322/4/6
f 320/4/6 321/4/6 325/4/6
f 325/4/6 321/4/6 326/4/6
f 323/3/6 324/3/6 327/3/6
f 327/3/6 324/3/6 328/3/6
f 325/2/6 326/2/6 329/2/6
f 329/2/6 326/2/6 330/2/6
f 331/3/6 332/3/6 336/3/6
f 336/3/6 332/3/6 337/3/6
f 333/2/6 334/2/6 338/2/6
f 334/3/6 335/3/6 339/3/6
f 338/2/6 334/2/6 339/2/6
f 339/3/6 335/3/6 340/3/6
f 338/4/6 339/4/6 343/4/6
f 343/4/6 339/4/6 344/4/6
f 340/2/6 341/2/6 345/2/6
f 345/2/6 341/2/6 346/2/6
f 342/2/6 343/2/6 347/2/6
f 347/2/6 343/2/6 348/2/6
f 345/3/6 346/3/6 350/3/6
f 350/3/6 346/3/6 351/3/6
f 348/3/6 349/3/6 352/3/6
f 352/3/6 349/3/6 353/3/6
f 354/2/6 355/2/6 359/2/6
f 355/3/6 356/3/6 359/3/6
f 359/3/6 356/3/6 360/3/6
f 357/2/6 358/2/6 361/2/6
f 361/2/6 358/2/6 362/2/6
f 354/2/6 359/2/6 365/2/6
f 365/2/6 359/2/6 366/2/6
f 360/1/6 361/1/6 367/1/6
f 361/3/6 362/3/6 368/3/6
f 367/1/6 361/1/6 368/1/6
f 368/3/6 362/3/6 369/3/6
f 363/3/6 364/3/6 370/3/6
f 370/3/6 364/3/6 371/3/6
