# MagicaVoxel @ Ephtracy

# group
o 

# material
mtllib jeans.mtl
usemtl palette

# normals
vn -1 0 0
vn 1 0 0
vn 0 0 1
vn 0 0 -1
vn 0 -1 0
vn 0 1 0

# texcoords
vt 0.396484 0.5
vt 0.595703 0.5
vt 0.611328 0.5
vt 0.681641 0.5

# verts
v -1.3 0 0.2
v -1.3 0 -0.1
v -1.3 1.2 0.2
v -1.3 1.2 -0.1
v -1.2 1.2 0.2
v -1.2 1.2 -0.1
v -1.2 1.9 0.2
v -1.2 1.9 -0.1
v -1.1 1.9 0.2
v -1.1 1.9 -0.1
v -1.1 2.8 0.2
v -1.1 2.8 -0.1
v -1 2.8 0.2
v -1 2.8 -0.1
v -1 3.6 0.2
v -1 3.6 -0.1
v -0.9 3.6 0.2
v -0.9 3.6 -0.1
v -0.9 4.2 0.2
v -0.9 4.2 -0.1
v -0.8 4.2 0.2
v -0.8 4.2 -0.1
v -0.8 5 0.2
v -0.8 5 -0.1
v -1.19209e-07 1.8 0.2
v -1.19209e-07 1.8 0
v -1.19209e-07 1.8 -0.1
v -1.19209e-07 2.4 0.2
v -1.19209e-07 2.4 0
v -1.19209e-07 2.4 -0.1
v 0.0999999 0.9 0.2
v 0.0999999 0.9 -0.1
v 0.0999999 1.7 0.2
v 0.0999999 1.7 0.1
v 0.0999999 1.8 0.2
v 0.0999999 1.8 0.1
v 0.0999999 1.8 0
v 0.0999999 1.8 -0.1
v 0.2 0 0.2
v 0.2 0 -0.1
v 0.2 0.9 0.2
v 0.2 0.9 -0.1
v -0.3 0 0.2
v -0.3 0 -0.1
v -0.3 0.8 0.2
v -0.3 0.8 -0.1
v -0.3 0.9 0.2
v -0.3 0.9 -0.1
v -0.2 0.9 0.2
v -0.2 0.9 -0.1
v -0.2 1.7 0.2
v -0.2 1.7 0
v -0.2 1.8 0.2
v -0.2 1.8 0
v -0.2 1.8 -0.1
v -0.1 1.8 0.2
v -0.1 1.8 0
v -0.1 1.8 -0.1
v -0.1 2.4 0.2
v -0.1 2.4 0
v -0.1 2.4 -0.1
v 0.7 4.2 0.2
v 0.7 4.2 -0.1
v 0.7 5 0.2
v 0.7 5 -0.1
v 0.8 3.6 0.2
v 0.8 3.6 -0.1
v 0.8 3.7 0.2
v 0.8 3.7 -0.1
v 0.8 3.9 0.2
v 0.8 3.9 -0.1
v 0.8 4.2 0.2
v 0.8 4.2 -0.1
v 0.9 2.8 0.2
v 0.9 2.8 -0.1
v 0.9 3.6 0.2
v 0.9 3.6 -0.1
v 1 1.9 0.2
v 1 1.9 -0.1
v 1 2.8 0.2
v 1 2.8 -0.1
v 1.1 1.2 0.2
v 1.1 1.2 -0.1
v 1.1 1.9 0.2
v 1.1 1.9 -0.1
v 1.2 0 0.2
v 1.2 0 -0.1
v 1.2 1.2 0.2
v 1.2 1.2 -0.1
v -1.3 0 0.2
v -1.3 1.2 0.2
v -1.2 0 0.2
v -1.2 0.9 0.2
v -1.2 1.2 0.2
v -1.2 1.9 0.2
v -1.1 1.9 0.2
v -1.1 2.8 0.2
v -1 0.8 0.2
v -1 0.9 0.2
v -1 2.8 0.2
v -1 3.6 0.2
v -0.9 1.7 0.2
v -0.9 3.5 0.2
v -0.9 3.6 0.2
v -0.9 4.2 0.2
v -0.8 3.9 0.2
v -0.8 4.2 0.2
v -0.8 5 0.2
v -0.7 4.6 0.2
v -0.7 4.7 0.2
v -0.3 0 0.2
v -0.3 0.8 0.2
v -0.3 0.9 0.2
v -0.3 4.7 0.2
v -0.3 4.8 0.2
v -0.2 0.9 0.2
v -0.2 1.7 0.2
v -0.2 1.8 0.2
v -0.2 4.8 0.2
v -0.2 5 0.2
v -0.1 1.8 0.2
v -0.1 2.4 0.2
v -0.1 3.5 0.2
v -1.19209e-07 1.8 0.2
v -1.19209e-07 2.4 0.2
v -1.19209e-07 3.7 0.2
v -1.19209e-07 4.6 0.2
v -1.19209e-07 4.8 0.2
v -1.19209e-07 5 0.2
v 0.0999999 0.9 0.2
v 0.0999999 1.7 0.2
v 0.0999999 1.8 0.2
v 0.2 0 0.2
v 0.2 0.9 0.2
v 0.7 4.2 0.2
v 0.7 5 0.2
v 0.8 1.7 0.2
v 0.8 3.6 0.2
v 0.8 3.7 0.2
v 0.8 3.9 0.2
v 0.8 4.2 0.2
v 0.9 2.8 0.2
v 0.9 3.6 0.2
v 1 1.9 0.2
v 1 2.8 0.2
v 1.1 1.2 0.2
v 1.1 1.9 0.2
v 1.2 0 0.2
v 1.2 1.2 0.2
v -1.3 0 -0.1
v -1.3 1.2 -0.1
v -1.2 0 -0.1
v -1.2 0.9 -0.1
v -1.2 1.2 -0.1
v -1.2 1.9 -0.1
v -1.1 1.9 -0.1
v -1.1 2.8 -0.1
v -1 0.8 -0.1
v -1 0.9 -0.1
v -1 2.8 -0.1
v -1 3.6 -0.1
v -0.9 2.5 -0.1
v -0.9 3.5 -0.1
v -0.9 3.6 -0.1
v -0.9 4.2 -0.1
v -0.8 3.9 -0.1
v -0.8 4.2 -0.1
v -0.8 5 -0.1
v -0.7 4.6 -0.1
v -0.7 4.7 -0.1
v -0.3 0 -0.1
v -0.3 0.8 -0.1
v -0.3 0.9 -0.1
v -0.3 4.7 -0.1
v -0.3 4.8 -0.1
v -0.2 0.9 -0.1
v -0.2 1.8 -0.1
v -0.2 4.8 -0.1
v -0.2 5 -0.1
v -0.1 1.8 -0.1
v -0.1 2.4 -0.1
v -0.1 2.5 -0.1
v -0.1 3.5 -0.1
v -1.19209e-07 1.8 -0.1
v -1.19209e-07 2.4 -0.1
v -1.19209e-07 3.7 -0.1
v -1.19209e-07 4.6 -0.1
v -1.19209e-07 4.8 -0.1
v -1.19209e-07 5 -0.1
v 0.0999999 0.9 -0.1
v 0.0999999 1.8 -0.1
v 0.2 0 -0.1
v 0.2 0.9 -0.1
v 0.7 4.2 -0.1
v 0.7 5 -0.1
v 0.8 2.4 -0.1
v 0.8 3.6 -0.1
v 0.8 3.7 -0.1
v 0.8 3.9 -0.1
v 0.8 4.2 -0.1
v 0.9 2.8 -0.1
v 0.9 3.6 -0.1
v 1 1.9 -0.1
v 1 2.8 -0.1
v 1.1 1.2 -0.1
v 1.1 1.9 -0.1
v 1.2 0 -0.1
v 1.2 1.2 -0.1
v -1.3 0 0.2
v -1.2 0 0.2
v -0.3 0 0.2
v 0.2 0 0.2
v 1.2 0 0.2
v -1.3 0 -0.1
v -1.2 0 -0.1
v -0.3 0 -0.1
v 0.2 0 -0.1
v 1.2 0 -0.1
v -0.3 0.9 0.2
v -0.2 0.9 0.2
v 0.0999999 0.9 0.2
v 0.2 0.9 0.2
v -0.3 0.9 -0.1
v -0.2 0.9 -0.1
v 0.0999999 0.9 -0.1
v 0.2 0.9 -0.1
v -0.2 1.8 0.2
v -0.1 1.8 0.2
v -1.19209e-07 1.8 0.2
v 0.0999999 1.8 0.2
v 0.0999999 1.8 0.1
v -0.2 1.8 0
v -0.1 1.8 0
v -1.19209e-07 1.8 0
v 0.0999999 1.8 0
v -0.2 1.8 -0.1
v -0.1 1.8 -0.1
v -1.19209e-07 1.8 -0.1
v 0.0999999 1.8 -0.1
v -0.1 2.4 0.2
v -1.19209e-07 2.4 0.2
v -0.1 2.4 0
v -1.19209e-07 2.4 0
v -0.1 2.4 -0.1
v -1.19209e-07 2.4 -0.1
v -1.3 1.2 0.2
v -1.2 1.2 0.2
v 1.1 1.2 0.2
v 1.2 1.2 0.2
v -1.3 1.2 -0.1
v -1.2 1.2 -0.1
v 1.1 1.2 -0.1
v 1.2 1.2 -0.1
v -1.2 1.9 0.2
v -1.1 1.9 0.2
v 1 1.9 0.2
v 1.1 1.9 0.2
v -1.2 1.9 -0.1
v -1.1 1.9 -0.1
v 1 1.9 -0.1
v 1.1 1.9 -0.1
v -1.1 2.8 0.2
v -1 2.8 0.2
v 0.9 2.8 0.2
v 1 2.8 0.2
v -1.1 2.8 -0.1
v -1 2.8 -0.1
v 0.9 2.8 -0.1
v 1 2.8 -0.1
v -1 3.6 0.2
v -0.9 3.6 0.2
v 0.8 3.6 0.2
v 0.9 3.6 0.2
v -1 3.6 -0.1
v -0.9 3.6 -0.1
v 0.8 3.6 -0.1
v 0.9 3.6 -0.1
v -0.9 4.2 0.2
v -0.8 4.2 0.2
v 0.7 4.2 0.2
v 0.8 4.2 0.2
v -0.9 4.2 -0.1
v -0.8 4.2 -0.1
v 0.7 4.2 -0.1
v 0.8 4.2 -0.1
v -0.8 5 0.2
v -0.2 5 0.2
v -1.19209e-07 5 0.2
v 0.7 5 0.2
v -0.8 5 -0.1
v -0.2 5 -0.1
v -1.19209e-07 5 -0.1
v 0.7 5 -0.1

# faces
f 3/3/1 2/3/1 1/3/1
f 4/3/1 2/3/1 3/3/1
f 7/3/1 6/3/1 5/3/1
f 8/3/1 6/3/1 7/3/1
f 11/3/1 10/3/1 9/3/1
f 12/3/1 10/3/1 11/3/1
f 15/3/1 14/3/1 13/3/1
f 16/3/1 14/3/1 15/3/1
f 19/3/1 18/3/1 17/3/1
f 20/3/1 18/3/1 19/3/1
f 23/3/1 22/3/1 21/3/1
f 24/3/1 22/3/1 23/3/1
f 28/2/1 26/2/1 25/2/1
f 29/3/1 27/3/1 26/3/1
f 29/2/1 26/2/1 28/2/1
f 30/3/1 27/3/1 29/3/1
f 33/3/1 32/3/1 31/3/1
f 34/3/1 32/3/1 33/3/1
f 35/2/1 34/2/1 33/2/1
f 36/3/1 32/3/1 34/3/1
f 36/2/1 34/2/1 35/2/1
f 37/3/1 32/3/1 36/3/1
f 38/3/1 32/3/1 37/3/1
f 41/3/1 40/3/1 39/3/1
f 42/3/1 40/3/1 41/3/1
f 43/4/2 44/4/2 45/4/2
f 45/4/2 44/4/2 46/4/2
f 45/3/2 46/3/2 47/3/2
f 47/3/2 46/3/2 48/3/2
f 49/3/2 50/3/2 51/3/2
f 51/3/2 50/3/2 52/3/2
f 51/2/2 52/2/2 53/2/2
f 52/3/2 50/3/2 54/3/2
f 53/2/2 52/2/2 54/2/2
f 54/3/2 50/3/2 55/3/2
f 56/2/2 57/2/2 59/2/2
f 57/3/2 58/3/2 60/3/2
f 59/2/2 57/2/2 60/2/2
f 60/3/2 58/3/2 61/3/2
f 62/3/2 63/3/2 64/3/2
f 64/3/2 63/3/2 65/3/2
f 66/2/2 67/2/2 68/2/2
f 68/2/2 67/2/2 69/2/2
f 68/3/2 69/3/2 70/3/2
f 70/3/2 69/3/2 71/3/2
f 70/2/2 71/2/2 72/2/2
f 72/2/2 71/2/2 73/2/2
f 74/3/2 75/3/2 76/3/2
f 76/3/2 75/3/2 77/3/2
f 78/3/2 79/3/2 80/3/2
f 80/3/2 79/3/2 81/3/2
f 82/3/2 83/3/2 84/3/2
f 84/3/2 83/3/2 85/3/2
f 86/3/2 87/3/2 88/3/2
f 88/3/2 87/3/2 89/3/2
f 92/3/3 91/3/3 90/3/3
f 93/3/3 91/3/3 92/3/3
f 94/3/3 91/3/3 93/3/3
f 96/3/3 94/3/3 93/3/3
f 96/3/3 95/3/3 94/3/3
f 98/4/3 93/4/3 92/4/3
f 99/3/3 97/3/3 96/3/3
f 99/4/3 93/4/3 98/4/3
f 99/3/3 96/3/3 93/3/3
f 100/3/3 97/3/3 99/3/3
f 102/3/3 99/3/3 98/3/3
f 102/3/3 101/3/3 100/3/3
f 102/3/3 100/3/3 99/3/3
f 103/3/3 101/3/3 102/3/3
f 104/3/3 101/3/3 103/3/3
f 106/3/3 104/3/3 103/3/3
f 106/3/3 105/3/3 104/3/3
f 107/3/3 105/3/3 106/3/3
f 109/3/3 108/3/3 107/3/3
f 110/3/3 108/3/3 109/3/3
f 111/4/3 98/4/3 92/4/3
f 112/3/3 102/3/3 98/3/3
f 112/4/3 98/4/3 111/4/3
f 113/3/3 102/3/3 112/3/3
f 114/3/3 108/3/3 110/3/3
f 114/4/3 110/4/3 109/4/3
f 115/3/3 108/3/3 114/3/3
f 116/3/3 102/3/3 113/3/3
f 117/2/3 103/2/3 102/2/3
f 117/3/3 102/3/3 116/3/3
f 118/2/3 103/2/3 117/2/3
f 119/3/3 108/3/3 115/3/3
f 119/4/3 115/4/3 114/4/3
f 120/3/3 108/3/3 119/3/3
f 121/2/3 103/2/3 118/2/3
f 122/2/3 103/2/3 121/2/3
f 123/3/3 106/3/3 103/3/3
f 123/2/3 103/2/3 122/2/3
f 125/3/3 123/3/3 122/3/3
f 126/3/3 106/3/3 123/3/3
f 126/3/3 123/3/3 125/3/3
f 127/3/3 109/3/3 107/3/3
f 127/4/3 114/4/3 109/4/3
f 127/4/3 119/4/3 114/4/3
f 128/1/3 120/1/3 119/1/3
f 128/4/3 119/4/3 127/4/3
f 129/1/3 120/1/3 128/1/3
f 132/2/3 125/2/3 124/2/3
f 132/2/3 126/2/3 125/2/3
f 134/3/3 131/3/3 130/3/3
f 135/2/3 107/2/3 106/2/3
f 135/3/3 127/3/3 107/3/3
f 135/3/3 128/3/3 127/3/3
f 135/3/3 129/3/3 128/3/3
f 136/3/3 129/3/3 135/3/3
f 137/2/3 132/2/3 131/2/3
f 137/3/3 134/3/3 133/3/3
f 137/3/3 131/3/3 134/3/3
f 138/2/3 126/2/3 132/2/3
f 138/2/3 132/2/3 137/2/3
f 139/3/3 106/3/3 126/3/3
f 139/2/3 126/2/3 138/2/3
f 140/2/3 135/2/3 106/2/3
f 140/3/3 106/3/3 139/3/3
f 141/2/3 135/2/3 140/2/3
f 142/3/3 138/3/3 137/3/3
f 143/3/3 138/3/3 142/3/3
f 144/3/3 142/3/3 137/3/3
f 145/3/3 142/3/3 144/3/3
f 146/3/3 137/3/3 133/3/3
f 146/3/3 144/3/3 137/3/3
f 147/3/3 144/3/3 146/3/3
f 148/3/3 146/3/3 133/3/3
f 149/3/3 146/3/3 148/3/3
f 150/3/4 151/3/4 152/3/4
f 152/3/4 151/3/4 153/3/4
f 153/3/4 151/3/4 154/3/4
f 153/3/4 154/3/4 156/3/4
f 154/3/4 155/3/4 156/3/4
f 152/4/4 153/4/4 158/4/4
f 156/3/4 157/3/4 159/3/4
f 158/4/4 153/4/4 159/4/4
f 153/3/4 156/3/4 159/3/4
f 159/3/4 157/3/4 160/3/4
f 158/3/4 159/3/4 162/3/4
f 160/3/4 161/3/4 162/3/4
f 159/3/4 160/3/4 162/3/4
f 162/3/4 161/3/4 163/3/4
f 163/3/4 161/3/4 164/3/4
f 163/3/4 164/3/4 166/3/4
f 164/3/4 165/3/4 166/3/4
f 166/3/4 165/3/4 167/3/4
f 167/3/4 168/3/4 169/3/4
f 169/3/4 168/3/4 170/3/4
f 152/4/4 158/4/4 171/4/4
f 158/3/4 162/3/4 172/3/4
f 171/4/4 158/4/4 172/4/4
f 172/3/4 162/3/4 173/3/4
f 170/3/4 168/3/4 174/3/4
f 169/4/4 170/4/4 174/4/4
f 174/3/4 168/3/4 175/3/4
f 173/3/4 162/3/4 176/3/4
f 176/3/4 162/3/4 177/3/4
f 175/3/4 168/3/4 178/3/4
f 174/4/4 175/4/4 178/4/4
f 178/3/4 168/3/4 179/3/4
f 177/3/4 162/3/4 180/3/4
f 180/3/4 162/3/4 181/3/4
f 162/2/4 163/2/4 182/2/4
f 181/3/4 162/3/4 182/3/4
f 163/3/4 166/3/4 183/3/4
f 182/2/4 163/2/4 183/2/4
f 181/3/4 182/3/4 185/3/4
f 182/3/4 183/3/4 185/3/4
f 183/3/4 166/3/4 186/3/4
f 185/3/4 183/3/4 186/3/4
f 167/3/4 169/3/4 187/3/4
f 169/4/4 174/4/4 187/4/4
f 174/4/4 178/4/4 187/4/4
f 178/1/4 179/1/4 188/1/4
f 187/4/4 178/4/4 188/4/4
f 188/1/4 179/1/4 189/1/4
f 184/3/4 185/3/4 191/3/4
f 190/3/4 191/3/4 193/3/4
f 166/2/4 167/2/4 194/2/4
f 167/3/4 187/3/4 194/3/4
f 187/3/4 188/3/4 194/3/4
f 188/3/4 189/3/4 194/3/4
f 194/3/4 189/3/4 195/3/4
f 192/3/4 193/3/4 196/3/4
f 193/3/4 191/3/4 196/3/4
f 185/2/4 186/2/4 196/2/4
f 191/3/4 185/3/4 196/3/4
f 196/2/4 186/2/4 197/2/4
f 186/3/4 166/3/4 198/3/4
f 197/2/4 186/2/4 198/2/4
f 166/2/4 194/2/4 199/2/4
f 198/3/4 166/3/4 199/3/4
f 199/2/4 194/2/4 200/2/4
f 196/3/4 197/3/4 201/3/4
f 201/3/4 197/3/4 202/3/4
f 192/3/4 196/3/4 203/3/4
f 196/3/4 201/3/4 203/3/4
f 203/3/4 201/3/4 204/3/4
f 192/3/4 203/3/4 205/3/4
f 205/3/4 203/3/4 206/3/4
f 192/3/4 205/3/4 207/3/4
f 207/3/4 205/3/4 208/3/4
f 214/3/5 210/3/5 209/3/5
f 215/4/5 211/4/5 210/4/5
f 215/3/5 210/3/5 214/3/5
f 216/4/5 211/4/5 215/4/5
f 217/3/5 213/3/5 212/3/5
f 218/3/5 213/3/5 217/3/5
f 223/3/5 220/3/5 219/3/5
f 224/3/5 220/3/5 223/3/5
f 225/3/5 222/3/5 221/3/5
f 226/3/5 222/3/5 225/3/5
f 231/2/5 230/2/5 229/2/5
f 232/2/5 228/2/5 227/2/5
f 233/2/5 228/2/5 232/2/5
f 234/2/5 231/2/5 229/2/5
f 235/2/5 231/2/5 234/2/5
f 236/3/5 233/3/5 232/3/5
f 237/3/5 233/3/5 236/3/5
f 238/3/5 235/3/5 234/3/5
f 239/3/5 235/3/5 238/3/5
f 242/3/5 241/3/5 240/3/5
f 243/3/5 241/3/5 242/3/5
f 244/3/5 243/3/5 242/3/5
f 245/3/5 243/3/5 244/3/5
f 246/3/6 247/3/6 250/3/6
f 250/3/6 247/3/6 251/3/6
f 248/3/6 249/3/6 252/3/6
f 252/3/6 249/3/6 253/3/6
f 254/3/6 255/3/6 258/3/6
f 258/3/6 255/3/6 259/3/6
f 256/3/6 257/3/6 260/3/6
f 260/3/6 257/3/6 261/3/6
f 262/3/6 263/3/6 266/3/6
f 266/3/6 263/3/6 267/3/6
f 264/3/6 265/3/6 268/3/6
f 268/3/6 265/3/6 269/3/6
f 270/3/6 271/3/6 274/3/6
f 274/3/6 271/3/6 275/3/6
f 272/3/6 273/3/6 276/3/6
f 276/3/6 273/3/6 277/3/6
f 278/3/6 279/3/6 282/3/6
f 282/3/6 279/3/6 283/3/6
f 280/2/6 281/2/6 284/2/6
f 284/2/6 281/2/6 285/2/6
f 286/3/6 287/3/6 290/3/6
f 287/1/6 288/1/6 291/1/6
f 290/3/6 287/3/6 291/3/6
f 288/3/6 289/3/6 292/3/6
f 291/1/6 288/1/6 292/1/6
f 292/3/6 289/3/6 293/3/6
