# MagicaVoxel @ Ephtracy

# group
o 

# material
mtllib kitchen counter.mtl
usemtl palette

# normals
vn -1 0 0
vn 1 0 0
vn 0 0 1
vn 0 0 -1
vn 0 -1 0
vn 0 1 0

# texcoords
vt 0.955078 0.5
vt 0.978516 0.5
vt 0.982422 0.5
vt 0.986328 0.5
vt 0.994141 0.5

# verts
v -7.5 0 -0.8
v -7.5 0 -2.5
v -7.5 1.3 -0.8
v -7.5 1.3 -2.5
v -4.9 1.3 -2.3
v -4.9 1.3 -2.5
v -4.9 1.4 -2.3
v -4.9 1.4 -2.5
v -4.8 1.4 -2.3
v -4.8 1.4 -2.5
v -4.8 1.5 -2.3
v -4.8 1.5 -2.5
v -4.7 1.5 -2.2
v -4.7 1.5 -2.3
v -4.7 1.5 -2.4
v -4.7 1.6 -2.2
v -4.7 1.6 -2.4
v -4.6 1.5 -2
v -4.6 1.5 -2.2
v -4.6 1.6 -2
v -4.6 1.6 -2.2
v -3.9 0.4 -0.7
v -3.9 0.4 -0.8
v -3.9 0.5 -0.7
v -3.9 0.5 -0.8
v -3.2 1.3 -2.2
v -3.2 1.3 -2.5
v -3.2 4.3 -2.2
v -3.2 4.3 -2.5
v -2.2 1.4 -2.2
v -2.2 1.4 -2.4
v -2.2 2.8 -2.2
v -2.2 2.8 -2.4
v -2.2 2.9 -2.2
v -2.2 2.9 -2.4
v -2.2 4.2 -2.2
v -2.2 4.2 -2.4
v -1.3 1.4 -2.2
v -1.3 1.4 -2.4
v -1.3 2.5 -2.2
v -1.3 2.5 -2.4
v -0.4 1.4 -2.2
v -0.4 1.4 -2.4
v -0.4 2.5 -2.2
v -0.4 2.5 -2.4
v -0.4 2.6 -2.2
v -0.4 2.6 -2.4
v -0.4 4.2 -2.2
v -0.4 4.2 -2.4
v 2.1 1.4 -2.2
v 2.1 1.4 -2.4
v 2.1 2.2 -2.2
v 2.1 2.2 -2.4
v 2.1 2.3 -2.2
v 2.1 2.3 -2.4
v 2.1 2.8 -2.2
v 2.1 2.8 -2.4
v 2.1 2.9 -2.2
v 2.1 2.9 -2.4
v 2.1 3.5 -2.2
v 2.1 3.5 -2.4
v 2.1 3.6 -2.2
v 2.1 3.6 -2.4
v 2.1 4.2 -2.2
v 2.1 4.2 -2.4
v 3.7 0.9 -0.7
v 3.7 0.9 -0.8
v 3.7 1 -0.7
v 3.7 1 -0.8
v 5.7 0.9 -0.7
v 5.7 0.9 -0.8
v 5.7 1 -0.7
v 5.7 1 -0.8
v -4.5 1.5 -2
v -4.5 1.5 -2.2
v -4.5 1.6 -2
v -4.5 1.6 -2.2
v -4.4 1.5 -2.2
v -4.4 1.5 -2.3
v -4.4 1.5 -2.4
v -4.4 1.6 -2.2
v -4.4 1.6 -2.4
v -4.3 1.4 -2.3
v -4.3 1.4 -2.5
v -4.3 1.5 -2.3
v -4.3 1.5 -2.5
v -4.2 1.3 -2.3
v -4.2 1.3 -2.5
v -4.2 1.4 -2.3
v -4.2 1.4 -2.5
v -3.8 0.4 -0.7
v -3.8 0.4 -0.8
v -3.8 0.5 -0.7
v -3.8 0.5 -0.8
v -3.1 1.4 -2.2
v -3.1 1.4 -2.4
v -3.1 2.8 -2.2
v -3.1 2.8 -2.4
v -3.1 2.9 -2.2
v -3.1 2.9 -2.4
v -3.1 4.2 -2.2
v -3.1 4.2 -2.4
v -2.1 1.4 -2.2
v -2.1 1.4 -2.4
v -2.1 2.5 -2.2
v -2.1 2.5 -2.4
v -2.1 2.6 -2.2
v -2.1 2.6 -2.4
v -2.1 4.2 -2.2
v -2.1 4.2 -2.4
v -1.2 1.4 -2.2
v -1.2 1.4 -2.4
v -1.2 2.5 -2.2
v -1.2 2.5 -2.4
v -0.3 1.4 -2.2
v -0.3 1.4 -2.4
v -0.3 2.2 -2.2
v -0.3 2.2 -2.4
v -0.3 2.3 -2.2
v -0.3 2.3 -2.4
v -0.3 2.8 -2.2
v -0.3 2.8 -2.4
v -0.3 2.9 -2.2
v -0.3 2.9 -2.4
v -0.3 3.5 -2.2
v -0.3 3.5 -2.4
v -0.3 3.6 -2.2
v -0.3 3.6 -2.4
v -0.3 4.2 -2.2
v -0.3 4.2 -2.4
v 2.2 1.3 -2.2
v 2.2 1.3 -2.5
v 2.2 4.3 -2.2
v 2.2 4.3 -2.5
v 5.1 0.9 -0.7
v 5.1 0.9 -0.8
v 5.1 1 -0.7
v 5.1 1 -0.8
v 7.1 0.9 -0.7
v 7.1 0.9 -0.8
v 7.1 1 -0.7
v 7.1 1 -0.8
v 7.5 0 -0.8
v 7.5 0 -2.5
v 7.5 1.3 -0.8
v 7.5 1.3 -2.5
v -3.9 0.4 -0.7
v -3.9 0.5 -0.7
v -3.8 0.4 -0.7
v -3.8 0.5 -0.7
v 3.7 0.9 -0.7
v 3.7 1 -0.7
v 5.1 0.9 -0.7
v 5.1 1 -0.7
v 5.7 0.9 -0.7
v 5.7 1 -0.7
v 7.1 0.9 -0.7
v 7.1 1 -0.7
v -7.5 0 -0.8
v -7.5 1.3 -0.8
v -5.2 0 -0.8
v -5.2 1.2 -0.8
v -3.9 0.4 -0.8
v -3.9 0.5 -0.8
v -3.8 0.4 -0.8
v -3.8 0.5 -0.8
v -3.7 0 -0.8
v -3.7 1.2 -0.8
v -3.2 1.2 -0.8
v -3.2 1.3 -0.8
v 2.2 1.2 -0.8
v 2.2 1.3 -0.8
v 3.5 0.7 -0.8
v 3.5 1.2 -0.8
v 3.7 0.9 -0.8
v 3.7 1 -0.8
v 5.1 0.9 -0.8
v 5.1 1 -0.8
v 5.3 0.7 -0.8
v 5.3 1.2 -0.8
v 5.6 0.7 -0.8
v 5.6 1.2 -0.8
v 5.7 0.9 -0.8
v 5.7 1 -0.8
v 7.1 0.9 -0.8
v 7.1 1 -0.8
v 7.2 0.7 -0.8
v 7.2 1.2 -0.8
v 7.5 0 -0.8
v 7.5 1.3 -0.8
v -4.6 1.5 -2
v -4.6 1.6 -2
v -4.5 1.5 -2
v -4.5 1.6 -2
v -4.7 1.5 -2.2
v -4.7 1.6 -2.2
v -4.6 1.5 -2.2
v -4.6 1.6 -2.2
v -4.5 1.5 -2.2
v -4.5 1.6 -2.2
v -4.4 1.5 -2.2
v -4.4 1.6 -2.2
v -3.2 1.3 -2.2
v -3.2 4.3 -2.2
v -3.1 1.4 -2.2
v -3.1 2.8 -2.2
v -3.1 2.9 -2.2
v -3.1 4.2 -2.2
v -2.2 1.4 -2.2
v -2.2 2.8 -2.2
v -2.2 2.9 -2.2
v -2.2 4.2 -2.2
v -2.1 1.4 -2.2
v -2.1 2.5 -2.2
v -2.1 2.6 -2.2
v -2.1 4.2 -2.2
v -1.3 1.4 -2.2
v -1.3 2.5 -2.2
v -1.2 1.4 -2.2
v -1.2 2.5 -2.2
v -0.4 1.4 -2.2
v -0.4 2.5 -2.2
v -0.4 2.6 -2.2
v -0.4 4.2 -2.2
v -0.3 1.4 -2.2
v -0.3 2.2 -2.2
v -0.3 2.3 -2.2
v -0.3 2.8 -2.2
v -0.3 2.9 -2.2
v -0.3 3.5 -2.2
v -0.3 3.6 -2.2
v -0.3 4.2 -2.2
v 2.1 1.4 -2.2
v 2.1 2.2 -2.2
v 2.1 2.3 -2.2
v 2.1 2.8 -2.2
v 2.1 2.9 -2.2
v 2.1 3.5 -2.2
v 2.1 3.6 -2.2
v 2.1 4.2 -2.2
v 2.2 1.3 -2.2
v 2.2 4.3 -2.2
v -4.9 1.3 -2.3
v -4.9 1.4 -2.3
v -4.8 1.4 -2.3
v -4.8 1.5 -2.3
v -4.7 1.5 -2.3
v -4.4 1.5 -2.3
v -4.3 1.4 -2.3
v -4.3 1.5 -2.3
v -4.2 1.3 -2.3
v -4.2 1.4 -2.3
v -3.1 1.4 -2.4
v -3.1 2.8 -2.4
v -3.1 2.9 -2.4
v -3.1 4.2 -2.4
v -2.2 1.4 -2.4
v -2.2 2.8 -2.4
v -2.2 2.9 -2.4
v -2.2 4.2 -2.4
v -2.1 1.4 -2.4
v -2.1 2.5 -2.4
v -2.1 2.6 -2.4
v -2.1 4.2 -2.4
v -1.3 1.4 -2.4
v -1.3 2.5 -2.4
v -1.2 1.4 -2.4
v -1.2 2.5 -2.4
v -0.4 1.4 -2.4
v -0.4 2.5 -2.4
v -0.4 2.6 -2.4
v -0.4 4.2 -2.4
v -0.3 1.4 -2.4
v -0.3 2.2 -2.4
v -0.3 2.3 -2.4
v -0.3 2.8 -2.4
v -0.3 2.9 -2.4
v -0.3 3.5 -2.4
v -0.3 3.6 -2.4
v -0.3 4.2 -2.4
v 2.1 1.4 -2.4
v 2.1 2.2 -2.4
v 2.1 2.3 -2.4
v 2.1 2.8 -2.4
v 2.1 2.9 -2.4
v 2.1 3.5 -2.4
v 2.1 3.6 -2.4
v 2.1 4.2 -2.4
v -4.7 1.5 -2.4
v -4.7 1.6 -2.4
v -4.4 1.5 -2.4
v -4.4 1.6 -2.4
v -7.5 0 -2.5
v -7.5 1.3 -2.5
v -5.3 1.2 -2.5
v -5.3 1.3 -2.5
v -5.2 1.2 -2.5
v -5.2 1.3 -2.5
v -4.9 1.3 -2.5
v -4.9 1.4 -2.5
v -4.8 1.4 -2.5
v -4.8 1.5 -2.5
v -4.3 1.4 -2.5
v -4.3 1.5 -2.5
v -4.2 1.3 -2.5
v -4.2 1.4 -2.5
v -3.9 1.2 -2.5
v -3.9 1.3 -2.5
v -3.8 1.2 -2.5
v -3.8 1.3 -2.5
v -3.2 1.3 -2.5
v -3.2 4.3 -2.5
v 2.2 1.3 -2.5
v 2.2 4.3 -2.5
v 7.5 0 -2.5
v 7.5 1.3 -2.5
v -7.5 0 -0.8
v -5.2 0 -0.8
v -3.7 0 -0.8
v 7.5 0 -0.8
v -5.2 0 -0.9
v -3.7 0 -0.9
v -7.5 0 -2.5
v 7.5 0 -2.5
v -3.9 0.4 -0.7
v -3.8 0.4 -0.7
v -3.9 0.4 -0.8
v -3.8 0.4 -0.8
v 3.7 0.9 -0.7
v 5.1 0.9 -0.7
v 5.7 0.9 -0.7
v 7.1 0.9 -0.7
v 3.7 0.9 -0.8
v 5.1 0.9 -0.8
v 5.7 0.9 -0.8
v 7.1 0.9 -0.8
v -4.6 1.5 -2
v -4.5 1.5 -2
v -4.7 1.5 -2.2
v -4.6 1.5 -2.2
v -4.5 1.5 -2.2
v -4.4 1.5 -2.2
v -4.7 1.5 -2.3
v -4.4 1.5 -2.3
v -0.3 2.2 -2.2
v 2.1 2.2 -2.2
v -0.3 2.2 -2.4
v 2.1 2.2 -2.4
v -2.1 2.5 -2.2
v -1.3 2.5 -2.2
v -1.2 2.5 -2.2
v -0.4 2.5 -2.2
v -2.1 2.5 -2.4
v -1.3 2.5 -2.4
v -1.2 2.5 -2.4
v -0.4 2.5 -2.4
v -3.1 2.8 -2.2
v -2.2 2.8 -2.2
v -0.3 2.8 -2.2
v 2.1 2.8 -2.2
v -3.1 2.8 -2.4
v -2.2 2.8 -2.4
v -0.3 2.8 -2.4
v 2.1 2.8 -2.4
v -0.3 3.5 -2.2
v 2.1 3.5 -2.2
v -0.3 3.5 -2.4
v 2.1 3.5 -2.4
v -3.1 4.2 -2.2
v -2.2 4.2 -2.2
v -2.1 4.2 -2.2
v -0.4 4.2 -2.2
v -0.3 4.2 -2.2
v 2.1 4.2 -2.2
v -3.1 4.2 -2.4
v -2.2 4.2 -2.4
v -2.1 4.2 -2.4
v -0.4 4.2 -2.4
v -0.3 4.2 -2.4
v 2.1 4.2 -2.4
v -3.9 0.5 -0.7
v -3.8 0.5 -0.7
v -3.9 0.5 -0.8
v -3.8 0.5 -0.8
v 3.7 1 -0.7
v 5.1 1 -0.7
v 5.7 1 -0.7
v 7.1 1 -0.7
v 3.7 1 -0.8
v 5.1 1 -0.8
v 5.7 1 -0.8
v 7.1 1 -0.8
v -7.5 1.3 -0.8
v -3.2 1.3 -0.8
v 2.2 1.3 -0.8
v 7.5 1.3 -0.8
v -5.2 1.3 -0.9
v -3.9 1.3 -0.9
v -5.3 1.3 -1
v -5.2 1.3 -1
v -4.8 1.3 -1
v -4.3 1.3 -1
v -3.9 1.3 -1
v -3.8 1.3 -1
v -5.4 1.3 -1.1
v -5.3 1.3 -1.1
v -5 1.3 -1.1
v -4.8 1.3 -1.1
v -4.3 1.3 -1.1
v -4.1 1.3 -1.1
v -3.8 1.3 -1.1
v -3.7 1.3 -1.1
v -5.2 1.3 -1.2
v -5 1.3 -1.2
v -4.1 1.3 -1.2
v -3.9 1.3 -1.2
v -3.7 1.3 -1.2
v -3.6 1.3 -1.2
v -5.5 1.3 -1.3
v -5.4 1.3 -1.3
v -5.3 1.3 -1.4
v -5.2 1.3 -1.4
v -3.9 1.3 -1.4
v -3.8 1.3 -1.4
v -5.4 1.3 -1.6
v -5.3 1.3 -1.6
v -3.8 1.3 -1.6
v -3.7 1.3 -1.6
v -5.4 1.3 -2.1
v -5.3 1.3 -2.1
v -3.8 1.3 -2.1
v -3.7 1.3 -2.1
v -3.7 1.3 -2.2
v -3.6 1.3 -2.2
v -3.2 1.3 -2.2
v 2.2 1.3 -2.2
v -5.5 1.3 -2.3
v -5.4 1.3 -2.3
v -5.3 1.3 -2.3
v -5.2 1.3 -2.3
v -4.9 1.3 -2.3
v -4.2 1.3 -2.3
v -3.9 1.3 -2.3
v -3.8 1.3 -2.3
v -5.4 1.3 -2.4
v -5.3 1.3 -2.4
v -3.8 1.3 -2.4
v -3.7 1.3 -2.4
v -7.5 1.3 -2.5
v -5.3 1.3 -2.5
v -5.2 1.3 -2.5
v -4.9 1.3 -2.5
v -4.2 1.3 -2.5
v -3.9 1.3 -2.5
v -3.8 1.3 -2.5
v -3.2 1.3 -2.5
v 2.2 1.3 -2.5
v 7.5 1.3 -2.5
v -3.1 1.4 -2.2
v -2.2 1.4 -2.2
v -2.1 1.4 -2.2
v -1.3 1.4 -2.2
v -1.2 1.4 -2.2
v -0.4 1.4 -2.2
v -0.3 1.4 -2.2
v 2.1 1.4 -2.2
v -4.9 1.4 -2.3
v -4.8 1.4 -2.3
v -4.3 1.4 -2.3
v -4.2 1.4 -2.3
v -3.1 1.4 -2.4
v -2.2 1.4 -2.4
v -2.1 1.4 -2.4
v -1.3 1.4 -2.4
v -1.2 1.4 -2.4
v -0.4 1.4 -2.4
v -0.3 1.4 -2.4
v 2.1 1.4 -2.4
v -4.9 1.4 -2.5
v -4.8 1.4 -2.5
v -4.3 1.4 -2.5
v -4.2 1.4 -2.5
v -4.8 1.5 -2.3
v -4.7 1.5 -2.3
v -4.4 1.5 -2.3
v -4.3 1.5 -2.3
v -4.7 1.5 -2.4
v -4.4 1.5 -2.4
v -4.8 1.5 -2.5
v -4.3 1.5 -2.5
v -4.6 1.6 -2
v -4.5 1.6 -2
v -4.7 1.6 -2.2
v -4.6 1.6 -2.2
v -4.5 1.6 -2.2
v -4.4 1.6 -2.2
v -4.7 1.6 -2.4
v -4.4 1.6 -2.4
v -0.3 2.3 -2.2
v 2.1 2.3 -2.2
v -0.3 2.3 -2.4
v 2.1 2.3 -2.4
v -2.1 2.6 -2.2
v -0.4 2.6 -2.2
v -2.1 2.6 -2.4
v -0.4 2.6 -2.4
v -3.1 2.9 -2.2
v -2.2 2.9 -2.2
v -0.3 2.9 -2.2
v 2.1 2.9 -2.2
v -3.1 2.9 -2.4
v -2.2 2.9 -2.4
v -0.3 2.9 -2.4
v 2.1 2.9 -2.4
v -0.3 3.6 -2.2
v 2.1 3.6 -2.2
v -0.3 3.6 -2.4
v 2.1 3.6 -2.4
v -3.2 4.3 -2.2
v 2.2 4.3 -2.2
v -3.2 4.3 -2.5
v 2.2 4.3 -2.5

# faces
f 3/1/1 2/1/1 1/1/1
f 4/1/1 2/1/1 3/1/1
f 7/2/1 6/2/1 5/2/1
f 8/2/1 6/2/1 7/2/1
f 11/2/1 10/2/1 9/2/1
f 12/2/1 10/2/1 11/2/1
f 16/2/1 14/2/1 13/2/1
f 16/2/1 15/2/1 14/2/1
f 17/2/1 15/2/1 16/2/1
f 20/2/1 19/2/1 18/2/1
f 21/2/1 19/2/1 20/2/1
f 24/3/1 23/3/1 22/3/1
f 25/3/1 23/3/1 24/3/1
f 28/2/1 27/2/1 26/2/1
f 29/2/1 27/2/1 28/2/1
f 32/2/1 31/2/1 30/2/1
f 33/2/1 31/2/1 32/2/1
f 36/2/1 35/2/1 34/2/1
f 37/2/1 35/2/1 36/2/1
f 40/2/1 39/2/1 38/2/1
f 41/2/1 39/2/1 40/2/1
f 44/2/1 43/2/1 42/2/1
f 45/2/1 43/2/1 44/2/1
f 48/2/1 47/2/1 46/2/1
f 49/2/1 47/2/1 48/2/1
f 52/2/1 51/2/1 50/2/1
f 53/2/1 51/2/1 52/2/1
f 56/2/1 55/2/1 54/2/1
f 57/2/1 55/2/1 56/2/1
f 60/2/1 59/2/1 58/2/1
f 61/2/1 59/2/1 60/2/1
f 64/2/1 63/2/1 62/2/1
f 65/2/1 63/2/1 64/2/1
f 68/3/1 67/3/1 66/3/1
f 69/3/1 67/3/1 68/3/1
f 72/3/1 71/3/1 70/3/1
f 73/3/1 71/3/1 72/3/1
f 74/2/2 75/2/2 76/2/2
f 76/2/2 75/2/2 77/2/2
f 78/2/2 79/2/2 81/2/2
f 79/2/2 80/2/2 81/2/2
f 81/2/2 80/2/2 82/2/2
f 83/2/2 84/2/2 85/2/2
f 85/2/2 84/2/2 86/2/2
f 87/2/2 88/2/2 89/2/2
f 89/2/2 88/2/2 90/2/2
f 91/3/2 92/3/2 93/3/2
f 93/3/2 92/3/2 94/3/2
f 95/2/2 96/2/2 97/2/2
f 97/2/2 96/2/2 98/2/2
f 99/2/2 100/2/2 101/2/2
f 101/2/2 100/2/2 102/2/2
f 103/2/2 104/2/2 105/2/2
f 105/2/2 104/2/2 106/2/2
f 107/2/2 108/2/2 109/2/2
f 109/2/2 108/2/2 110/2/2
f 111/2/2 112/2/2 113/2/2
f 113/2/2 112/2/2 114/2/2
f 115/2/2 116/2/2 117/2/2
f 117/2/2 116/2/2 118/2/2
f 119/2/2 120/2/2 121/2/2
f 121/2/2 120/2/2 122/2/2
f 123/2/2 124/2/2 125/2/2
f 125/2/2 124/2/2 126/2/2
f 127/2/2 128/2/2 129/2/2
f 129/2/2 128/2/2 130/2/2
f 131/2/2 132/2/2 133/2/2
f 133/2/2 132/2/2 134/2/2
f 135/3/2 136/3/2 137/3/2
f 137/3/2 136/3/2 138/3/2
f 139/3/2 140/3/2 141/3/2
f 141/3/2 140/3/2 142/3/2
f 143/1/2 144/1/2 145/1/2
f 145/1/2 144/1/2 146/1/2
f 149/3/3 148/3/3 147/3/3
f 150/3/3 148/3/3 149/3/3
f 153/3/3 152/3/3 151/3/3
f 154/3/3 152/3/3 153/3/3
f 157/3/3 156/3/3 155/3/3
f 158/3/3 156/3/3 157/3/3
f 161/1/3 160/1/3 159/1/3
f 162/1/3 160/1/3 161/1/3
f 163/5/3 162/5/3 161/5/3
f 164/5/3 162/5/3 163/5/3
f 165/5/3 163/5/3 161/5/3
f 166/5/3 162/5/3 164/5/3
f 167/5/3 165/5/3 161/5/3
f 167/5/3 166/5/3 165/5/3
f 168/1/3 160/1/3 162/1/3
f 168/5/3 166/5/3 167/5/3
f 168/5/3 162/5/3 166/5/3
f 169/1/3 168/1/3 167/1/3
f 169/1/3 160/1/3 168/1/3
f 170/1/3 160/1/3 169/1/3
f 171/1/3 169/1/3 167/1/3
f 171/4/3 170/4/3 169/4/3
f 172/4/3 170/4/3 171/4/3
f 173/1/3 171/1/3 167/1/3
f 173/1/3 172/1/3 171/1/3
f 174/1/3 172/1/3 173/1/3
f 175/5/3 174/5/3 173/5/3
f 176/5/3 174/5/3 175/5/3
f 177/5/3 175/5/3 173/5/3
f 178/5/3 174/5/3 176/5/3
f 179/1/3 173/1/3 167/1/3
f 179/5/3 178/5/3 177/5/3
f 179/5/3 177/5/3 173/5/3
f 180/5/3 174/5/3 178/5/3
f 180/5/3 178/5/3 179/5/3
f 180/1/3 172/1/3 174/1/3
f 181/1/3 179/1/3 167/1/3
f 181/1/3 180/1/3 179/1/3
f 182/1/3 172/1/3 180/1/3
f 182/1/3 180/1/3 181/1/3
f 183/5/3 182/5/3 181/5/3
f 184/5/3 182/5/3 183/5/3
f 185/5/3 183/5/3 181/5/3
f 186/5/3 182/5/3 184/5/3
f 187/1/3 181/1/3 167/1/3
f 187/5/3 186/5/3 185/5/3
f 187/5/3 185/5/3 181/5/3
f 188/5/3 182/5/3 186/5/3
f 188/5/3 186/5/3 187/5/3
f 188/1/3 172/1/3 182/1/3
f 189/1/3 187/1/3 167/1/3
f 189/1/3 188/1/3 187/1/3
f 190/1/3 172/1/3 188/1/3
f 190/1/3 188/1/3 189/1/3
f 193/2/3 192/2/3 191/2/3
f 194/2/3 192/2/3 193/2/3
f 197/2/3 196/2/3 195/2/3
f 198/2/3 196/2/3 197/2/3
f 201/2/3 200/2/3 199/2/3
f 202/2/3 200/2/3 201/2/3
f 205/2/3 204/2/3 203/2/3
f 206/2/3 204/2/3 205/2/3
f 207/2/3 204/2/3 206/2/3
f 208/2/3 204/2/3 207/2/3
f 209/2/3 205/2/3 203/2/3
f 210/2/3 207/2/3 206/2/3
f 211/2/3 207/2/3 210/2/3
f 212/2/3 204/2/3 208/2/3
f 213/2/3 211/2/3 210/2/3
f 213/2/3 212/2/3 211/2/3
f 213/2/3 209/2/3 203/2/3
f 213/2/3 210/2/3 209/2/3
f 214/2/3 212/2/3 213/2/3
f 215/2/3 212/2/3 214/2/3
f 216/2/3 204/2/3 212/2/3
f 216/2/3 212/2/3 215/2/3
f 217/2/3 213/2/3 203/2/3
f 218/2/3 215/2/3 214/2/3
f 219/2/3 217/2/3 203/2/3
f 219/2/3 218/2/3 217/2/3
f 220/2/3 215/2/3 218/2/3
f 220/2/3 218/2/3 219/2/3
f 221/2/3 219/2/3 203/2/3
f 222/2/3 215/2/3 220/2/3
f 223/2/3 215/2/3 222/2/3
f 224/2/3 204/2/3 216/2/3
f 225/2/3 221/2/3 203/2/3
f 225/2/3 224/2/3 223/2/3
f 225/2/3 223/2/3 222/2/3
f 225/2/3 222/2/3 221/2/3
f 226/2/3 224/2/3 225/2/3
f 227/2/3 224/2/3 226/2/3
f 228/2/3 224/2/3 227/2/3
f 229/2/3 224/2/3 228/2/3
f 230/2/3 224/2/3 229/2/3
f 231/2/3 224/2/3 230/2/3
f 232/2/3 204/2/3 224/2/3
f 232/2/3 224/2/3 231/2/3
f 233/2/3 225/2/3 203/2/3
f 234/2/3 227/2/3 226/2/3
f 235/2/3 227/2/3 234/2/3
f 236/2/3 229/2/3 228/2/3
f 237/2/3 229/2/3 236/2/3
f 238/2/3 231/2/3 230/2/3
f 239/2/3 231/2/3 238/2/3
f 240/2/3 204/2/3 232/2/3
f 241/2/3 237/2/3 236/2/3
f 241/2/3 240/2/3 239/2/3
f 241/2/3 239/2/3 238/2/3
f 241/2/3 235/2/3 234/2/3
f 241/2/3 238/2/3 237/2/3
f 241/2/3 233/2/3 203/2/3
f 241/2/3 236/2/3 235/2/3
f 241/2/3 234/2/3 233/2/3
f 242/2/3 204/2/3 240/2/3
f 242/2/3 240/2/3 241/2/3
f 245/2/3 244/2/3 243/2/3
f 247/2/3 246/2/3 245/2/3
f 248/2/3 247/2/3 245/2/3
f 249/2/3 245/2/3 243/2/3
f 249/2/3 248/2/3 245/2/3
f 250/2/3 248/2/3 249/2/3
f 251/2/3 249/2/3 243/2/3
f 252/2/3 249/2/3 251/2/3
f 257/2/3 254/2/3 253/2/3
f 258/2/3 254/2/3 257/2/3
f 259/2/3 256/2/3 255/2/3
f 260/2/3 256/2/3 259/2/3
f 265/2/3 262/2/3 261/2/3
f 266/2/3 262/2/3 265/2/3
f 269/2/3 268/2/3 267/2/3
f 270/2/3 268/2/3 269/2/3
f 271/2/3 264/2/3 263/2/3
f 272/2/3 264/2/3 271/2/3
f 281/2/3 274/2/3 273/2/3
f 282/2/3 274/2/3 281/2/3
f 283/2/3 276/2/3 275/2/3
f 284/2/3 276/2/3 283/2/3
f 285/2/3 278/2/3 277/2/3
f 286/2/3 278/2/3 285/2/3
f 287/2/3 280/2/3 279/2/3
f 288/2/3 280/2/3 287/2/3
f 289/2/4 290/2/4 291/2/4
f 291/2/4 290/2/4 292/2/4
f 293/1/4 294/1/4 295/1/4
f 295/1/4 294/1/4 296/1/4
f 293/1/4 295/1/4 297/1/4
f 295/4/4 296/4/4 297/4/4
f 297/4/4 296/4/4 298/4/4
f 297/2/4 298/2/4 299/2/4
f 299/2/4 300/2/4 301/2/4
f 299/2/4 301/2/4 303/2/4
f 301/2/4 302/2/4 303/2/4
f 303/2/4 302/2/4 304/2/4
f 297/2/4 299/2/4 305/2/4
f 299/2/4 303/2/4 305/2/4
f 305/2/4 303/2/4 306/2/4
f 293/1/4 297/1/4 307/1/4
f 297/2/4 305/2/4 307/2/4
f 307/2/4 305/2/4 308/2/4
f 293/1/4 307/1/4 309/1/4
f 307/4/4 308/4/4 309/4/4
f 309/4/4 308/4/4 310/4/4
f 309/1/4 310/1/4 311/1/4
f 309/1/4 311/1/4 313/1/4
f 311/2/4 312/2/4 313/2/4
f 313/2/4 312/2/4 314/2/4
f 293/1/4 309/1/4 315/1/4
f 309/1/4 313/1/4 315/1/4
f 315/1/4 313/1/4 316/1/4
f 321/1/5 318/1/5 317/1/5
f 321/5/5 319/5/5 318/5/5
f 322/1/5 320/1/5 319/1/5
f 322/5/5 319/5/5 321/5/5
f 323/1/5 321/1/5 317/1/5
f 323/1/5 322/1/5 321/1/5
f 324/1/5 320/1/5 322/1/5
f 324/1/5 322/1/5 323/1/5
f 327/3/5 326/3/5 325/3/5
f 328/3/5 326/3/5 327/3/5
f 333/3/5 330/3/5 329/3/5
f 334/3/5 330/3/5 333/3/5
f 335/3/5 332/3/5 331/3/5
f 336/3/5 332/3/5 335/3/5
f 340/2/5 338/2/5 337/2/5
f 341/2/5 338/2/5 340/2/5
f 343/2/5 340/2/5 339/2/5
f 343/2/5 342/2/5 341/2/5
f 343/2/5 341/2/5 340/2/5
f 344/2/5 342/2/5 343/2/5
f 347/2/5 346/2/5 345/2/5
f 348/2/5 346/2/5 347/2/5
f 353/2/5 350/2/5 349/2/5
f 354/2/5 350/2/5 353/2/5
f 355/2/5 352/2/5 351/2/5
f 356/2/5 352/2/5 355/2/5
f 361/2/5 358/2/5 357/2/5
f 362/2/5 358/2/5 361/2/5
f 363/2/5 360/2/5 359/2/5
f 364/2/5 360/2/5 363/2/5
f 367/2/5 366/2/5 365/2/5
f 368/2/5 366/2/5 367/2/5
f 375/2/5 370/2/5 369/2/5
f 376/2/5 370/2/5 375/2/5
f 377/2/5 372/2/5 371/2/5
f 378/2/5 372/2/5 377/2/5
f 379/2/5 374/2/5 373/2/5
f 380/2/5 374/2/5 379/2/5
f 381/3/6 382/3/6 383/3/6
f 383/3/6 382/3/6 384/3/6
f 385/3/6 386/3/6 389/3/6
f 389/3/6 386/3/6 390/3/6
f 387/3/6 388/3/6 391/3/6
f 391/3/6 388/3/6 392/3/6
f 393/1/6 394/1/6 397/1/6
f 397/1/6 394/1/6 398/1/6
f 393/1/6 397/1/6 399/1/6
f 397/4/6 398/4/6 400/4/6
f 399/1/6 397/1/6 400/1/6
f 400/4/6 398/4/6 401/4/6
f 401/4/6 398/4/6 402/4/6
f 398/1/6 394/1/6 403/1/6
f 402/4/6 398/4/6 403/4/6
f 403/1/6 394/1/6 404/1/6
f 393/1/6 399/1/6 405/1/6
f 399/4/6 400/4/6 406/4/6
f 405/1/6 399/1/6 406/1/6
f 400/4/6 401/4/6 406/4/6
f 406/4/6 401/4/6 407/4/6
f 401/2/6 402/2/6 408/2/6
f 407/4/6 401/4/6 408/4/6
f 403/4/6 404/4/6 409/4/6
f 408/2/6 402/2/6 409/2/6
f 402/4/6 403/4/6 409/4/6
f 409/4/6 404/4/6 410/4/6
f 404/1/6 394/1/6 411/1/6
f 410/4/6 404/4/6 411/4/6
f 411/1/6 394/1/6 412/1/6
f 406/4/6 407/4/6 413/4/6
f 405/4/6 406/4/6 413/4/6
f 409/2/6 410/2/6 414/2/6
f 413/4/6 407/4/6 414/4/6
f 407/2/6 408/2/6 414/2/6
f 408/2/6 409/2/6 414/2/6
f 410/4/6 411/4/6 415/4/6
f 414/2/6 410/2/6 415/2/6
f 411/4/6 412/4/6 415/4/6
f 415/4/6 412/4/6 416/4/6
f 412/1/6 394/1/6 417/1/6
f 416/4/6 412/4/6 417/4/6
f 417/1/6 394/1/6 418/1/6
f 393/1/6 405/1/6 419/1/6
f 405/4/6 413/4/6 420/4/6
f 419/1/6 405/1/6 420/1/6
f 419/4/6 420/4/6 421/4/6
f 420/4/6 413/4/6 421/4/6
f 415/2/6 416/2/6 422/2/6
f 421/4/6 413/4/6 422/4/6
f 413/2/6 414/2/6 422/2/6
f 414/2/6 415/2/6 422/2/6
f 417/4/6 418/4/6 423/4/6
f 422/2/6 416/2/6 423/2/6
f 416/4/6 417/4/6 423/4/6
f 423/4/6 418/4/6 424/4/6
f 419/4/6 421/4/6 425/4/6
f 421/2/6 422/2/6 426/2/6
f 425/4/6 421/4/6 426/4/6
f 422/2/6 423/2/6 426/2/6
f 423/2/6 424/2/6 426/2/6
f 424/4/6 418/4/6 427/4/6
f 426/2/6 424/2/6 427/2/6
f 427/4/6 418/4/6 428/4/6
f 425/2/6 426/2/6 429/2/6
f 419/4/6 425/4/6 429/4/6
f 427/2/6 428/2/6 429/2/6
f 426/2/6 427/2/6 429/2/6
f 429/2/6 428/2/6 430/2/6
f 430/2/6 428/2/6 431/2/6
f 428/4/6 418/4/6 432/4/6
f 431/2/6 428/2/6 432/2/6
f 431/4/6 432/4/6 433/4/6
f 432/4/6 418/4/6 433/4/6
f 418/1/6 394/1/6 434/1/6
f 433/4/6 418/4/6 434/4/6
f 394/4/6 395/4/6 435/4/6
f 434/1/6 394/1/6 435/1/6
f 395/1/6 396/1/6 436/1/6
f 435/4/6 395/4/6 436/4/6
f 393/1/6 419/1/6 437/1/6
f 419/4/6 429/4/6 437/4/6
f 429/4/6 430/4/6 437/4/6
f 437/4/6 430/4/6 438/4/6
f 430/2/6 431/2/6 439/2/6
f 438/4/6 430/4/6 439/4/6
f 439/2/6 431/2/6 440/2/6
f 440/2/6 431/2/6 441/2/6
f 441/2/6 431/2/6 442/2/6
f 442/2/6 431/2/6 443/2/6
f 431/4/6 433/4/6 444/4/6
f 443/2/6 431/2/6 444/2/6
f 437/1/6 438/1/6 445/1/6
f 438/4/6 439/4/6 445/4/6
f 439/4/6 440/4/6 445/4/6
f 445/4/6 440/4/6 446/4/6
f 444/4/6 433/4/6 447/4/6
f 443/4/6 444/4/6 447/4/6
f 434/1/6 435/1/6 448/1/6
f 447/4/6 433/4/6 448/4/6
f 433/1/6 434/1/6 448/1/6
f 437/1/6 445/1/6 449/1/6
f 393/1/6 437/1/6 449/1/6
f 445/1/6 446/1/6 449/1/6
f 446/4/6 440/4/6 450/4/6
f 449/1/6 446/1/6 450/1/6
f 440/2/6 441/2/6 451/2/6
f 450/4/6 440/4/6 451/4/6
f 451/2/6 441/2/6 452/2/6
f 442/2/6 443/2/6 453/2/6
f 443/4/6 447/4/6 454/4/6
f 453/2/6 443/2/6 454/2/6
f 447/1/6 448/1/6 455/1/6
f 454/4/6 447/4/6 455/4/6
f 448/1/6 435/1/6 456/1/6
f 455/1/6 448/1/6 456/1/6
f 436/1/6 396/1/6 457/1/6
f 457/1/6 396/1/6 458/1/6
f 459/2/6 460/2/6 471/2/6
f 471/2/6 460/2/6 472/2/6
f 461/2/6 462/2/6 473/2/6
f 473/2/6 462/2/6 474/2/6
f 463/2/6 464/2/6 475/2/6
f 475/2/6 464/2/6 476/2/6
f 465/2/6 466/2/6 477/2/6
f 477/2/6 466/2/6 478/2/6
f 467/2/6 468/2/6 479/2/6
f 479/2/6 468/2/6 480/2/6
f 469/2/6 470/2/6 481/2/6
f 481/2/6 470/2/6 482/2/6
f 483/2/6 484/2/6 487/2/6
f 485/2/6 486/2/6 488/2/6
f 483/2/6 487/2/6 489/2/6
f 487/2/6 488/2/6 489/2/6
f 488/2/6 486/2/6 490/2/6
f 489/2/6 488/2/6 490/2/6
f 491/2/6 492/2/6 494/2/6
f 494/2/6 492/2/6 495/2/6
f 493/2/6 494/2/6 497/2/6
f 495/2/6 496/2/6 497/2/6
f 494/2/6 495/2/6 497/2/6
f 497/2/6 496/2/6 498/2/6
f 499/2/6 500/2/6 501/2/6
f 501/2/6 500/2/6 502/2/6
f 503/2/6 504/2/6 505/2/6
f 505/2/6 504/2/6 506/2/6
f 507/2/6 508/2/6 511/2/6
f 511/2/6 508/2/6 512/2/6
f 509/2/6 510/2/6 513/2/6
f 513/2/6 510/2/6 514/2/6
f 515/2/6 516/2/6 517/2/6
f 517/2/6 516/2/6 518/2/6
f 519/2/6 520/2/6 521/2/6
f 521/2/6 520/2/6 522/2/6
