# MagicaVoxel @ Ephtracy

# group
o 

# material
mtllib smalldiningtable.mtl
usemtl palette

# normals
vn -1 0 0
vn 1 0 0
vn 0 0 1
vn 0 0 -1
vn 0 -1 0
vn 0 1 0

# texcoords
vt 0.00976563 0.5
vt 0.0136719 0.5

# verts
v -1.2 1.7 2.5
v -1.2 1.7 0.0999999
v -1.2 1.9 2.5
v -1.2 1.9 0.0999999
v -1.1 1.7 2.6
v -1.1 1.7 2.5
v -1.1 1.7 0.0999999
v -1.1 1.7 -2.38419e-07
v -1.1 1.9 2.6
v -1.1 1.9 2.5
v -1.1 1.9 0.0999999
v -1.1 1.9 -2.38419e-07
v -1 1.7 2.7
v -1 1.7 2.6
v -1 1.7 -2.38419e-07
v -1 1.7 -0.1
v -1 1.9 2.7
v -1 1.9 2.6
v -1 1.9 -2.38419e-07
v -1 1.9 -0.1
v -0.9 1.7 2.8
v -0.9 1.7 2.7
v -0.9 1.7 -0.1
v -0.9 1.7 -0.2
v -0.9 1.9 2.8
v -0.9 1.9 2.7
v -0.9 1.9 -0.1
v -0.9 1.9 -0.2
v -0.2 0.1 1.5
v -0.2 0.1 1.4
v -0.2 0.1 1.2
v -0.2 0.1 1.1
v -0.2 0.2 1.5
v -0.2 0.2 1.4
v -0.2 0.2 1.2
v -0.2 0.2 1.1
v -0.1 0.2 1.5
v -0.1 0.2 1.4
v -0.1 0.2 1.2
v -0.1 0.2 1.1
v -0.1 0.3 1.5
v -0.1 0.3 1.4
v -0.1 0.3 1.2
v -0.1 0.3 1.1
v 0 0.3 1.5
v 0 0.3 1.4
v 0 0.3 1.2
v 0 0.3 1.1
v 0 1.6 1.4
v 0 1.6 1.2
v 0 1.7 1.5
v 0 1.7 1.1
v 0.0999999 0.1 1.8
v 0.0999999 0.1 1.5
v 0.0999999 0.1 1.1
v 0.0999999 0.1 0.8
v 0.0999999 0.2 1.8
v 0.0999999 0.2 1.7
v 0.0999999 0.2 0.9
v 0.0999999 0.2 0.8
v 0.0999999 0.3 1.7
v 0.0999999 0.3 1.6
v 0.0999999 0.3 1
v 0.0999999 0.3 0.9
v 0.0999999 1.5 1.4
v 0.0999999 1.5 1.2
v 0.0999999 1.6 1.4
v 0.0999999 1.6 1.2
v 0.0999999 1.7 1.6
v 0.0999999 1.7 1.5
v 0.0999999 1.7 1.1
v 0.0999999 1.7 1
v 0.4 0.1 1.8
v 0.4 0.1 1.4
v 0.4 0.1 1.2
v 0.4 0.1 0.8
v 0.4 0.2 1.8
v 0.4 0.2 1.7
v 0.4 0.2 0.9
v 0.4 0.2 0.8
v 0.4 0.3 1.7
v 0.4 0.3 1.6
v 0.4 0.3 1
v 0.4 0.3 0.9
v 0.4 1.5 1.6
v 0.4 1.5 1.5
v 0.4 1.5 1.3
v 0.4 1.5 1.2
v 0.4 1.5 1.1
v 0.4 1.6 1.5
v 0.4 1.6 1.4
v 0.4 1.6 1.3
v 0.4 1.6 1.2
v 0.4 1.6 1.1
v 0.4 1.6 1
v 0.5 1.5 1.4
v 0.5 1.5 1.3
v 0.5 1.6 1.4
v 0.5 1.6 1.3
v 0.2 0.1 1.8
v 0.2 0.1 1.4
v 0.2 0.1 1.2
v 0.2 0.1 0.8
v 0.2 0.2 1.8
v 0.2 0.2 1.7
v 0.2 0.2 0.9
v 0.2 0.2 0.8
v 0.2 0.3 1.7
v 0.2 0.3 1.6
v 0.2 0.3 1
v 0.2 0.3 0.9
v 0.2 1.5 1.6
v 0.2 1.5 1.4
v 0.2 1.5 1.3
v 0.2 1.5 1.2
v 0.2 1.5 1.1
v 0.2 1.6 1.4
v 0.2 1.6 1.3
v 0.2 1.6 1.1
v 0.2 1.6 1
v 0.3 1.5 1.5
v 0.3 1.5 1.4
v 0.3 1.5 1.3
v 0.3 1.5 1.2
v 0.3 1.6 1.5
v 0.3 1.6 1.4
v 0.3 1.6 1.3
v 0.3 1.6 1.2
v 0.5 0.1 1.8
v 0.5 0.1 1.5
v 0.5 0.1 1.1
v 0.5 0.1 0.8
v 0.5 0.2 1.8
v 0.5 0.2 1.7
v 0.5 0.2 0.9
v 0.5 0.2 0.8
v 0.5 0.3 1.7
v 0.5 0.3 1.6
v 0.5 0.3 1
v 0.5 0.3 0.9
v 0.5 1.7 1.6
v 0.5 1.7 1.5
v 0.5 1.7 1.1
v 0.5 1.7 1
v 0.6 0.3 1.5
v 0.6 0.3 1.4
v 0.6 0.3 1.2
v 0.6 0.3 1.1
v 0.6 1.5 1.4
v 0.6 1.5 1.2
v 0.6 1.7 1.5
v 0.6 1.7 1.1
v 0.7 0.2 1.5
v 0.7 0.2 1.4
v 0.7 0.2 1.2
v 0.7 0.2 1.1
v 0.7 0.3 1.5
v 0.7 0.3 1.4
v 0.7 0.3 1.2
v 0.7 0.3 1.1
v 0.8 0.1 1.5
v 0.8 0.1 1.4
v 0.8 0.1 1.2
v 0.8 0.1 1.1
v 0.8 0.2 1.5
v 0.8 0.2 1.4
v 0.8 0.2 1.2
v 0.8 0.2 1.1
v 1.5 1.7 2.8
v 1.5 1.7 2.7
v 1.5 1.7 -0.1
v 1.5 1.7 -0.2
v 1.5 1.9 2.8
v 1.5 1.9 2.7
v 1.5 1.9 -0.1
v 1.5 1.9 -0.2
v 1.6 1.7 2.7
v 1.6 1.7 2.6
v 1.6 1.7 -2.38419e-07
v 1.6 1.7 -0.1
v 1.6 1.9 2.7
v 1.6 1.9 2.6
v 1.6 1.9 -2.38419e-07
v 1.6 1.9 -0.1
v 1.7 1.7 2.6
v 1.7 1.7 2.5
v 1.7 1.7 0.0999999
v 1.7 1.7 -2.38419e-07
v 1.7 1.9 2.6
v 1.7 1.9 2.5
v 1.7 1.9 0.0999999
v 1.7 1.9 -2.38419e-07
v 1.8 1.7 2.5
v 1.8 1.7 0.0999999
v 1.8 1.9 2.5
v 1.8 1.9 0.0999999
v -0.9 1.7 2.8
v -0.9 1.9 2.8
v 1.5 1.7 2.8
v 1.5 1.9 2.8
v -1 1.7 2.7
v -1 1.9 2.7
v -0.9 1.7 2.7
v -0.9 1.9 2.7
v 1.5 1.7 2.7
v 1.5 1.9 2.7
v 1.6 1.7 2.7
v 1.6 1.9 2.7
v -1.1 1.7 2.6
v -1.1 1.9 2.6
v -1 1.7 2.6
v -1 1.9 2.6
v 1.6 1.7 2.6
v 1.6 1.9 2.6
v 1.7 1.7 2.6
v 1.7 1.9 2.6
v -1.2 1.7 2.5
v -1.2 1.9 2.5
v -1.1 1.7 2.5
v -1.1 1.9 2.5
v 1.7 1.7 2.5
v 1.7 1.9 2.5
v 1.8 1.7 2.5
v 1.8 1.9 2.5
v 0.0999999 0.1 1.8
v 0.0999999 0.2 1.8
v 0.2 0.1 1.8
v 0.2 0.2 1.8
v 0.4 0.1 1.8
v 0.4 0.2 1.8
v 0.5 0.1 1.8
v 0.5 0.2 1.8
v 0.0999999 0.2 1.7
v 0.0999999 0.3 1.7
v 0.2 0.2 1.7
v 0.2 0.3 1.7
v 0.4 0.2 1.7
v 0.4 0.3 1.7
v 0.5 0.2 1.7
v 0.5 0.3 1.7
v 0.0999999 0.3 1.6
v 0.0999999 1.7 1.6
v 0.2 0.3 1.6
v 0.2 1.5 1.6
v 0.4 0.3 1.6
v 0.4 1.5 1.6
v 0.5 0.3 1.6
v 0.5 1.7 1.6
v -0.2 0.1 1.5
v -0.2 0.2 1.5
v -0.1 0.2 1.5
v -0.1 0.3 1.5
v 0 0.3 1.5
v 0 1.7 1.5
v 0.0999999 0.1 1.5
v 0.0999999 1.7 1.5
v 0.5 0.1 1.5
v 0.5 1.7 1.5
v 0.6 0.3 1.5
v 0.6 1.7 1.5
v 0.7 0.2 1.5
v 0.7 0.3 1.5
v 0.8 0.1 1.5
v 0.8 0.2 1.5
v 0.2 1.5 1.3
v 0.2 1.6 1.3
v 0.3 1.5 1.3
v 0.3 1.6 1.3
v 0.4 1.5 1.3
v 0.4 1.6 1.3
v 0.5 1.5 1.3
v 0.5 1.6 1.3
v -0.2 0.1 1.2
v -0.2 0.2 1.2
v -0.1 0.2 1.2
v -0.1 0.3 1.2
v 0 0.3 1.2
v 0 1.6 1.2
v 0.0999999 1.5 1.2
v 0.0999999 1.6 1.2
v 0.2 0.1 1.2
v 0.2 1.5 1.2
v 0.3 1.5 1.2
v 0.3 1.6 1.2
v 0.4 0.1 1.2
v 0.4 1.5 1.2
v 0.4 1.6 1.2
v 0.6 0.3 1.2
v 0.6 1.5 1.2
v 0.7 0.2 1.2
v 0.7 0.3 1.2
v 0.8 0.1 1.2
v 0.8 0.2 1.2
v 0.3 1.5 1.5
v 0.3 1.6 1.5
v 0.4 1.5 1.5
v 0.4 1.6 1.5
v -0.2 0.1 1.4
v -0.2 0.2 1.4
v -0.1 0.2 1.4
v -0.1 0.3 1.4
v 0 0.3 1.4
v 0 1.6 1.4
v 0.0999999 1.5 1.4
v 0.0999999 1.6 1.4
v 0.2 0.1 1.4
v 0.2 1.5 1.4
v 0.2 1.6 1.4
v 0.3 1.5 1.4
v 0.3 1.6 1.4
v 0.4 0.1 1.4
v 0.4 1.6 1.4
v 0.5 1.5 1.4
v 0.5 1.6 1.4
v 0.6 0.3 1.4
v 0.6 1.5 1.4
v 0.7 0.2 1.4
v 0.7 0.3 1.4
v 0.8 0.1 1.4
v 0.8 0.2 1.4
v -0.2 0.1 1.1
v -0.2 0.2 1.1
v -0.1 0.2 1.1
v -0.1 0.3 1.1
v 0 0.3 1.1
v 0 1.7 1.1
v 0.0999999 0.1 1.1
v 0.0999999 1.7 1.1
v 0.2 1.5 1.1
v 0.2 1.6 1.1
v 0.4 1.5 1.1
v 0.4 1.6 1.1
v 0.5 0.1 1.1
v 0.5 1.7 1.1
v 0.6 0.3 1.1
v 0.6 1.7 1.1
v 0.7 0.2 1.1
v 0.7 0.3 1.1
v 0.8 0.1 1.1
v 0.8 0.2 1.1
v 0.0999999 0.3 1
v 0.0999999 1.7 1
v 0.2 0.3 1
v 0.2 1.6 1
v 0.4 0.3 1
v 0.4 1.6 1
v 0.5 0.3 1
v 0.5 1.7 1
v 0.0999999 0.2 0.9
v 0.0999999 0.3 0.9
v 0.2 0.2 0.9
v 0.2 0.3 0.9
v 0.4 0.2 0.9
v 0.4 0.3 0.9
v 0.5 0.2 0.9
v 0.5 0.3 0.9
v 0.0999999 0.1 0.8
v 0.0999999 0.2 0.8
v 0.2 0.1 0.8
v 0.2 0.2 0.8
v 0.4 0.1 0.8
v 0.4 0.2 0.8
v 0.5 0.1 0.8
v 0.5 0.2 0.8
v -1.2 1.7 0.0999999
v -1.2 1.9 0.0999999
v -1.1 1.7 0.0999999
v -1.1 1.9 0.0999999
v 1.7 1.7 0.0999999
v 1.7 1.9 0.0999999
v 1.8 1.7 0.0999999
v 1.8 1.9 0.0999999
v -1.1 1.7 -2.38419e-07
v -1.1 1.9 -2.38419e-07
v -1 1.7 -2.38419e-07
v -1 1.9 -2.38419e-07
v 1.6 1.7 -2.38419e-07
v 1.6 1.9 -2.38419e-07
v 1.7 1.7 -2.38419e-07
v 1.7 1.9 -2.38419e-07
v -1 1.7 -0.1
v -1 1.9 -0.1
v -0.9 1.7 -0.1
v -0.9 1.9 -0.1
v 1.5 1.7 -0.1
v 1.5 1.9 -0.1
v 1.6 1.7 -0.1
v 1.6 1.9 -0.1
v -0.9 1.7 -0.2
v -0.9 1.9 -0.2
v 1.5 1.7 -0.2
v 1.5 1.9 -0.2
v 0.0999999 0.1 1.8
v 0.2 0.1 1.8
v 0.4 0.1 1.8
v 0.5 0.1 1.8
v -0.2 0.1 1.5
v 0.0999999 0.1 1.5
v 0.5 0.1 1.5
v 0.8 0.1 1.5
v -0.2 0.1 1.4
v 0.2 0.1 1.4
v 0.4 0.1 1.4
v 0.8 0.1 1.4
v -0.2 0.1 1.2
v 0.2 0.1 1.2
v 0.4 0.1 1.2
v 0.8 0.1 1.2
v -0.2 0.1 1.1
v 0.0999999 0.1 1.1
v 0.5 0.1 1.1
v 0.8 0.1 1.1
v 0.0999999 0.1 0.8
v 0.2 0.1 0.8
v 0.4 0.1 0.8
v 0.5 0.1 0.8
v 0.2 1.5 1.6
v 0.4 1.5 1.6
v 0.3 1.5 1.5
v 0.4 1.5 1.5
v 0.0999999 1.5 1.4
v 0.2 1.5 1.4
v 0.3 1.5 1.4
v 0.5 1.5 1.4
v 0.6 1.5 1.4
v 0.2 1.5 1.3
v 0.3 1.5 1.3
v 0.4 1.5 1.3
v 0.5 1.5 1.3
v 0.0999999 1.5 1.2
v 0.2 1.5 1.2
v 0.3 1.5 1.2
v 0.4 1.5 1.2
v 0.6 1.5 1.2
v 0.2 1.5 1.1
v 0.4 1.5 1.1
v 0.3 1.6 1.5
v 0.4 1.6 1.5
v 0 1.6 1.4
v 0.0999999 1.6 1.4
v 0.2 1.6 1.4
v 0.3 1.6 1.4
v 0.4 1.6 1.4
v 0.5 1.6 1.4
v 0.2 1.6 1.3
v 0.3 1.6 1.3
v 0.4 1.6 1.3
v 0.5 1.6 1.3
v 0 1.6 1.2
v 0.0999999 1.6 1.2
v 0.3 1.6 1.2
v 0.4 1.6 1.2
v 0.2 1.6 1.1
v 0.4 1.6 1.1
v 0.2 1.6 1
v 0.4 1.6 1
v -0.9 1.7 2.8
v 1.5 1.7 2.8
v -1 1.7 2.7
v -0.9 1.7 2.7
v 1.5 1.7 2.7
v 1.6 1.7 2.7
v -1.1 1.7 2.6
v -1 1.7 2.6
v 1.6 1.7 2.6
v 1.7 1.7 2.6
v -1.2 1.7 2.5
v -1.1 1.7 2.5
v 1.7 1.7 2.5
v 1.8 1.7 2.5
v 0.0999999 1.7 1.6
v 0.5 1.7 1.6
v 0 1.7 1.5
v 0.0999999 1.7 1.5
v 0.5 1.7 1.5
v 0.6 1.7 1.5
v 0 1.7 1.1
v 0.0999999 1.7 1.1
v 0.5 1.7 1.1
v 0.6 1.7 1.1
v 0.0999999 1.7 1
v 0.5 1.7 1
v -1.2 1.7 0.0999999
v -1.1 1.7 0.0999999
v 1.7 1.7 0.0999999
v 1.8 1.7 0.0999999
v -1.1 1.7 -2.38419e-07
v -1 1.7 -2.38419e-07
v 1.6 1.7 -2.38419e-07
v 1.7 1.7 -2.38419e-07
v -1 1.7 -0.1
v -0.9 1.7 -0.1
v 1.5 1.7 -0.1
v 1.6 1.7 -0.1
v -0.9 1.7 -0.2
v 1.5 1.7 -0.2
v 0.0999999 0.2 1.8
v 0.2 0.2 1.8
v 0.4 0.2 1.8
v 0.5 0.2 1.8
v 0.0999999 0.2 1.7
v 0.2 0.2 1.7
v 0.4 0.2 1.7
v 0.5 0.2 1.7
v -0.2 0.2 1.5
v -0.1 0.2 1.5
v 0.7 0.2 1.5
v 0.8 0.2 1.5
v -0.2 0.2 1.4
v -0.1 0.2 1.4
v 0.7 0.2 1.4
v 0.8 0.2 1.4
v -0.2 0.2 1.2
v -0.1 0.2 1.2
v 0.7 0.2 1.2
v 0.8 0.2 1.2
v -0.2 0.2 1.1
v -0.1 0.2 1.1
v 0.7 0.2 1.1
v 0.8 0.2 1.1
v 0.0999999 0.2 0.9
v 0.2 0.2 0.9
v 0.4 0.2 0.9
v 0.5 0.2 0.9
v 0.0999999 0.2 0.8
v 0.2 0.2 0.8
v 0.4 0.2 0.8
v 0.5 0.2 0.8
v 0.0999999 0.3 1.7
v 0.2 0.3 1.7
v 0.4 0.3 1.7
v 0.5 0.3 1.7
v 0.0999999 0.3 1.6
v 0.2 0.3 1.6
v 0.4 0.3 1.6
v 0.5 0.3 1.6
v -0.1 0.3 1.5
v 0 0.3 1.5
v 0.6 0.3 1.5
v 0.7 0.3 1.5
v -0.1 0.3 1.4
v 0 0.3 1.4
v 0.6 0.3 1.4
v 0.7 0.3 1.4
v -0.1 0.3 1.2
v 0 0.3 1.2
v 0.6 0.3 1.2
v 0.7 0.3 1.2
v -0.1 0.3 1.1
v 0 0.3 1.1
v 0.6 0.3 1.1
v 0.7 0.3 1.1
v 0.0999999 0.3 1
v 0.2 0.3 1
v 0.4 0.3 1
v 0.5 0.3 1
v 0.0999999 0.3 0.9
v 0.2 0.3 0.9
v 0.4 0.3 0.9
v 0.5 0.3 0.9
v -0.9 1.9 2.8
v 1.5 1.9 2.8
v -1 1.9 2.7
v -0.9 1.9 2.7
v 1.5 1.9 2.7
v 1.6 1.9 2.7
v -1.1 1.9 2.6
v -1 1.9 2.6
v 1.6 1.9 2.6
v 1.7 1.9 2.6
v -1.2 1.9 2.5
v -1.1 1.9 2.5
v 1.7 1.9 2.5
v 1.8 1.9 2.5
v -1.2 1.9 0.0999999
v -1.1 1.9 0.0999999
v 1.7 1.9 0.0999999
v 1.8 1.9 0.0999999
v -1.1 1.9 -2.38419e-07
v -1 1.9 -2.38419e-07
v 1.6 1.9 -2.38419e-07
v 1.7 1.9 -2.38419e-07
v -1 1.9 -0.1
v -0.9 1.9 -0.1
v 1.5 1.9 -0.1
v 1.6 1.9 -0.1
v -0.9 1.9 -0.2
v 1.5 1.9 -0.2

# faces
f 3/1/1 2/1/1 1/1/1
f 4/1/1 2/1/1 3/1/1
f 9/1/1 6/1/1 5/1/1
f 10/1/1 6/1/1 9/1/1
f 11/1/1 8/1/1 7/1/1
f 12/1/1 8/1/1 11/1/1
f 17/1/1 14/1/1 13/1/1
f 18/1/1 14/1/1 17/1/1
f 19/1/1 16/1/1 15/1/1
f 20/1/1 16/1/1 19/1/1
f 25/1/1 22/1/1 21/1/1
f 26/1/1 22/1/1 25/1/1
f 27/1/1 24/1/1 23/1/1
f 28/1/1 24/1/1 27/1/1
f 33/2/1 30/2/1 29/2/1
f 34/2/1 30/2/1 33/2/1
f 35/2/1 32/2/1 31/2/1
f 36/2/1 32/2/1 35/2/1
f 41/2/1 38/2/1 37/2/1
f 42/2/1 38/2/1 41/2/1
f 43/2/1 40/2/1 39/2/1
f 44/2/1 40/2/1 43/2/1
f 49/2/1 46/2/1 45/2/1
f 50/2/1 48/2/1 47/2/1
f 51/2/1 49/2/1 45/2/1
f 51/2/1 50/2/1 49/2/1
f 52/2/1 48/2/1 50/2/1
f 52/2/1 50/2/1 51/2/1
f 57/2/1 54/2/1 53/2/1
f 58/2/1 54/2/1 57/2/1
f 59/2/1 56/2/1 55/2/1
f 60/2/1 56/2/1 59/2/1
f 61/2/1 54/2/1 58/2/1
f 62/2/1 54/2/1 61/2/1
f 63/2/1 59/2/1 55/2/1
f 64/2/1 59/2/1 63/2/1
f 67/2/1 66/2/1 65/2/1
f 68/2/1 66/2/1 67/2/1
f 69/2/1 54/2/1 62/2/1
f 70/2/1 54/2/1 69/2/1
f 71/2/1 63/2/1 55/2/1
f 72/2/1 63/2/1 71/2/1
f 77/2/1 74/2/1 73/2/1
f 78/2/1 74/2/1 77/2/1
f 79/2/1 76/2/1 75/2/1
f 80/2/1 76/2/1 79/2/1
f 81/2/1 74/2/1 78/2/1
f 82/2/1 74/2/1 81/2/1
f 83/2/1 79/2/1 75/2/1
f 84/2/1 79/2/1 83/2/1
f 85/2/1 74/2/1 82/2/1
f 86/2/1 74/2/1 85/2/1
f 88/2/1 83/2/1 75/2/1
f 89/2/1 83/2/1 88/2/1
f 90/2/1 74/2/1 86/2/1
f 91/2/1 74/2/1 90/2/1
f 92/2/1 88/2/1 87/2/1
f 93/2/1 88/2/1 92/2/1
f 94/2/1 83/2/1 89/2/1
f 95/2/1 83/2/1 94/2/1
f 98/2/1 97/2/1 96/2/1
f 99/2/1 97/2/1 98/2/1
f 100/2/2 101/2/2 104/2/2
f 104/2/2 101/2/2 105/2/2
f 102/2/2 103/2/2 106/2/2
f 106/2/2 103/2/2 107/2/2
f 105/2/2 101/2/2 108/2/2
f 108/2/2 101/2/2 109/2/2
f 102/2/2 106/2/2 110/2/2
f 110/2/2 106/2/2 111/2/2
f 109/2/2 101/2/2 112/2/2
f 112/2/2 101/2/2 113/2/2
f 102/2/2 110/2/2 115/2/2
f 115/2/2 110/2/2 116/2/2
f 113/2/2 114/2/2 117/2/2
f 117/2/2 114/2/2 118/2/2
f 116/2/2 110/2/2 119/2/2
f 119/2/2 110/2/2 120/2/2
f 121/2/2 122/2/2 125/2/2
f 125/2/2 122/2/2 126/2/2
f 123/2/2 124/2/2 127/2/2
f 127/2/2 124/2/2 128/2/2
f 129/2/2 130/2/2 133/2/2
f 133/2/2 130/2/2 134/2/2
f 131/2/2 132/2/2 135/2/2
f 135/2/2 132/2/2 136/2/2
f 134/2/2 130/2/2 137/2/2
f 137/2/2 130/2/2 138/2/2
f 131/2/2 135/2/2 139/2/2
f 139/2/2 135/2/2 140/2/2
f 138/2/2 130/2/2 141/2/2
f 141/2/2 130/2/2 142/2/2
f 131/2/2 139/2/2 143/2/2
f 143/2/2 139/2/2 144/2/2
f 145/2/2 146/2/2 149/2/2
f 147/2/2 148/2/2 150/2/2
f 145/2/2 149/2/2 151/2/2
f 149/2/2 150/2/2 151/2/2
f 150/2/2 148/2/2 152/2/2
f 151/2/2 150/2/2 152/2/2
f 153/2/2 154/2/2 157/2/2
f 157/2/2 154/2/2 158/2/2
f 155/2/2 156/2/2 159/2/2
f 159/2/2 156/2/2 160/2/2
f 161/2/2 162/2/2 165/2/2
f 165/2/2 162/2/2 166/2/2
f 163/2/2 164/2/2 167/2/2
f 167/2/2 164/2/2 168/2/2
f 169/1/2 170/1/2 173/1/2
f 173/1/2 170/1/2 174/1/2
f 171/1/2 172/1/2 175/1/2
f 175/1/2 172/1/2 176/1/2
f 177/1/2 178/1/2 181/1/2
f 181/1/2 178/1/2 182/1/2
f 179/1/2 180/1/2 183/1/2
f 183/1/2 180/1/2 184/1/2
f 185/1/2 186/1/2 189/1/2
f 189/1/2 186/1/2 190/1/2
f 187/1/2 188/1/2 191/1/2
f 191/1/2 188/1/2 192/1/2
f 193/1/2 194/1/2 195/1/2
f 195/1/2 194/1/2 196/1/2
f 199/1/3 198/1/3 197/1/3
f 200/1/3 198/1/3 199/1/3
f 203/1/3 202/1/3 201/1/3
f 204/1/3 202/1/3 203/1/3
f 207/1/3 206/1/3 205/1/3
f 208/1/3 206/1/3 207/1/3
f 211/1/3 210/1/3 209/1/3
f 212/1/3 210/1/3 211/1/3
f 215/1/3 214/1/3 213/1/3
f 216/1/3 214/1/3 215/1/3
f 219/1/3 218/1/3 217/1/3
f 220/1/3 218/1/3 219/1/3
f 223/1/3 222/1/3 221/1/3
f 224/1/3 222/1/3 223/1/3
f 227/2/3 226/2/3 225/2/3
f 228/2/3 226/2/3 227/2/3
f 231/2/3 230/2/3 229/2/3
f 232/2/3 230/2/3 231/2/3
f 235/2/3 234/2/3 233/2/3
f 236/2/3 234/2/3 235/2/3
f 239/2/3 238/2/3 237/2/3
f 240/2/3 238/2/3 239/2/3
f 243/2/3 242/2/3 241/2/3
f 244/2/3 242/2/3 243/2/3
f 246/2/3 242/2/3 244/2/3
f 247/2/3 246/2/3 245/2/3
f 248/2/3 242/2/3 246/2/3
f 248/2/3 246/2/3 247/2/3
f 251/2/3 250/2/3 249/2/3
f 253/2/3 252/2/3 251/2/3
f 255/2/3 251/2/3 249/2/3
f 255/2/3 254/2/3 253/2/3
f 255/2/3 253/2/3 251/2/3
f 256/2/3 254/2/3 255/2/3
f 259/2/3 258/2/3 257/2/3
f 260/2/3 258/2/3 259/2/3
f 261/2/3 259/2/3 257/2/3
f 262/2/3 259/2/3 261/2/3
f 263/2/3 261/2/3 257/2/3
f 264/2/3 261/2/3 263/2/3
f 267/2/3 266/2/3 265/2/3
f 268/2/3 266/2/3 267/2/3
f 271/2/3 270/2/3 269/2/3
f 272/2/3 270/2/3 271/2/3
f 275/2/3 274/2/3 273/2/3
f 277/2/3 276/2/3 275/2/3
f 279/2/3 278/2/3 277/2/3
f 280/2/3 278/2/3 279/2/3
f 281/2/3 275/2/3 273/2/3
f 281/2/3 277/2/3 275/2/3
f 281/2/3 279/2/3 277/2/3
f 282/2/3 279/2/3 281/2/3
f 286/2/3 284/2/3 283/2/3
f 287/2/3 284/2/3 286/2/3
f 288/2/3 286/2/3 285/2/3
f 289/2/3 286/2/3 288/2/3
f 290/2/3 288/2/3 285/2/3
f 291/2/3 288/2/3 290/2/3
f 292/2/3 290/2/3 285/2/3
f 293/2/3 290/2/3 292/2/3
f 294/2/4 295/2/4 296/2/4
f 296/2/4 295/2/4 297/2/4
f 298/2/4 299/2/4 300/2/4
f 300/2/4 301/2/4 302/2/4
f 302/2/4 303/2/4 304/2/4
f 304/2/4 303/2/4 305/2/4
f 298/2/4 300/2/4 306/2/4
f 300/2/4 302/2/4 306/2/4
f 302/2/4 304/2/4 306/2/4
f 306/2/4 304/2/4 307/2/4
f 307/2/4 308/2/4 309/2/4
f 309/2/4 308/2/4 310/2/4
f 311/2/4 312/2/4 313/2/4
f 313/2/4 312/2/4 314/2/4
f 311/2/4 313/2/4 315/2/4
f 315/2/4 313/2/4 316/2/4
f 311/2/4 315/2/4 317/2/4
f 317/2/4 315/2/4 318/2/4
f 311/2/4 317/2/4 319/2/4
f 319/2/4 317/2/4 320/2/4
f 321/2/4 322/2/4 323/2/4
f 323/2/4 324/2/4 325/2/4
f 321/2/4 323/2/4 327/2/4
f 325/2/4 326/2/4 327/2/4
f 323/2/4 325/2/4 327/2/4
f 327/2/4 326/2/4 328/2/4
f 329/2/4 330/2/4 331/2/4
f 331/2/4 330/2/4 332/2/4
f 333/2/4 334/2/4 335/2/4
f 335/2/4 334/2/4 336/2/4
f 333/2/4 335/2/4 337/2/4
f 337/2/4 335/2/4 338/2/4
f 333/2/4 337/2/4 339/2/4
f 339/2/4 337/2/4 340/2/4
f 341/2/4 342/2/4 343/2/4
f 343/2/4 342/2/4 344/2/4
f 344/2/4 342/2/4 346/2/4
f 345/2/4 346/2/4 347/2/4
f 346/2/4 342/2/4 348/2/4
f 347/2/4 346/2/4 348/2/4
f 349/2/4 350/2/4 351/2/4
f 351/2/4 350/2/4 352/2/4
f 353/2/4 354/2/4 355/2/4
f 355/2/4 354/2/4 356/2/4
f 357/2/4 358/2/4 359/2/4
f 359/2/4 358/2/4 360/2/4
f 361/2/4 362/2/4 363/2/4
f 363/2/4 362/2/4 364/2/4
f 365/1/4 366/1/4 367/1/4
f 367/1/4 366/1/4 368/1/4
f 369/1/4 370/1/4 371/1/4
f 371/1/4 370/1/4 372/1/4
f 373/1/4 374/1/4 375/1/4
f 375/1/4 374/1/4 376/1/4
f 377/1/4 378/1/4 379/1/4
f 379/1/4 378/1/4 380/1/4
f 381/1/4 382/1/4 383/1/4
f 383/1/4 382/1/4 384/1/4
f 385/1/4 386/1/4 387/1/4
f 387/1/4 386/1/4 388/1/4
f 389/1/4 390/1/4 391/1/4
f 391/1/4 390/1/4 392/1/4
f 398/2/5 394/2/5 393/2/5
f 399/2/5 396/2/5 395/2/5
f 401/2/5 398/2/5 397/2/5
f 402/2/5 394/2/5 398/2/5
f 402/2/5 398/2/5 401/2/5
f 403/2/5 400/2/5 399/2/5
f 403/2/5 399/2/5 395/2/5
f 404/2/5 400/2/5 403/2/5
f 409/2/5 406/2/5 405/2/5
f 410/2/5 406/2/5 409/2/5
f 411/2/5 408/2/5 407/2/5
f 412/2/5 408/2/5 411/2/5
f 413/2/5 406/2/5 410/2/5
f 414/2/5 406/2/5 413/2/5
f 415/2/5 411/2/5 407/2/5
f 416/2/5 411/2/5 415/2/5
f 419/2/5 418/2/5 417/2/5
f 420/2/5 418/2/5 419/2/5
f 422/2/5 419/2/5 417/2/5
f 423/2/5 419/2/5 422/2/5
f 426/2/5 422/2/5 421/2/5
f 429/2/5 425/2/5 424/2/5
f 430/2/5 427/2/5 426/2/5
f 430/2/5 426/2/5 421/2/5
f 431/2/5 427/2/5 430/2/5
f 432/2/5 427/2/5 431/2/5
f 433/2/5 429/2/5 428/2/5
f 434/2/5 425/2/5 429/2/5
f 434/2/5 429/2/5 433/2/5
f 435/2/5 432/2/5 431/2/5
f 435/2/5 433/2/5 432/2/5
f 436/2/5 433/2/5 435/2/5
f 442/2/5 438/2/5 437/2/5
f 443/2/5 438/2/5 442/2/5
f 445/2/5 442/2/5 441/2/5
f 445/2/5 444/2/5 443/2/5
f 445/2/5 443/2/5 442/2/5
f 446/2/5 444/2/5 445/2/5
f 447/2/5 444/2/5 446/2/5
f 448/2/5 444/2/5 447/2/5
f 449/2/5 440/2/5 439/2/5
f 450/2/5 440/2/5 449/2/5
f 451/2/5 447/2/5 446/2/5
f 452/2/5 447/2/5 451/2/5
f 455/2/5 454/2/5 453/2/5
f 456/2/5 454/2/5 455/2/5
f 460/1/5 458/1/5 457/1/5
f 461/1/5 458/1/5 460/1/5
f 464/1/5 460/1/5 459/1/5
f 464/1/5 462/1/5 461/1/5
f 464/1/5 461/1/5 460/1/5
f 465/1/5 462/1/5 464/1/5
f 468/1/5 464/1/5 463/1/5
f 468/1/5 466/1/5 465/1/5
f 468/1/5 465/1/5 464/1/5
f 469/1/5 466/1/5 468/1/5
f 471/1/5 468/1/5 467/1/5
f 471/1/5 470/1/5 469/1/5
f 471/1/5 469/1/5 468/1/5
f 472/1/5 470/1/5 471/1/5
f 473/1/5 471/1/5 467/1/5
f 474/1/5 471/1/5 473/1/5
f 475/1/5 470/1/5 472/1/5
f 476/1/5 470/1/5 475/1/5
f 477/1/5 473/1/5 467/1/5
f 480/1/5 470/1/5 476/1/5
f 481/1/5 478/1/5 477/1/5
f 482/1/5 480/1/5 479/1/5
f 483/1/5 481/1/5 477/1/5
f 483/1/5 482/1/5 481/1/5
f 483/1/5 477/1/5 467/1/5
f 484/1/5 482/1/5 483/1/5
f 485/1/5 480/1/5 482/1/5
f 485/1/5 482/1/5 484/1/5
f 485/1/5 470/1/5 480/1/5
f 486/1/5 470/1/5 485/1/5
f 487/1/5 485/1/5 484/1/5
f 488/1/5 485/1/5 487/1/5
f 489/1/5 485/1/5 488/1/5
f 490/1/5 485/1/5 489/1/5
f 491/1/5 489/1/5 488/1/5
f 492/1/5 489/1/5 491/1/5
f 493/1/5 489/1/5 492/1/5
f 494/1/5 489/1/5 493/1/5
f 495/1/5 493/1/5 492/1/5
f 496/1/5 493/1/5 495/1/5
f 497/2/6 498/2/6 501/2/6
f 501/2/6 498/2/6 502/2/6
f 499/2/6 500/2/6 503/2/6
f 503/2/6 500/2/6 504/2/6
f 505/2/6 506/2/6 509/2/6
f 509/2/6 506/2/6 510/2/6
f 507/2/6 508/2/6 511/2/6
f 511/2/6 508/2/6 512/2/6
f 513/2/6 514/2/6 517/2/6
f 517/2/6 514/2/6 518/2/6
f 515/2/6 516/2/6 519/2/6
f 519/2/6 516/2/6 520/2/6
f 521/2/6 522/2/6 525/2/6
f 525/2/6 522/2/6 526/2/6
f 523/2/6 524/2/6 527/2/6
f 527/2/6 524/2/6 528/2/6
f 529/2/6 530/2/6 533/2/6
f 533/2/6 530/2/6 534/2/6
f 531/2/6 532/2/6 535/2/6
f 535/2/6 532/2/6 536/2/6
f 537/2/6 538/2/6 541/2/6
f 541/2/6 538/2/6 542/2/6
f 539/2/6 540/2/6 543/2/6
f 543/2/6 540/2/6 544/2/6
f 545/2/6 546/2/6 549/2/6
f 549/2/6 546/2/6 550/2/6
f 547/2/6 548/2/6 551/2/6
f 551/2/6 548/2/6 552/2/6
f 553/2/6 554/2/6 557/2/6
f 557/2/6 554/2/6 558/2/6
f 555/2/6 556/2/6 559/2/6
f 559/2/6 556/2/6 560/2/6
f 561/1/6 562/1/6 564/1/6
f 564/1/6 562/1/6 565/1/6
f 563/1/6 564/1/6 568/1/6
f 565/1/6 566/1/6 568/1/6
f 564/1/6 565/1/6 568/1/6
f 568/1/6 566/1/6 569/1/6
f 567/1/6 568/1/6 572/1/6
f 569/1/6 570/1/6 572/1/6
f 568/1/6 569/1/6 572/1/6
f 572/1/6 570/1/6 573/1/6
f 571/1/6 572/1/6 575/1/6
f 573/1/6 574/1/6 575/1/6
f 572/1/6 573/1/6 575/1/6
f 575/1/6 574/1/6 576/1/6
f 576/1/6 574/1/6 577/1/6
f 577/1/6 574/1/6 578/1/6
f 576/1/6 577/1/6 579/1/6
f 579/1/6 577/1/6 580/1/6
f 580/1/6 577/1/6 581/1/6
f 581/1/6 577/1/6 582/1/6
f 580/1/6 581/1/6 583/1/6
f 583/1/6 581/1/6 584/1/6
f 584/1/6 581/1/6 585/1/6
f 585/1/6 581/1/6 586/1/6
f 584/1/6 585/1/6 587/1/6
f 587/1/6 585/1/6 588/1/6
