# MagicaVoxel @ Ephtracy

# group
o 

# material
mtllib underpants_man.mtl
usemtl palette

# normals
vn -1 0 0
vn 1 0 0
vn 0 0 1
vn 0 0 -1
vn 0 -1 0
vn 0 1 0

# texcoords
vt 0.00195313 0.5
vt 0.841797 0.5
vt 0.962891 0.5

# verts
v -1.5 1.1 0.2
v -1.5 1.1 -0.1
v -1.5 1.3 0.2
v -1.5 1.3 -0.1
v -1.5 2.2 0.2
v -1.5 2.2 -0.1
v -1.4 0.9 0.2
v -1.4 0.9 -0.1
v -1.4 1.1 0.2
v -1.4 1.1 -0.1
v -1.4 2.2 0.2
v -1.4 2.2 -0.1
v -1.4 2.4 0.2
v -1.4 2.4 -0.1
v -1.3 0.7 0.2
v -1.3 0.7 -0.1
v -1.3 0.9 0.2
v -1.3 0.9 -0.1
v -1.3 2.4 0.2
v -1.3 2.4 -0.1
v -1.3 2.6 0.2
v -1.3 2.6 -0.1
v -1.2 0.5 0.2
v -1.2 0.5 -0.1
v -1.2 0.7 0.2
v -1.2 0.7 -0.1
v -1.2 2.6 0.2
v -1.2 2.6 -0.1
v -1.2 2.7 0.2
v -1.2 2.7 -0.1
v -1.2 2.8 0.2
v -1.2 2.8 -0.1
v -1.1 0.3 0.2
v -1.1 0.3 -0.1
v -1.1 0.5 0.2
v -1.1 0.5 -0.1
v -1.1 2.8 0.2
v -1.1 2.8 -0.1
v -1.1 2.9 0.2
v -1.1 2.9 -0.1
v -1.1 3 0.2
v -1.1 3 -0.1
v -1 0.1 0.2
v -1 0.1 -0.1
v -1 0.3 0.2
v -1 0.3 -0.1
v -0.9 0 0.2
v -0.9 0 -0.1
v -0.9 0.1 0.2
v -0.9 0.1 -0.1
v 0.9 0 0.2
v 0.9 0 -0.1
v 0.9 0.1 0.2
v 0.9 0.1 -0.1
v 1 0.1 0.2
v 1 0.1 -0.1
v 1 0.3 0.2
v 1 0.3 -0.1
v 1.1 0.3 0.2
v 1.1 0.3 -0.1
v 1.1 0.5 0.2
v 1.1 0.5 -0.1
v 1.1 2.8 0.2
v 1.1 2.8 -0.1
v 1.1 2.9 0.2
v 1.1 2.9 -0.1
v 1.1 3 0.2
v 1.1 3 -0.1
v 1.2 0.5 0.2
v 1.2 0.5 -0.1
v 1.2 0.7 0.2
v 1.2 0.7 -0.1
v 1.2 2.6 0.2
v 1.2 2.6 -0.1
v 1.2 2.7 0.2
v 1.2 2.7 -0.1
v 1.2 2.8 0.2
v 1.2 2.8 -0.1
v 1.3 0.7 0.2
v 1.3 0.7 -0.1
v 1.3 0.9 0.2
v 1.3 0.9 -0.1
v 1.3 2.4 0.2
v 1.3 2.4 -0.1
v 1.3 2.6 0.2
v 1.3 2.6 -0.1
v 1.4 0.9 0.2
v 1.4 0.9 -0.1
v 1.4 1.1 0.2
v 1.4 1.1 -0.1
v 1.4 2.2 0.2
v 1.4 2.2 -0.1
v 1.4 2.4 0.2
v 1.4 2.4 -0.1
v 1.5 1.1 0.2
v 1.5 1.1 -0.1
v 1.5 1.3 0.2
v 1.5 1.3 -0.1
v 1.5 2.2 0.2
v 1.5 2.2 -0.1
v -1.5 1.1 0.2
v -1.5 1.3 0.2
v -1.5 2.2 0.2
v -1.4 0.9 0.2
v -1.4 1.1 0.2
v -1.4 2.2 0.2
v -1.4 2.4 0.2
v -1.3 0.7 0.2
v -1.3 0.9 0.2
v -1.3 1.1 0.2
v -1.3 1.2 0.2
v -1.3 1.3 0.2
v -1.3 1.4 0.2
v -1.3 2.4 0.2
v -1.3 2.6 0.2
v -1.2 0.5 0.2
v -1.2 0.7 0.2
v -1.2 2.6 0.2
v -1.2 2.7 0.2
v -1.2 2.8 0.2
v -1.1 0.3 0.2
v -1.1 0.5 0.2
v -1.1 1.2 0.2
v -1.1 1.3 0.2
v -1.1 1.4 0.2
v -1.1 1.5 0.2
v -1.1 2.8 0.2
v -1.1 2.9 0.2
v -1.1 3 0.2
v -1 0.1 0.2
v -1 0.3 0.2
v -0.9 0 0.2
v -0.9 0.1 0.2
v -0.9 0.2 0.2
v -0.9 1.5 0.2
v -0.9 2 0.2
v -0.8 0.2 0.2
v -0.8 0.4 0.2
v -0.8 1.2 0.2
v -0.8 1.3 0.2
v -0.8 2 0.2
v -0.8 2.3 0.2
v -0.7 0.4 0.2
v -0.7 0.6 0.2
v -0.7 1.1 0.2
v -0.7 1.2 0.2
v -0.7 2.4 0.2
v -0.7 2.7 0.2
v -0.6 0.6 0.2
v -0.6 0.8 0.2
v -0.6 1 0.2
v -0.6 1.1 0.2
v -0.5 0.8 0.2
v -0.5 0.9 0.2
v -0.2 1 0.2
v -0.2 1.1 0.2
v -0.2 2.1 0.2
v -0.2 2.3 0.2
v -0.1 1 0.2
v -0.1 1.1 0.2
v -0.1 1.3 0.2
v -0.1 1.9 0.2
v -0.1 2.1 0.2
v -0.1 2.3 0.2
v 0 1 0.2
v 0 1.1 0.2
v 0 1.3 0.2
v 0 1.5 0.2
v 0 1.7 0.2
v 0 1.9 0.2
v 0 2.1 0.2
v 0 2.2 0.2
v 0 2.3 0.2
v 0.1 1 0.2
v 0.1 1.1 0.2
v 0.1 1.2 0.2
v 0.1 1.3 0.2
v 0.1 1.5 0.2
v 0.1 1.7 0.2
v 0.1 1.9 0.2
v 0.1 2 0.2
v 0.1 2.2 0.2
v 0.1 2.3 0.2
v 0.2 1.1 0.2
v 0.2 1.2 0.2
v 0.2 1.4 0.2
v 0.2 1.5 0.2
v 0.2 1.7 0.2
v 0.2 1.8 0.2
v 0.2 2 0.2
v 0.2 2.2 0.2
v 0.3 1.2 0.2
v 0.3 1.4 0.2
v 0.3 1.5 0.2
v 0.3 1.6 0.2
v 0.3 1.8 0.2
v 0.3 2 0.2
v 0.4 1.4 0.2
v 0.4 1.5 0.2
v 0.4 1.6 0.2
v 0.4 1.8 0.2
v 0.5 0.8 0.2
v 0.5 0.9 0.2
v 0.5 1.5 0.2
v 0.5 1.6 0.2
v 0.6 0.6 0.2
v 0.6 0.8 0.2
v 0.6 1 0.2
v 0.6 1.1 0.2
v 0.7 0.4 0.2
v 0.7 0.6 0.2
v 0.7 1.1 0.2
v 0.7 1.2 0.2
v 0.7 2.4 0.2
v 0.7 2.7 0.2
v 0.8 0.2 0.2
v 0.8 0.4 0.2
v 0.8 1.2 0.2
v 0.8 1.3 0.2
v 0.8 2 0.2
v 0.8 2.3 0.2
v 0.9 0 0.2
v 0.9 0.1 0.2
v 0.9 0.2 0.2
v 0.9 1.5 0.2
v 0.9 2 0.2
v 1 0.1 0.2
v 1 0.3 0.2
v 1.1 0.3 0.2
v 1.1 0.5 0.2
v 1.1 1.2 0.2
v 1.1 1.3 0.2
v 1.1 1.4 0.2
v 1.1 1.5 0.2
v 1.1 2.8 0.2
v 1.1 2.9 0.2
v 1.1 3 0.2
v 1.2 0.5 0.2
v 1.2 0.7 0.2
v 1.2 2.6 0.2
v 1.2 2.7 0.2
v 1.2 2.8 0.2
v 1.3 0.7 0.2
v 1.3 0.9 0.2
v 1.3 1.1 0.2
v 1.3 1.2 0.2
v 1.3 1.3 0.2
v 1.3 1.4 0.2
v 1.3 2.4 0.2
v 1.3 2.6 0.2
v 1.4 0.9 0.2
v 1.4 1.1 0.2
v 1.4 2.2 0.2
v 1.4 2.4 0.2
v 1.5 1.1 0.2
v 1.5 1.3 0.2
v 1.5 2.2 0.2
v -1.5 1.1 -0.1
v -1.5 1.3 -0.1
v -1.5 2.2 -0.1
v -1.4 0.9 -0.1
v -1.4 1.1 -0.1
v -1.4 2.2 -0.1
v -1.4 2.4 -0.1
v -1.3 0.7 -0.1
v -1.3 0.9 -0.1
v -1.3 1.1 -0.1
v -1.3 1.2 -0.1
v -1.3 1.3 -0.1
v -1.3 1.4 -0.1
v -1.3 2.4 -0.1
v -1.3 2.6 -0.1
v -1.2 0.5 -0.1
v -1.2 0.7 -0.1
v -1.2 2.6 -0.1
v -1.2 2.7 -0.1
v -1.2 2.8 -0.1
v -1.1 0.3 -0.1
v -1.1 0.5 -0.1
v -1.1 1.2 -0.1
v -1.1 1.3 -0.1
v -1.1 1.4 -0.1
v -1.1 1.5 -0.1
v -1.1 2.8 -0.1
v -1.1 2.9 -0.1
v -1.1 3 -0.1
v -1 0.1 -0.1
v -1 0.3 -0.1
v -0.9 0 -0.1
v -0.9 0.1 -0.1
v -0.9 0.2 -0.1
v -0.9 1.5 -0.1
v -0.9 2 -0.1
v -0.8 0.2 -0.1
v -0.8 0.4 -0.1
v -0.8 1.2 -0.1
v -0.8 1.3 -0.1
v -0.8 2 -0.1
v -0.8 2.3 -0.1
v -0.7 0.4 -0.1
v -0.7 0.6 -0.1
v -0.7 1.1 -0.1
v -0.7 1.2 -0.1
v -0.7 2.3 -0.1
v -0.7 2.7 -0.1
v -0.6 0.6 -0.1
v -0.6 0.8 -0.1
v -0.6 1 -0.1
v -0.6 1.1 -0.1
v -0.5 0.8 -0.1
v -0.5 1 -0.1
v 0.5 0.8 -0.1
v 0.5 1 -0.1
v 0.6 0.6 -0.1
v 0.6 0.8 -0.1
v 0.6 1 -0.1
v 0.6 1.1 -0.1
v 0.7 0.4 -0.1
v 0.7 0.6 -0.1
v 0.7 1.1 -0.1
v 0.7 1.2 -0.1
v 0.7 2.3 -0.1
v 0.7 2.7 -0.1
v 0.8 0.2 -0.1
v 0.8 0.4 -0.1
v 0.8 1.2 -0.1
v 0.8 1.3 -0.1
v 0.8 2 -0.1
v 0.8 2.3 -0.1
v 0.9 0 -0.1
v 0.9 0.1 -0.1
v 0.9 0.2 -0.1
v 0.9 1.5 -0.1
v 0.9 2 -0.1
v 1 0.1 -0.1
v 1 0.3 -0.1
v 1.1 0.3 -0.1
v 1.1 0.5 -0.1
v 1.1 1.2 -0.1
v 1.1 1.3 -0.1
v 1.1 1.4 -0.1
v 1.1 1.5 -0.1
v 1.1 2.8 -0.1
v 1.1 2.9 -0.1
v 1.1 3 -0.1
v 1.2 0.5 -0.1
v 1.2 0.7 -0.1
v 1.2 2.6 -0.1
v 1.2 2.7 -0.1
v 1.2 2.8 -0.1
v 1.3 0.7 -0.1
v 1.3 0.9 -0.1
v 1.3 1.1 -0.1
v 1.3 1.2 -0.1
v 1.3 1.3 -0.1
v 1.3 1.4 -0.1
v 1.3 2.4 -0.1
v 1.3 2.6 -0.1
v 1.4 0.9 -0.1
v 1.4 1.1 -0.1
v 1.4 2.2 -0.1
v 1.4 2.4 -0.1
v 1.5 1.1 -0.1
v 1.5 1.3 -0.1
v 1.5 2.2 -0.1
v -0.9 0 0.2
v 0.9 0 0.2
v -0.9 0 -0.1
v 0.9 0 -0.1
v -1 0.1 0.2
v -0.9 0.1 0.2
v 0.9 0.1 0.2
v 1 0.1 0.2
v -1 0.1 -0.1
v -0.9 0.1 -0.1
v 0.9 0.1 -0.1
v 1 0.1 -0.1
v -1.1 0.3 0.2
v -1 0.3 0.2
v 1 0.3 0.2
v 1.1 0.3 0.2
v -1.1 0.3 -0.1
v -1 0.3 -0.1
v 1 0.3 -0.1
v 1.1 0.3 -0.1
v -1.2 0.5 0.2
v -1.1 0.5 0.2
v 1.1 0.5 0.2
v 1.2 0.5 0.2
v -1.2 0.5 -0.1
v -1.1 0.5 -0.1
v 1.1 0.5 -0.1
v 1.2 0.5 -0.1
v -1.3 0.7 0.2
v -1.2 0.7 0.2
v 1.2 0.7 0.2
v 1.3 0.7 0.2
v -1.3 0.7 -0.1
v -1.2 0.7 -0.1
v 1.2 0.7 -0.1
v 1.3 0.7 -0.1
v -1.4 0.9 0.2
v -1.3 0.9 0.2
v 1.3 0.9 0.2
v 1.4 0.9 0.2
v -1.4 0.9 -0.1
v -1.3 0.9 -0.1
v 1.3 0.9 -0.1
v 1.4 0.9 -0.1
v -1.5 1.1 0.2
v -1.4 1.1 0.2
v 1.4 1.1 0.2
v 1.5 1.1 0.2
v -1.5 1.1 -0.1
v -1.4 1.1 -0.1
v 1.4 1.1 -0.1
v 1.5 1.1 -0.1
v -1.5 2.2 0.2
v -1.4 2.2 0.2
v 1.4 2.2 0.2
v 1.5 2.2 0.2
v -1.5 2.2 -0.1
v -1.4 2.2 -0.1
v 1.4 2.2 -0.1
v 1.5 2.2 -0.1
v -1.4 2.4 0.2
v -1.3 2.4 0.2
v 1.3 2.4 0.2
v 1.4 2.4 0.2
v -1.4 2.4 -0.1
v -1.3 2.4 -0.1
v 1.3 2.4 -0.1
v 1.4 2.4 -0.1
v -1.3 2.6 0.2
v -1.2 2.6 0.2
v 1.2 2.6 0.2
v 1.3 2.6 0.2
v -1.3 2.6 -0.1
v -1.2 2.6 -0.1
v 1.2 2.6 -0.1
v 1.3 2.6 -0.1
v -1.2 2.8 0.2
v -1.1 2.8 0.2
v 1.1 2.8 0.2
v 1.2 2.8 0.2
v -1.2 2.8 -0.1
v -1.1 2.8 -0.1
v 1.1 2.8 -0.1
v 1.2 2.8 -0.1
v -1.1 3 0.2
v 1.1 3 0.2
v -1.1 3 -0.1
v 1.1 3 -0.1

# faces
f 3/1/1 2/1/1 1/1/1
f 4/1/1 2/1/1 3/1/1
f 5/3/1 4/3/1 3/3/1
f 6/3/1 4/3/1 5/3/1
f 9/3/1 8/3/1 7/3/1
f 10/3/1 8/3/1 9/3/1
f 13/3/1 12/3/1 11/3/1
f 14/3/1 12/3/1 13/3/1
f 17/3/1 16/3/1 15/3/1
f 18/3/1 16/3/1 17/3/1
f 21/3/1 20/3/1 19/3/1
f 22/3/1 20/3/1 21/3/1
f 25/3/1 24/3/1 23/3/1
f 26/3/1 24/3/1 25/3/1
f 29/3/1 28/3/1 27/3/1
f 30/3/1 28/3/1 29/3/1
f 31/1/1 30/1/1 29/1/1
f 32/1/1 30/1/1 31/1/1
f 35/3/1 34/3/1 33/3/1
f 36/3/1 34/3/1 35/3/1
f 39/2/1 38/2/1 37/2/1
f 40/2/1 38/2/1 39/2/1
f 41/1/1 40/1/1 39/1/1
f 42/1/1 40/1/1 41/1/1
f 45/3/1 44/3/1 43/3/1
f 46/3/1 44/3/1 45/3/1
f 49/1/1 48/1/1 47/1/1
f 50/1/1 48/1/1 49/1/1
f 51/1/2 52/1/2 53/1/2
f 53/1/2 52/1/2 54/1/2
f 55/3/2 56/3/2 57/3/2
f 57/3/2 56/3/2 58/3/2
f 59/3/2 60/3/2 61/3/2
f 61/3/2 60/3/2 62/3/2
f 63/2/2 64/2/2 65/2/2
f 65/2/2 64/2/2 66/2/2
f 65/1/2 66/1/2 67/1/2
f 67/1/2 66/1/2 68/1/2
f 69/3/2 70/3/2 71/3/2
f 71/3/2 70/3/2 72/3/2
f 73/3/2 74/3/2 75/3/2
f 75/3/2 74/3/2 76/3/2
f 75/1/2 76/1/2 77/1/2
f 77/1/2 76/1/2 78/1/2
f 79/3/2 80/3/2 81/3/2
f 81/3/2 80/3/2 82/3/2
f 83/3/2 84/3/2 85/3/2
f 85/3/2 84/3/2 86/3/2
f 87/3/2 88/3/2 89/3/2
f 89/3/2 88/3/2 90/3/2
f 91/3/2 92/3/2 93/3/2
f 93/3/2 92/3/2 94/3/2
f 95/1/2 96/1/2 97/1/2
f 97/1/2 96/1/2 98/1/2
f 97/3/2 98/3/2 99/3/2
f 99/3/2 98/3/2 100/3/2
f 105/1/3 102/1/3 101/1/3
f 106/3/3 103/3/3 102/3/3
f 109/3/3 105/3/3 104/3/3
f 110/1/3 102/1/3 105/1/3
f 110/3/3 105/3/3 109/3/3
f 111/1/3 102/1/3 110/1/3
f 112/3/3 107/3/3 106/3/3
f 112/1/3 102/1/3 111/1/3
f 112/3/3 106/3/3 102/3/3
f 113/3/3 107/3/3 112/3/3
f 114/3/3 107/3/3 113/3/3
f 117/3/3 111/3/3 110/3/3
f 117/3/3 109/3/3 108/3/3
f 117/3/3 110/3/3 109/3/3
f 118/3/3 115/3/3 114/3/3
f 118/3/3 114/3/3 113/3/3
f 122/3/3 117/3/3 116/3/3
f 123/3/3 111/3/3 117/3/3
f 123/1/3 113/1/3 112/1/3
f 123/3/3 117/3/3 122/3/3
f 123/1/3 112/1/3 111/1/3
f 124/1/3 113/1/3 123/1/3
f 125/3/3 119/3/3 118/3/3
f 125/1/3 113/1/3 124/1/3
f 125/3/3 118/3/3 113/3/3
f 126/3/3 119/3/3 125/3/3
f 127/1/3 120/1/3 119/1/3
f 131/3/3 122/3/3 121/3/3
f 131/3/3 124/3/3 123/3/3
f 131/3/3 123/3/3 122/3/3
f 133/3/3 131/3/3 130/3/3
f 134/3/3 131/3/3 133/3/3
f 135/3/3 119/3/3 126/3/3
f 135/1/3 125/1/3 124/1/3
f 135/1/3 126/1/3 125/1/3
f 136/3/3 119/3/3 135/3/3
f 137/3/3 131/3/3 134/3/3
f 137/1/3 134/1/3 133/1/3
f 137/1/3 133/1/3 132/1/3
f 138/3/3 124/3/3 131/3/3
f 138/3/3 131/3/3 137/3/3
f 139/3/3 124/3/3 138/3/3
f 140/1/3 136/1/3 135/1/3
f 140/3/3 124/3/3 139/3/3
f 140/1/3 135/1/3 124/1/3
f 141/3/3 119/3/3 136/3/3
f 141/1/3 136/1/3 140/1/3
f 142/3/3 119/3/3 141/3/3
f 143/3/3 139/3/3 138/3/3
f 143/1/3 138/1/3 137/1/3
f 144/3/3 139/3/3 143/3/3
f 145/3/3 139/3/3 144/3/3
f 146/1/3 140/1/3 139/1/3
f 146/3/3 139/3/3 145/3/3
f 146/1/3 142/1/3 141/1/3
f 146/1/3 141/1/3 140/1/3
f 147/3/3 119/3/3 142/3/3
f 148/1/3 127/1/3 119/1/3
f 148/3/3 119/3/3 147/3/3
f 149/3/3 145/3/3 144/3/3
f 149/1/3 144/1/3 143/1/3
f 150/3/3 145/3/3 149/3/3
f 151/3/3 145/3/3 150/3/3
f 152/1/3 146/1/3 145/1/3
f 152/3/3 145/3/3 151/3/3
f 153/3/3 151/3/3 150/3/3
f 153/1/3 150/1/3 149/1/3
f 154/3/3 151/3/3 153/3/3
f 155/1/3 152/1/3 151/1/3
f 155/3/3 151/3/3 154/3/3
f 156/1/3 146/1/3 152/1/3
f 156/1/3 152/1/3 155/1/3
f 157/1/3 142/1/3 146/1/3
f 157/1/3 146/1/3 156/1/3
f 158/3/3 147/3/3 142/3/3
f 158/1/3 142/1/3 157/1/3
f 159/3/3 156/3/3 155/3/3
f 159/3/3 155/3/3 154/3/3
f 160/1/3 157/1/3 156/1/3
f 160/3/3 156/3/3 159/3/3
f 161/1/3 157/1/3 160/1/3
f 162/1/3 157/1/3 161/1/3
f 163/3/3 158/3/3 157/3/3
f 163/1/3 157/1/3 162/1/3
f 164/3/3 147/3/3 158/3/3
f 164/3/3 158/3/3 163/3/3
f 165/3/3 159/3/3 154/3/3
f 165/1/3 160/1/3 159/1/3
f 166/3/3 161/3/3 160/3/3
f 166/1/3 160/1/3 165/1/3
f 167/1/3 162/1/3 161/1/3
f 167/3/3 161/3/3 166/3/3
f 168/1/3 162/1/3 167/1/3
f 169/1/3 162/1/3 168/1/3
f 170/3/3 163/3/3 162/3/3
f 170/1/3 162/1/3 169/1/3
f 171/1/3 164/1/3 163/1/3
f 171/3/3 163/3/3 170/3/3
f 172/1/3 164/1/3 171/1/3
f 173/3/3 147/3/3 164/3/3
f 173/1/3 164/1/3 172/1/3
f 174/3/3 166/3/3 165/3/3
f 174/3/3 165/3/3 154/3/3
f 175/1/3 167/1/3 166/1/3
f 175/3/3 166/3/3 174/3/3
f 176/1/3 167/1/3 175/1/3
f 177/3/3 168/3/3 167/3/3
f 177/1/3 167/1/3 176/1/3
f 178/1/3 169/1/3 168/1/3
f 178/3/3 168/3/3 177/3/3
f 179/3/3 170/3/3 169/3/3
f 179/1/3 169/1/3 178/1/3
f 180/1/3 172/1/3 171/1/3
f 180/3/3 170/3/3 179/3/3
f 180/1/3 171/1/3 170/1/3
f 181/1/3 172/1/3 180/1/3
f 182/3/3 173/3/3 172/3/3
f 182/1/3 172/1/3 181/1/3
f 183/3/3 147/3/3 173/3/3
f 183/3/3 173/3/3 182/3/3
f 184/3/3 176/3/3 175/3/3
f 184/1/3 175/1/3 174/1/3
f 185/1/3 177/1/3 176/1/3
f 185/3/3 176/3/3 184/3/3
f 185/1/3 178/1/3 177/1/3
f 186/1/3 178/1/3 185/1/3
f 187/3/3 179/3/3 178/3/3
f 187/1/3 178/1/3 186/1/3
f 188/1/3 180/1/3 179/1/3
f 188/3/3 179/3/3 187/3/3
f 188/1/3 181/1/3 180/1/3
f 189/1/3 181/1/3 188/1/3
f 190/3/3 182/3/3 181/3/3
f 190/1/3 181/1/3 189/1/3
f 191/1/3 183/1/3 182/1/3
f 191/3/3 182/3/3 190/3/3
f 192/3/3 186/3/3 185/3/3
f 192/1/3 185/1/3 184/1/3
f 193/1/3 189/1/3 188/1/3
f 193/3/3 186/3/3 192/3/3
f 193/1/3 187/1/3 186/1/3
f 193/1/3 188/1/3 187/1/3
f 194/1/3 189/1/3 193/1/3
f 195/1/3 189/1/3 194/1/3
f 196/3/3 190/3/3 189/3/3
f 196/1/3 189/1/3 195/1/3
f 197/1/3 191/1/3 190/1/3
f 197/3/3 190/3/3 196/3/3
f 198/1/3 193/1/3 192/1/3
f 198/3/3 194/3/3 193/3/3
f 199/1/3 195/1/3 194/1/3
f 199/3/3 194/3/3 198/3/3
f 200/3/3 196/3/3 195/3/3
f 200/1/3 195/1/3 199/1/3
f 201/1/3 197/1/3 196/1/3
f 201/3/3 196/3/3 200/3/3
f 202/1/3 154/1/3 153/1/3
f 202/1/3 153/1/3 149/1/3
f 203/3/3 174/3/3 154/3/3
f 203/1/3 154/1/3 202/1/3
f 204/1/3 199/1/3 198/1/3
f 204/3/3 200/3/3 199/3/3
f 205/1/3 201/1/3 200/1/3
f 205/3/3 200/3/3 204/3/3
f 206/1/3 149/1/3 143/1/3
f 206/1/3 202/1/3 149/1/3
f 207/3/3 203/3/3 202/3/3
f 207/1/3 202/1/3 206/1/3
f 208/1/3 184/1/3 174/1/3
f 208/3/3 203/3/3 207/3/3
f 208/1/3 192/1/3 184/1/3
f 208/1/3 204/1/3 198/1/3
f 208/1/3 198/1/3 192/1/3
f 208/3/3 174/3/3 203/3/3
f 208/1/3 205/1/3 204/1/3
f 209/1/3 205/1/3 208/1/3
f 210/1/3 143/1/3 137/1/3
f 210/1/3 206/1/3 143/1/3
f 211/3/3 207/3/3 206/3/3
f 211/1/3 206/1/3 210/1/3
f 211/3/3 209/3/3 208/3/3
f 211/3/3 208/3/3 207/3/3
f 212/1/3 205/1/3 209/1/3
f 212/3/3 209/3/3 211/3/3
f 213/1/3 205/1/3 212/1/3
f 214/1/3 148/1/3 147/1/3
f 214/3/3 147/3/3 183/3/3
f 215/1/3 127/1/3 148/1/3
f 215/1/3 148/1/3 214/1/3
f 216/1/3 210/1/3 137/1/3
f 216/1/3 137/1/3 132/1/3
f 217/3/3 211/3/3 210/3/3
f 217/1/3 210/1/3 216/1/3
f 217/3/3 213/3/3 212/3/3
f 217/3/3 212/3/3 211/3/3
f 218/1/3 205/1/3 213/1/3
f 218/3/3 213/3/3 217/3/3
f 219/1/3 205/1/3 218/1/3
f 220/1/3 191/1/3 197/1/3
f 220/1/3 205/1/3 219/1/3
f 220/1/3 201/1/3 205/1/3
f 220/1/3 197/1/3 201/1/3
f 221/3/3 214/3/3 183/3/3
f 221/1/3 191/1/3 220/1/3
f 221/1/3 183/1/3 191/1/3
f 221/3/3 215/3/3 214/3/3
f 222/1/3 216/1/3 132/1/3
f 223/1/3 216/1/3 222/1/3
f 224/3/3 218/3/3 217/3/3
f 224/1/3 216/1/3 223/1/3
f 224/3/3 217/3/3 216/3/3
f 224/3/3 219/3/3 218/3/3
f 225/1/3 220/1/3 219/1/3
f 226/3/3 221/3/3 220/3/3
f 226/1/3 220/1/3 225/1/3
f 227/3/3 224/3/3 223/3/3
f 228/3/3 219/3/3 224/3/3
f 228/3/3 224/3/3 227/3/3
f 229/3/3 219/3/3 228/3/3
f 230/3/3 219/3/3 229/3/3
f 231/3/3 219/3/3 230/3/3
f 232/1/3 225/1/3 219/1/3
f 232/3/3 219/3/3 231/3/3
f 233/1/3 225/1/3 232/1/3
f 234/3/3 226/3/3 225/3/3
f 234/1/3 225/1/3 233/1/3
f 235/2/3 128/2/3 127/2/3
f 235/1/3 127/1/3 215/1/3
f 236/1/3 129/1/3 128/1/3
f 236/2/3 128/2/3 235/2/3
f 237/1/3 129/1/3 236/1/3
f 238/3/3 231/3/3 230/3/3
f 239/3/3 231/3/3 238/3/3
f 240/3/3 226/3/3 234/3/3
f 240/3/3 221/3/3 226/3/3
f 240/3/3 234/3/3 233/3/3
f 240/3/3 215/3/3 221/3/3
f 241/1/3 235/1/3 215/1/3
f 241/3/3 215/3/3 240/3/3
f 242/1/3 235/1/3 241/1/3
f 243/3/3 231/3/3 239/3/3
f 244/3/3 231/3/3 243/3/3
f 245/3/3 231/3/3 244/3/3
f 246/1/3 232/1/3 231/1/3
f 246/3/3 231/3/3 245/3/3
f 246/1/3 233/1/3 232/1/3
f 247/1/3 233/1/3 246/1/3
f 248/3/3 240/3/3 233/3/3
f 248/1/3 233/1/3 247/1/3
f 249/3/3 240/3/3 248/3/3
f 250/3/3 240/3/3 249/3/3
f 251/3/3 245/3/3 244/3/3
f 252/1/3 247/1/3 246/1/3
f 252/3/3 245/3/3 251/3/3
f 252/1/3 246/1/3 245/1/3
f 253/3/3 249/3/3 248/3/3
f 253/3/3 248/3/3 247/3/3
f 254/3/3 249/3/3 253/3/3
f 255/1/3 247/1/3 252/1/3
f 256/3/3 253/3/3 247/3/3
f 256/1/3 247/1/3 255/1/3
f 257/3/3 253/3/3 256/3/3
f 258/1/4 259/1/4 262/1/4
f 259/3/4 260/3/4 263/3/4
f 261/3/4 262/3/4 266/3/4
f 262/1/4 259/1/4 267/1/4
f 266/3/4 262/3/4 267/3/4
f 267/1/4 259/1/4 268/1/4
f 263/3/4 264/3/4 269/3/4
f 268/1/4 259/1/4 269/1/4
f 259/3/4 263/3/4 269/3/4
f 269/3/4 264/3/4 270/3/4
f 270/3/4 264/3/4 271/3/4
f 267/3/4 268/3/4 274/3/4
f 265/3/4 266/3/4 274/3/4
f 266/3/4 267/3/4 274/3/4
f 271/3/4 272/3/4 275/3/4
f 270/3/4 271/3/4 275/3/4
f 273/3/4 274/3/4 279/3/4
f 274/3/4 268/3/4 280/3/4
f 269/1/4 270/1/4 280/1/4
f 279/3/4 274/3/4 280/3/4
f 268/1/4 269/1/4 280/1/4
f 280/1/4 270/1/4 281/1/4
f 275/3/4 276/3/4 282/3/4
f 281/1/4 270/1/4 282/1/4
f 270/3/4 275/3/4 282/3/4
f 282/3/4 276/3/4 283/3/4
f 276/1/4 277/1/4 284/1/4
f 278/3/4 279/3/4 288/3/4
f 280/3/4 281/3/4 288/3/4
f 279/3/4 280/3/4 288/3/4
f 287/3/4 288/3/4 290/3/4
f 290/3/4 288/3/4 291/3/4
f 283/3/4 276/3/4 292/3/4
f 281/1/4 282/1/4 292/1/4
f 282/1/4 283/1/4 292/1/4
f 292/3/4 276/3/4 293/3/4
f 291/3/4 288/3/4 294/3/4
f 290/1/4 291/1/4 294/1/4
f 289/1/4 290/1/4 294/1/4
f 288/3/4 281/3/4 295/3/4
f 294/3/4 288/3/4 295/3/4
f 295/3/4 281/3/4 296/3/4
f 292/1/4 293/1/4 297/1/4
f 296/3/4 281/3/4 297/3/4
f 281/1/4 292/1/4 297/1/4
f 293/3/4 276/3/4 298/3/4
f 297/1/4 293/1/4 298/1/4
f 298/3/4 276/3/4 299/3/4
f 295/3/4 296/3/4 300/3/4
f 294/1/4 295/1/4 300/1/4
f 300/3/4 296/3/4 301/3/4
f 301/3/4 296/3/4 302/3/4
f 296/1/4 297/1/4 303/1/4
f 302/3/4 296/3/4 303/3/4
f 298/1/4 299/1/4 303/1/4
f 297/1/4 298/1/4 303/1/4
f 299/3/4 276/3/4 304/3/4
f 303/1/4 299/1/4 304/1/4
f 276/1/4 284/1/4 305/1/4
f 304/3/4 276/3/4 305/3/4
f 301/3/4 302/3/4 306/3/4
f 300/1/4 301/1/4 306/1/4
f 306/3/4 302/3/4 307/3/4
f 307/3/4 302/3/4 308/3/4
f 303/1/4 304/1/4 309/1/4
f 308/3/4 302/3/4 309/3/4
f 302/1/4 303/1/4 309/1/4
f 304/1/4 305/1/4 309/1/4
f 307/3/4 308/3/4 310/3/4
f 306/1/4 307/1/4 310/1/4
f 308/1/4 309/1/4 311/1/4
f 310/3/4 308/3/4 311/3/4
f 306/1/4 310/1/4 312/1/4
f 310/1/4 311/1/4 312/1/4
f 311/1/4 309/1/4 313/1/4
f 312/1/4 311/1/4 313/1/4
f 306/1/4 312/1/4 314/1/4
f 300/1/4 306/1/4 314/1/4
f 312/3/4 313/3/4 315/3/4
f 314/1/4 312/1/4 315/1/4
f 313/1/4 309/1/4 316/1/4
f 315/3/4 313/3/4 316/3/4
f 309/1/4 305/1/4 317/1/4
f 316/1/4 309/1/4 317/1/4
f 300/1/4 314/1/4 318/1/4
f 294/1/4 300/1/4 318/1/4
f 315/3/4 316/3/4 319/3/4
f 318/1/4 314/1/4 319/1/4
f 314/3/4 315/3/4 319/3/4
f 316/3/4 317/3/4 319/3/4
f 317/1/4 305/1/4 320/1/4
f 319/3/4 317/3/4 320/3/4
f 320/1/4 305/1/4 321/1/4
f 321/1/4 305/1/4 322/1/4
f 305/1/4 284/1/4 323/1/4
f 322/1/4 305/1/4 323/1/4
f 294/1/4 318/1/4 324/1/4
f 289/1/4 294/1/4 324/1/4
f 318/3/4 319/3/4 325/3/4
f 324/1/4 318/1/4 325/1/4
f 319/3/4 320/3/4 325/3/4
f 320/3/4 321/3/4 325/3/4
f 321/1/4 322/1/4 326/1/4
f 325/3/4 321/3/4 326/3/4
f 326/1/4 322/1/4 327/1/4
f 327/1/4 322/1/4 328/1/4
f 322/3/4 323/3/4 329/3/4
f 328/1/4 322/1/4 329/1/4
f 289/1/4 324/1/4 330/1/4
f 330/1/4 324/1/4 331/1/4
f 324/3/4 325/3/4 332/3/4
f 331/1/4 324/1/4 332/1/4
f 325/3/4 326/3/4 332/3/4
f 326/3/4 327/3/4 332/3/4
f 327/1/4 328/1/4 333/1/4
f 328/3/4 329/3/4 334/3/4
f 333/1/4 328/1/4 334/1/4
f 331/3/4 332/3/4 335/3/4
f 332/3/4 327/3/4 336/3/4
f 335/3/4 332/3/4 336/3/4
f 336/3/4 327/3/4 337/3/4
f 337/3/4 327/3/4 338/3/4
f 338/3/4 327/3/4 339/3/4
f 327/1/4 333/1/4 340/1/4
f 339/3/4 327/3/4 340/3/4
f 340/1/4 333/1/4 341/1/4
f 333/3/4 334/3/4 342/3/4
f 341/1/4 333/1/4 342/1/4
f 284/2/4 285/2/4 343/2/4
f 323/1/4 284/1/4 343/1/4
f 285/1/4 286/1/4 344/1/4
f 343/2/4 285/2/4 344/2/4
f 344/1/4 286/1/4 345/1/4
f 338/3/4 339/3/4 346/3/4
f 346/3/4 339/3/4 347/3/4
f 334/3/4 329/3/4 348/3/4
f 342/3/4 334/3/4 348/3/4
f 341/3/4 342/3/4 348/3/4
f 329/3/4 323/3/4 348/3/4
f 323/1/4 343/1/4 349/1/4
f 348/3/4 323/3/4 349/3/4
f 349/1/4 343/1/4 350/1/4
f 347/3/4 339/3/4 351/3/4
f 351/3/4 339/3/4 352/3/4
f 352/3/4 339/3/4 353/3/4
f 339/1/4 340/1/4 354/1/4
f 353/3/4 339/3/4 354/3/4
f 340/1/4 341/1/4 354/1/4
f 354/1/4 341/1/4 355/1/4
f 341/3/4 348/3/4 356/3/4
f 355/1/4 341/1/4 356/1/4
f 356/3/4 348/3/4 357/3/4
f 357/3/4 348/3/4 358/3/4
f 352/3/4 353/3/4 359/3/4
f 354/1/4 355/1/4 360/1/4
f 359/3/4 353/3/4 360/3/4
f 353/1/4 354/1/4 360/1/4
f 356/3/4 357/3/4 361/3/4
f 355/3/4 356/3/4 361/3/4
f 361/3/4 357/3/4 362/3/4
f 360/1/4 355/1/4 363/1/4
f 355/3/4 361/3/4 364/3/4
f 363/1/4 355/1/4 364/1/4
f 364/3/4 361/3/4 365/3/4
f 368/1/5 367/1/5 366/1/5
f 369/1/5 367/1/5 368/1/5
f 374/3/5 371/3/5 370/3/5
f 375/3/5 371/3/5 374/3/5
f 376/3/5 373/3/5 372/3/5
f 377/3/5 373/3/5 376/3/5
f 382/3/5 379/3/5 378/3/5
f 383/3/5 379/3/5 382/3/5
f 384/3/5 381/3/5 380/3/5
f 385/3/5 381/3/5 384/3/5
f 390/3/5 387/3/5 386/3/5
f 391/3/5 387/3/5 390/3/5
f 392/3/5 389/3/5 388/3/5
f 393/3/5 389/3/5 392/3/5
f 398/3/5 395/3/5 394/3/5
f 399/3/5 395/3/5 398/3/5
f 400/3/5 397/3/5 396/3/5
f 401/3/5 397/3/5 400/3/5
f 406/3/5 403/3/5 402/3/5
f 407/3/5 403/3/5 406/3/5
f 408/3/5 405/3/5 404/3/5
f 409/3/5 405/3/5 408/3/5
f 414/1/5 411/1/5 410/1/5
f 415/1/5 411/1/5 414/1/5
f 416/1/5 413/1/5 412/1/5
f 417/1/5 413/1/5 416/1/5
f 418/3/6 419/3/6 422/3/6
f 422/3/6 419/3/6 423/3/6
f 420/3/6 421/3/6 424/3/6
f 424/3/6 421/3/6 425/3/6
f 426/3/6 427/3/6 430/3/6
f 430/3/6 427/3/6 431/3/6
f 428/3/6 429/3/6 432/3/6
f 432/3/6 429/3/6 433/3/6
f 434/3/6 435/3/6 438/3/6
f 438/3/6 435/3/6 439/3/6
f 436/3/6 437/3/6 440/3/6
f 440/3/6 437/3/6 441/3/6
f 442/1/6 443/1/6 446/1/6
f 446/1/6 443/1/6 447/1/6
f 444/1/6 445/1/6 448/1/6
f 448/1/6 445/1/6 449/1/6
f 450/1/6 451/1/6 452/1/6
f 452/1/6 451/1/6 453/1/6
