# MagicaVoxel @ Ephtracy

# group
o 

# material
mtllib desk.mtl
usemtl palette

# normals
vn -1 0 0
vn 1 0 0
vn 0 0 1
vn 0 0 -1
vn 0 -1 0
vn 0 1 0

# texcoords
vt 0.701172 0.5
vt 0.705078 0.5
vt 0.966797 0.5

# verts
v -3 0.4 1.8
v -3 0.4 -1.9
v -3 3.6 1.8
v -3 3.6 -1.9
v -2.2 2.9 1.8
v -2.2 2.9 1.6
v -2.2 3 1.8
v -2.2 3 1.6
v -0.9 2.9 1.7
v -0.9 2.9 1.6
v -0.9 3 1.7
v -0.9 3 1.6
v -0.6 1 1.8
v -0.6 1 1.6
v -0.6 1.1 1.7
v -0.6 1.1 1.6
v -0.6 1.7 1.7
v -0.6 1.7 1.6
v -0.6 1.8 1.8
v -0.6 1.8 1.6
v -0.2 0.4 1.8
v -0.2 0.4 1.7
v -0.2 0.4 1.5
v -0.2 0.5 1.6
v -0.2 0.5 1.5
v -0.2 2.5 1.6
v -0.2 2.5 1.5
v -0.2 2.6 1.6
v -0.2 2.6 1.5
v -0.2 3.3 1.6
v -0.2 3.4 1.8
v -0.2 3.4 1.7
v -0.2 3.4 1.6
v 2.7 0.4 -1.6
v 2.7 0.4 -1.7
v 2.7 0.5 -1.6
v 2.7 0.5 -1.7
v 2.8 0.4 1.8
v 2.8 0.4 1.6
v 2.8 0.4 -1.6
v 2.8 0.5 1.6
v 2.8 0.5 -1.6
v 2.8 0.5 -1.7
v 2.8 2.8 -1.6
v 2.8 2.8 -1.7
v 2.8 3 1.8
v 2.8 3 1.6
v 2.8 3 -1.6
v 2.8 3.1 1.8
v 2.8 3.1 1.7
v 2.8 3.4 1.8
v 2.8 3.4 1.7
v 2.9 2.8 -1.6
v 2.9 2.8 -1.7
v 2.9 3 -1.6
v 2.9 3 -1.7
v 2.9 3.1 1.7
v 2.9 3.1 1.6
v 2.9 3.1 -1.7
v 2.9 3.4 1.7
v 2.9 3.4 1.5
v 2.9 3.4 -1.7
v -2.8 0.4 1.8
v -2.8 0.4 1.7
v -2.8 0.4 1.6
v -2.8 0.4 1.5
v -2.8 0.5 1.6
v -2.8 0.5 1.5
v -2.8 2.5 1.6
v -2.8 2.5 1.5
v -2.8 2.6 1.6
v -2.8 2.6 1.5
v -2.8 3.3 1.6
v -2.8 3.4 1.8
v -2.8 3.4 1.7
v -2.8 3.4 1.6
v -2.1 2.9 1.7
v -2.1 2.9 1.6
v -2.1 3 1.7
v -2.1 3 1.6
v -0.8 2.9 1.8
v -0.8 2.9 1.6
v -0.8 3 1.8
v -0.8 3 1.6
v -0.5 1 1.8
v -0.5 1 1.6
v -0.5 1.1 1.7
v -0.5 1.1 1.6
v -0.5 1.7 1.7
v -0.5 1.7 1.6
v -0.5 1.8 1.8
v -0.5 1.8 1.6
v 2.38419e-07 0.4 1.8
v 2.38419e-07 0.4 1.6
v 2.38419e-07 0.4 -1.7
v 2.38419e-07 0.5 1.6
v 2.38419e-07 0.5 -1.7
v 2.38419e-07 3 1.8
v 2.38419e-07 3 1.6
v 2.38419e-07 3 -1.7
v 2.38419e-07 3.1 1.8
v 2.38419e-07 3.1 1.6
v 2.38419e-07 3.1 -1.7
v 2.38419e-07 3.4 1.8
v 2.38419e-07 3.4 1.5
v 2.38419e-07 3.4 -1.7
v 3 0.4 1.8
v 3 0.4 -1.9
v 3 3.6 1.8
v 3 3.6 -1.9
v -3 0.4 1.8
v -3 3.6 1.8
v -2.8 0.4 1.8
v -2.8 3.4 1.8
v -2.2 2.9 1.8
v -2.2 3 1.8
v -0.8 2.9 1.8
v -0.8 3 1.8
v -0.6 1 1.8
v -0.6 1.8 1.8
v -0.5 1 1.8
v -0.5 1.8 1.8
v -0.2 0.4 1.8
v -0.2 3.4 1.8
v 2.38419e-07 0.4 1.8
v 2.38419e-07 3 1.8
v 2.38419e-07 3.1 1.8
v 2.38419e-07 3.4 1.8
v 2.8 0.4 1.8
v 2.8 3 1.8
v 2.8 3.1 1.8
v 2.8 3.4 1.8
v 3 0.4 1.8
v 3 3.6 1.8
v -2.8 0.5 1.6
v -2.8 2.5 1.6
v -2.8 2.6 1.6
v -2.8 3.3 1.6
v -2.8 3.4 1.6
v -2.7 3.4 1.6
v -2.2 2.9 1.6
v -2.2 3 1.6
v -2.1 2.9 1.6
v -2.1 3 1.6
v -0.9 2.9 1.6
v -0.9 3 1.6
v -0.8 2.9 1.6
v -0.8 3 1.6
v -0.6 1 1.6
v -0.6 1.1 1.6
v -0.6 1.7 1.6
v -0.6 1.8 1.6
v -0.5 1 1.6
v -0.5 1.1 1.6
v -0.5 1.7 1.6
v -0.5 1.8 1.6
v -0.2 0.5 1.6
v -0.2 2.5 1.6
v -0.2 2.6 1.6
v -0.2 3.3 1.6
v -0.2 3.4 1.6
v -2.8 0.4 1.5
v -2.8 0.5 1.5
v -2.8 2.5 1.5
v -2.8 2.6 1.5
v -0.2 0.4 1.5
v -0.2 0.5 1.5
v -0.2 2.5 1.5
v -0.2 2.6 1.5
v 2.7 0.4 -1.6
v 2.7 0.5 -1.6
v 2.8 0.4 -1.6
v 2.8 0.5 -1.6
v 2.38419e-07 0.4 -1.7
v 2.38419e-07 0.5 -1.7
v 2.38419e-07 3 -1.7
v 2.38419e-07 3.1 -1.7
v 2.38419e-07 3.4 -1.7
v 2.7 0.4 -1.7
v 2.7 0.5 -1.7
v 2.7 3 -1.7
v 2.8 0.5 -1.7
v 2.8 2.8 -1.7
v 2.9 2.8 -1.7
v 2.9 3 -1.7
v 2.9 3.1 -1.7
v 2.9 3.4 -1.7
v -2.1 2.9 1.7
v -2.1 3 1.7
v -0.9 2.9 1.7
v -0.9 3 1.7
v -0.6 1.1 1.7
v -0.6 1.7 1.7
v -0.5 1.1 1.7
v -0.5 1.7 1.7
v 2.8 3.1 1.7
v 2.8 3.4 1.7
v 2.9 3.1 1.7
v 2.9 3.4 1.7
v 2.8 2.8 -1.6
v 2.8 3 -1.6
v 2.9 2.8 -1.6
v 2.9 3 -1.6
v -3 0.4 -1.9
v -3 3.6 -1.9
v 3 0.4 -1.9
v 3 3.6 -1.9
v -3 0.4 1.8
v -2.8 0.4 1.8
v -0.2 0.4 1.8
v 2.38419e-07 0.4 1.8
v 2.8 0.4 1.8
v 3 0.4 1.8
v -2.9 0.4 1.7
v -2.8 0.4 1.7
v -0.2 0.4 1.7
v -0.0999999 0.4 1.7
v -2.9 0.4 1.6
v -2.8 0.4 1.6
v -0.0999999 0.4 1.6
v 2.38419e-07 0.4 1.6
v 2.8 0.4 1.6
v 2.9 0.4 1.6
v -2.8 0.4 1.5
v -0.2 0.4 1.5
v -0.0999999 0.4 1.5
v -2.8 0.4 1.4
v -0.2 0.4 1.4
v 2.7 0.4 -1.6
v 2.8 0.4 -1.6
v 2.9 0.4 -1.6
v -0.0999999 0.4 -1.7
v 2.38419e-07 0.4 -1.7
v 2.7 0.4 -1.7
v 2.8 0.4 -1.7
v 2.9 0.4 -1.7
v 2.38419e-07 0.4 -1.8
v 2.7 0.4 -1.8
v 2.8 0.4 -1.8
v 2.9 0.4 -1.8
v -3 0.4 -1.9
v 3 0.4 -1.9
v -2.8 0.5 1.6
v -0.2 0.5 1.6
v -2.8 0.5 1.5
v -0.2 0.5 1.5
v -0.6 1 1.8
v -0.5 1 1.8
v -0.6 1 1.6
v -0.5 1 1.6
v -0.6 1.7 1.7
v -0.5 1.7 1.7
v -0.6 1.7 1.6
v -0.5 1.7 1.6
v -2.8 2.6 1.6
v -0.2 2.6 1.6
v -2.8 2.6 1.5
v -0.2 2.6 1.5
v -2.2 2.9 1.8
v -0.8 2.9 1.8
v -2.1 2.9 1.7
v -0.9 2.9 1.7
v -2.2 2.9 1.6
v -2.1 2.9 1.6
v -0.9 2.9 1.6
v -0.8 2.9 1.6
v 2.38419e-07 3 1.8
v 2.8 3 1.8
v 2.38419e-07 3 1.6
v 2.8 3 1.6
v 2.8 3 -1.6
v 2.9 3 -1.6
v 2.38419e-07 3 -1.7
v 2.7 3 -1.7
v 2.9 3 -1.7
v -2.8 3.4 1.8
v -0.2 3.4 1.8
v 2.38419e-07 3.4 1.8
v 2.8 3.4 1.8
v -2.8 3.4 1.7
v -2.7 3.4 1.7
v -0.2 3.4 1.7
v 2.8 3.4 1.7
v 2.9 3.4 1.7
v -2.8 3.4 1.6
v -2.7 3.4 1.6
v -0.2 3.4 1.6
v 2.38419e-07 3.4 1.5
v 2.9 3.4 1.5
v 2.38419e-07 3.4 -1.7
v 2.9 3.4 -1.7
v 2.7 0.5 -1.6
v 2.8 0.5 -1.6
v 2.7 0.5 -1.7
v 2.8 0.5 -1.7
v -0.6 1.1 1.7
v -0.5 1.1 1.7
v -0.6 1.1 1.6
v -0.5 1.1 1.6
v -0.6 1.8 1.8
v -0.5 1.8 1.8
v -0.6 1.8 1.6
v -0.5 1.8 1.6
v -2.8 2.5 1.6
v -0.2 2.5 1.6
v -2.8 2.5 1.5
v -0.2 2.5 1.5
v 2.8 2.8 -1.6
v 2.9 2.8 -1.6
v 2.8 2.8 -1.7
v 2.9 2.8 -1.7
v -2.2 3 1.8
v -0.8 3 1.8
v -2.1 3 1.7
v -0.9 3 1.7
v -2.2 3 1.6
v -2.1 3 1.6
v -0.9 3 1.6
v -0.8 3 1.6
v 2.38419e-07 3.1 1.8
v 2.8 3.1 1.8
v 2.8 3.1 1.7
v 2.9 3.1 1.7
v 2.38419e-07 3.1 1.6
v 2.9 3.1 1.6
v 2.38419e-07 3.1 -1.7
v 2.9 3.1 -1.7
v -3 3.6 1.8
v 3 3.6 1.8
v -3 3.6 -1.9
v 3 3.6 -1.9

# faces
f 3/1/1 2/1/1 1/1/1
f 4/1/1 2/1/1 3/1/1
f 7/3/1 6/3/1 5/3/1
f 8/3/1 6/3/1 7/3/1
f 11/3/1 10/3/1 9/3/1
f 12/3/1 10/3/1 11/3/1
f 15/3/1 14/3/1 13/3/1
f 16/3/1 14/3/1 15/3/1
f 17/3/1 15/3/1 13/3/1
f 19/3/1 17/3/1 13/3/1
f 19/3/1 18/3/1 17/3/1
f 20/3/1 18/3/1 19/3/1
f 24/2/1 23/2/1 22/2/1
f 25/2/1 23/2/1 24/2/1
f 26/2/1 24/2/1 22/2/1
f 28/2/1 26/2/1 22/2/1
f 28/2/1 27/2/1 26/2/1
f 29/2/1 27/2/1 28/2/1
f 30/2/1 28/2/1 22/2/1
f 31/1/1 22/1/1 21/1/1
f 32/2/1 30/2/1 22/2/1
f 32/1/1 22/1/1 31/1/1
f 33/2/1 30/2/1 32/2/1
f 36/2/1 35/2/1 34/2/1
f 37/2/1 35/2/1 36/2/1
f 41/1/1 39/1/1 38/1/1
f 41/2/1 40/2/1 39/2/1
f 42/2/1 40/2/1 41/2/1
f 44/1/1 42/1/1 41/1/1
f 44/1/1 43/1/1 42/1/1
f 45/1/1 43/1/1 44/1/1
f 46/1/1 41/1/1 38/1/1
f 46/1/1 44/1/1 41/1/1
f 47/1/1 44/1/1 46/1/1
f 48/1/1 44/1/1 47/1/1
f 51/1/1 50/1/1 49/1/1
f 52/1/1 50/1/1 51/1/1
f 55/1/1 54/1/1 53/1/1
f 56/1/1 54/1/1 55/1/1
f 60/1/1 58/1/1 57/1/1
f 60/1/1 59/1/1 58/1/1
f 61/1/1 59/1/1 60/1/1
f 62/1/1 59/1/1 61/1/1
f 64/2/2 65/2/2 67/2/2
f 65/1/2 66/1/2 67/1/2
f 67/1/2 66/1/2 68/1/2
f 64/2/2 67/2/2 69/2/2
f 64/2/2 69/2/2 71/2/2
f 69/1/2 70/1/2 71/1/2
f 71/1/2 70/1/2 72/1/2
f 64/2/2 71/2/2 73/2/2
f 63/1/2 64/1/2 74/1/2
f 64/2/2 73/2/2 75/2/2
f 74/1/2 64/1/2 75/1/2
f 75/2/2 73/2/2 76/2/2
f 77/3/2 78/3/2 79/3/2
f 79/3/2 78/3/2 80/3/2
f 81/3/2 82/3/2 83/3/2
f 83/3/2 82/3/2 84/3/2
f 85/3/2 86/3/2 87/3/2
f 87/3/2 86/3/2 88/3/2
f 85/3/2 87/3/2 89/3/2
f 85/3/2 89/3/2 91/3/2
f 89/3/2 90/3/2 91/3/2
f 91/3/2 90/3/2 92/3/2
f 93/1/2 94/1/2 96/1/2
f 94/2/2 95/2/2 96/2/2
f 96/2/2 95/2/2 97/2/2
f 93/1/2 96/1/2 98/1/2
f 96/1/2 97/1/2 98/1/2
f 98/1/2 97/1/2 99/1/2
f 99/1/2 97/1/2 100/1/2
f 101/1/2 102/1/2 104/1/2
f 102/1/2 103/1/2 104/1/2
f 104/1/2 103/1/2 105/1/2
f 105/1/2 103/1/2 106/1/2
f 107/1/2 108/1/2 109/1/2
f 109/1/2 108/1/2 110/1/2
f 113/1/3 112/1/3 111/1/3
f 114/1/3 112/1/3 113/1/3
f 117/3/3 116/3/3 115/3/3
f 118/3/3 116/3/3 117/3/3
f 121/3/3 120/3/3 119/3/3
f 122/3/3 120/3/3 121/3/3
f 124/1/3 112/1/3 114/1/3
f 125/1/3 124/1/3 123/1/3
f 126/1/3 124/1/3 125/1/3
f 127/1/3 124/1/3 126/1/3
f 128/1/3 112/1/3 124/1/3
f 128/1/3 124/1/3 127/1/3
f 130/1/3 127/1/3 126/1/3
f 131/1/3 127/1/3 130/1/3
f 132/1/3 112/1/3 128/1/3
f 133/1/3 131/1/3 130/1/3
f 133/1/3 132/1/3 131/1/3
f 133/1/3 130/1/3 129/1/3
f 134/1/3 112/1/3 132/1/3
f 134/1/3 132/1/3 133/1/3
f 140/2/3 139/2/3 138/2/3
f 141/1/3 138/1/3 137/1/3
f 142/1/3 138/1/3 141/1/3
f 143/1/3 141/1/3 137/1/3
f 144/1/3 138/1/3 142/1/3
f 145/1/3 143/1/3 137/1/3
f 145/2/3 144/2/3 143/2/3
f 146/1/3 138/1/3 144/1/3
f 146/2/3 144/2/3 145/2/3
f 147/1/3 145/1/3 137/1/3
f 148/1/3 138/1/3 146/1/3
f 149/1/3 136/1/3 135/1/3
f 150/1/3 136/1/3 149/1/3
f 151/1/3 136/1/3 150/1/3
f 152/1/3 136/1/3 151/1/3
f 153/1/3 149/1/3 135/1/3
f 154/2/3 151/2/3 150/2/3
f 155/2/3 151/2/3 154/2/3
f 156/1/3 136/1/3 152/1/3
f 157/1/3 155/1/3 154/1/3
f 157/1/3 156/1/3 155/1/3
f 157/1/3 153/1/3 135/1/3
f 157/1/3 154/1/3 153/1/3
f 158/1/3 136/1/3 156/1/3
f 158/1/3 156/1/3 157/1/3
f 159/1/3 148/1/3 147/1/3
f 159/1/3 147/1/3 137/1/3
f 160/2/3 140/2/3 138/2/3
f 160/1/3 148/1/3 159/1/3
f 160/1/3 138/1/3 148/1/3
f 161/2/3 140/2/3 160/2/3
f 166/2/3 163/2/3 162/2/3
f 167/2/3 163/2/3 166/2/3
f 168/2/3 165/2/3 164/2/3
f 169/2/3 165/2/3 168/2/3
f 172/2/3 171/2/3 170/2/3
f 173/2/3 171/2/3 172/2/3
f 179/2/3 175/2/3 174/2/3
f 179/2/3 176/2/3 175/2/3
f 180/2/3 176/2/3 179/2/3
f 181/2/3 176/2/3 180/2/3
f 182/1/3 181/1/3 180/1/3
f 183/1/3 181/1/3 182/1/3
f 184/1/3 181/1/3 183/1/3
f 185/1/3 181/1/3 184/1/3
f 186/1/3 178/1/3 177/1/3
f 187/1/3 178/1/3 186/1/3
f 188/3/4 189/3/4 190/3/4
f 190/3/4 189/3/4 191/3/4
f 192/3/4 193/3/4 194/3/4
f 194/3/4 193/3/4 195/3/4
f 196/1/4 197/1/4 198/1/4
f 198/1/4 197/1/4 199/1/4
f 200/1/4 201/1/4 202/1/4
f 202/1/4 201/1/4 203/1/4
f 204/1/4 205/1/4 206/1/4
f 206/1/4 205/1/4 207/1/4
f 214/1/5 209/1/5 208/1/5
f 215/1/5 209/1/5 214/1/5
f 216/1/5 211/1/5 210/1/5
f 217/1/5 211/1/5 216/1/5
f 218/2/5 215/2/5 214/2/5
f 218/1/5 214/1/5 208/1/5
f 219/2/5 215/2/5 218/2/5
f 220/1/5 211/1/5 217/1/5
f 220/2/5 217/2/5 216/2/5
f 221/1/5 211/1/5 220/1/5
f 222/1/5 213/1/5 212/1/5
f 223/1/5 213/1/5 222/1/5
f 224/1/5 219/1/5 218/1/5
f 225/2/5 221/2/5 220/2/5
f 225/2/5 220/2/5 216/2/5
f 226/2/5 221/2/5 225/2/5
f 227/1/5 224/1/5 218/1/5
f 227/2/5 225/2/5 224/2/5
f 228/1/5 226/1/5 225/1/5
f 228/2/5 225/2/5 227/2/5
f 230/2/5 223/2/5 222/2/5
f 231/1/5 213/1/5 223/1/5
f 231/2/5 223/2/5 230/2/5
f 232/2/5 221/2/5 226/2/5
f 232/1/5 226/1/5 228/1/5
f 232/1/5 228/1/5 227/1/5
f 233/2/5 221/2/5 232/2/5
f 234/2/5 230/2/5 229/2/5
f 235/1/5 231/1/5 230/1/5
f 235/2/5 230/2/5 234/2/5
f 236/1/5 213/1/5 231/1/5
f 236/1/5 231/1/5 235/1/5
f 237/1/5 233/1/5 232/1/5
f 237/2/5 234/2/5 233/2/5
f 238/1/5 235/1/5 234/1/5
f 238/2/5 234/2/5 237/2/5
f 239/2/5 236/2/5 235/2/5
f 239/1/5 235/1/5 238/1/5
f 240/1/5 213/1/5 236/1/5
f 240/2/5 236/2/5 239/2/5
f 241/1/5 237/1/5 232/1/5
f 241/1/5 239/1/5 238/1/5
f 241/1/5 240/1/5 239/1/5
f 241/1/5 218/1/5 208/1/5
f 241/1/5 232/1/5 227/1/5
f 241/1/5 238/1/5 237/1/5
f 241/1/5 227/1/5 218/1/5
f 242/1/5 213/1/5 240/1/5
f 242/1/5 240/1/5 241/1/5
f 245/1/5 244/1/5 243/1/5
f 246/1/5 244/1/5 245/1/5
f 249/3/5 248/3/5 247/3/5
f 250/3/5 248/3/5 249/3/5
f 253/3/5 252/3/5 251/3/5
f 254/3/5 252/3/5 253/3/5
f 257/1/5 256/1/5 255/1/5
f 258/1/5 256/1/5 257/1/5
f 261/3/5 260/3/5 259/3/5
f 262/3/5 260/3/5 261/3/5
f 263/3/5 261/3/5 259/3/5
f 264/3/5 261/3/5 263/3/5
f 265/3/5 260/3/5 262/3/5
f 266/3/5 260/3/5 265/3/5
f 269/1/5 268/1/5 267/1/5
f 270/1/5 268/1/5 269/1/5
f 271/2/5 270/2/5 269/2/5
f 273/2/5 271/2/5 269/2/5
f 273/2/5 272/2/5 271/2/5
f 274/2/5 272/2/5 273/2/5
f 275/2/5 272/2/5 274/2/5
f 280/1/5 277/1/5 276/1/5
f 281/1/5 277/1/5 280/1/5
f 282/1/5 277/1/5 281/1/5
f 283/1/5 279/1/5 278/1/5
f 285/1/5 281/1/5 280/1/5
f 286/2/5 282/2/5 281/2/5
f 286/1/5 281/1/5 285/1/5
f 287/2/5 282/2/5 286/2/5
f 288/1/5 284/1/5 283/1/5
f 288/1/5 283/1/5 278/1/5
f 289/1/5 284/1/5 288/1/5
f 290/2/5 289/2/5 288/2/5
f 291/2/5 289/2/5 290/2/5
f 292/2/6 293/2/6 294/2/6
f 294/2/6 293/2/6 295/2/6
f 296/3/6 297/3/6 298/3/6
f 298/3/6 297/3/6 299/3/6
f 300/3/6 301/3/6 302/3/6
f 302/3/6 301/3/6 303/3/6
f 304/1/6 305/1/6 306/1/6
f 306/1/6 305/1/6 307/1/6
f 308/1/6 309/1/6 310/1/6
f 310/1/6 309/1/6 311/1/6
f 312/3/6 313/3/6 314/3/6
f 314/3/6 313/3/6 315/3/6
f 312/3/6 314/3/6 316/3/6
f 316/3/6 314/3/6 317/3/6
f 315/3/6 313/3/6 318/3/6
f 318/3/6 313/3/6 319/3/6
f 320/1/6 321/1/6 322/1/6
f 320/1/6 322/1/6 324/1/6
f 322/1/6 323/1/6 324/1/6
f 324/1/6 323/1/6 325/1/6
f 324/2/6 325/2/6 326/2/6
f 326/2/6 325/2/6 327/2/6
f 328/1/6 329/1/6 330/1/6
f 330/1/6 329/1/6 331/1/6
